<svg width="597" height="490" viewBox="0 0 597 490" fill="none" xmlns="http://www.w3.org/2000/svg">
<g opacity="0.5" filter="url(#filter0_f_1059_1563)">
<path d="M152.976 380.011C177.081 380.011 196.621 327.287 196.621 262.248C196.621 197.209 177.081 144.484 152.976 144.484C128.872 144.484 109.331 197.209 109.331 262.248C109.331 327.287 128.872 380.011 152.976 380.011Z" fill="#399AD1"/>
<path d="M211.602 344.858C235.707 344.858 255.248 292.134 255.248 227.095C255.248 162.056 235.707 109.331 211.602 109.331C187.498 109.331 167.957 162.056 167.957 227.095C167.957 292.134 187.498 344.858 211.602 344.858Z" fill="#A939D1"/>
<path d="M274.143 380.011C298.247 380.011 317.788 327.287 317.788 262.248C317.788 197.209 298.247 144.484 274.143 144.484C250.038 144.484 230.498 197.209 230.498 262.248C230.498 327.287 250.038 380.011 274.143 380.011Z" fill="#D26739"/>
<path d="M327.554 344.858C351.658 344.858 371.199 292.133 371.199 227.094C371.199 162.055 351.658 109.331 327.554 109.331C303.449 109.331 283.908 162.055 283.908 227.094C283.908 292.133 303.449 344.858 327.554 344.858Z" fill="#3C39D1"/>
<path d="M374.459 380.011C398.563 380.011 418.104 327.287 418.104 262.248C418.104 197.209 398.563 144.484 374.459 144.484C350.354 144.484 330.813 197.209 330.813 262.248C330.813 327.287 350.354 380.011 374.459 380.011Z" fill="#D2395E"/>
<path d="M443.508 344.858C467.612 344.858 487.153 292.133 487.153 227.094C487.153 162.055 467.612 109.331 443.508 109.331C419.403 109.331 399.863 162.055 399.863 227.094C399.863 292.133 419.403 344.858 443.508 344.858Z" fill="#9333EA"/>
</g>
<defs>
<filter id="filter0_f_1059_1563" x="6.10352e-05" y="2.86102e-06" width="596.484" height="489.342" filterUnits="userSpaceOnUse" color-interpolation-filters="sRGB">
<feFlood flood-opacity="0" result="BackgroundImageFix"/>
<feBlend mode="normal" in="SourceGraphic" in2="BackgroundImageFix" result="shape"/>
<feGaussianBlur stdDeviation="54.6655" result="effect1_foregroundBlur_1059_1563"/>
</filter>
</defs>
</svg>
