<svg width="16" height="16" viewBox="0 0 16 16" fill="none" xmlns="http://www.w3.org/2000/svg">
<path d="M14 9C14.5523 9 15 8.55228 15 8C15 7.44772 14.5523 7 14 7V8V9ZM1.29289 7.29289C0.902369 7.68342 0.902369 8.31658 1.29289 8.70711L7.65685 15.0711C8.04738 15.4616 8.68054 15.4616 9.07107 15.0711C9.46159 14.6805 9.46159 14.0474 9.07107 13.6569L3.41421 8L9.07107 2.34315C9.46159 1.95262 9.46159 1.31946 9.07107 0.928932C8.68054 0.538408 8.04738 0.538408 7.65685 0.928932L1.29289 7.29289ZM14 8V7L2 7V8V9L14 9V8Z" fill="#95A0A7"/>
</svg>
