<svg width="33" height="40" viewBox="0 0 33 40" fill="none" xmlns="http://www.w3.org/2000/svg">
<path d="M20.9521 12.1831H12.0217V28.2274H20.9521V12.1831Z" fill="#FF5A00"/>
<path d="M12.6161 20.2052C12.6161 16.9455 14.1485 14.0523 16.5 12.183C14.7694 10.8224 12.5864 10 10.2052 10C4.56426 10 0 14.5643 0 20.2052C0 25.8461 4.56426 30.4103 10.2052 30.4103C12.5864 30.4103 14.7694 29.588 16.5 28.2273C14.1452 26.3844 12.6161 23.4649 12.6161 20.2052Z" fill="#EB001B"/>
<path d="M33 20.2052C33 25.8461 28.4358 30.4103 22.7948 30.4103C20.4136 30.4103 18.2306 29.588 16.5 28.2273C18.8812 26.3547 20.3839 23.4649 20.3839 20.2052C20.3839 16.9455 18.8515 14.0523 16.5 12.183C18.2273 10.8224 20.4103 10 22.7915 10C28.4358 10 33 14.594 33 20.2052Z" fill="#F79E1B"/>
</svg>
