<svg width="16" height="16" viewBox="0 0 16 16" fill="none" xmlns="http://www.w3.org/2000/svg">
<g clip-path="url(#clip0_3129_1162)">
<path d="M15.2032 15.9994C15.0986 15.9995 14.995 15.9788 14.8985 15.9387C14.8019 15.8986 14.7142 15.8399 14.6404 15.7658L0.232415 1.35973C0.0829769 1.21029 -0.000976564 1.00761 -0.000976562 0.796268C-0.000976561 0.584931 0.0829769 0.38225 0.232415 0.232812C0.381853 0.0833736 0.584534 -0.000579832 0.795872 -0.000579834C1.00721 -0.000579836 1.20989 0.0833736 1.35933 0.232812L15.7673 14.6408C15.8783 14.7522 15.9538 14.894 15.9844 15.0483C16.0149 15.2026 15.9991 15.3624 15.9389 15.5078C15.8787 15.6531 15.7768 15.7773 15.6461 15.8648C15.5154 15.9523 15.3617 15.9991 15.2045 15.9994H15.2032Z" fill="black"/>
<path d="M0.796367 15.9994C0.638969 15.9994 0.485108 15.9527 0.354207 15.8653C0.223306 15.7779 0.121235 15.6537 0.0608812 15.5083C0.000527606 15.363 -0.0154028 15.203 0.0151013 15.0486C0.0456055 14.8942 0.121177 14.7523 0.232273 14.6408L14.6402 0.232812C14.7897 0.0833736 14.9923 -0.000579839 15.2037 -0.000579834C15.415 -0.000579829 15.6177 0.0833736 15.7671 0.232812C15.9166 0.38225 16.0005 0.584931 16.0005 0.796268C16.0005 1.00761 15.9166 1.21029 15.7671 1.35973L1.35919 15.7677C1.28523 15.8414 1.19745 15.8999 1.10087 15.9396C1.00429 15.9794 0.900812 15.9997 0.796367 15.9994Z" fill="black"/>
</g>
<defs>
<clipPath id="clip0_3129_1162">
<rect width="16" height="16" fill="white"/>
</clipPath>
</defs>
</svg>
