<svg  viewBox="0 0 15 15" fill="none" xmlns="http://www.w3.org/2000/svg">
<path d="M9.525 1.25H7.09113C5.98849 1.24999 5.11511 1.24998 4.43159 1.34225C3.72813 1.43721 3.15876 1.63728 2.70974 2.0881C2.26073 2.53892 2.06146 3.11057 1.96688 3.81686C1.87498 4.50312 1.87499 5.38001 1.875 6.48706V10.1356C1.875 11.0781 2.44997 11.8859 3.26698 12.2245C3.22493 11.6561 3.22496 10.8586 3.225 10.195V7.1235V7.064C3.22496 6.26294 3.22491 5.57277 3.29893 5.02007C3.37824 4.42774 3.55712 3.85995 4.01581 3.39941C4.47451 2.93887 5.04003 2.75928 5.62999 2.67964C6.18048 2.60534 6.86794 2.60538 7.66575 2.60542L7.725 2.60543H9.525L9.58425 2.60542C10.3821 2.60538 11.068 2.60534 11.6185 2.67964C11.2892 1.84237 10.476 1.25 9.525 1.25Z" fill="#808080"/>
<path d="M4.125 7.12337C4.125 5.41949 4.125 4.56756 4.65221 4.03824C5.17941 3.50891 6.02794 3.50891 7.725 3.50891H9.525C11.2221 3.50891 12.0706 3.50891 12.5978 4.03824C13.125 4.56756 13.125 5.4195 13.125 7.12337V10.1354C13.125 11.8393 13.125 12.6912 12.5978 13.2206C12.0706 13.7499 11.2221 13.7499 9.525 13.7499H7.725C6.02794 13.7499 5.17941 13.7499 4.65221 13.2206C4.125 12.6912 4.125 11.8393 4.125 10.1354V7.12337Z" fill="#808080"/>
</svg>
