<svg width="33" height="40" viewBox="0 0 33 40" fill="none" xmlns="http://www.w3.org/2000/svg">
<path d="M16.5 36.5C25.6127 36.5 33 29.1127 33 20C33 10.8873 25.6127 3.5 16.5 3.5C7.3873 3.5 0 10.8873 0 20C0 29.1127 7.3873 36.5 16.5 36.5Z" fill="url(#paint0_linear_3160_1844)"/>
<path d="M18.2126 17.9688V16.0201H22.6462V12.9462H10.3421V16.0201H14.7872V17.9688C11.0632 18.1486 8.26807 18.8961 8.26807 19.7838C8.26807 20.6715 11.0599 21.4222 14.7872 21.5988V28.0338H18.2126V21.5988C21.9367 21.4206 24.7318 20.6731 24.7318 19.7838C24.7318 18.8944 21.9449 18.1486 18.2126 17.9688ZM16.4999 21.0312C12.4673 21.0312 9.19867 20.4075 9.19867 19.6567C9.19867 19.0116 11.5796 18.4687 14.7839 18.3235V20.5246C15.335 20.5494 15.9076 20.5642 16.4966 20.5642C17.0857 20.5642 17.6615 20.5494 18.2093 20.5246V18.3235C21.4136 18.4687 23.7946 19.0116 23.7946 19.6567C23.8012 20.4157 20.5325 21.0312 16.4999 21.0312Z" fill="white"/>
<defs>
<linearGradient id="paint0_linear_3160_1844" x1="16.5" y1="36.5" x2="16.5" y2="3.5" gradientUnits="userSpaceOnUse">
<stop stop-color="#17755D"/>
<stop offset="1" stop-color="#68CCB2"/>
</linearGradient>
</defs>
</svg>
