<svg width="40" height="40" viewBox="0 0 40 40" fill="none" xmlns="http://www.w3.org/2000/svg">
<rect width="40" height="40" rx="20" fill="#D1D5DB"/>
<path d="M19.604 11.9125C19.6406 11.8387 19.697 11.7766 19.7669 11.7332C19.8369 11.6898 19.9175 11.6667 19.9999 11.6667C20.0822 11.6667 20.1629 11.6898 20.2328 11.7332C20.3028 11.7766 20.3592 11.8387 20.3957 11.9125L22.3207 15.8117C22.4475 16.0683 22.6347 16.2903 22.8662 16.4587C23.0977 16.6271 23.3666 16.7368 23.6499 16.7783L27.9549 17.4083C28.0364 17.4201 28.1131 17.4546 28.1761 17.5077C28.2391 17.5608 28.2861 17.6304 28.3116 17.7088C28.337 17.7872 28.3401 17.8712 28.3204 17.9512C28.3006 18.0312 28.2589 18.1041 28.1999 18.1617L25.0865 21.1933C24.8812 21.3934 24.7276 21.6404 24.6389 21.913C24.5502 22.1856 24.5291 22.4757 24.5774 22.7583L25.3124 27.0417C25.3268 27.1232 25.318 27.2071 25.287 27.2839C25.2559 27.3607 25.204 27.4272 25.137 27.4758C25.07 27.5245 24.9907 27.5533 24.9081 27.5591C24.8255 27.5648 24.743 27.5472 24.6699 27.5083L20.8215 25.485C20.568 25.3518 20.2859 25.2823 19.9995 25.2823C19.7131 25.2823 19.4309 25.3518 19.1774 25.485L15.3299 27.5083C15.2568 27.547 15.1744 27.5644 15.0919 27.5585C15.0095 27.5527 14.9303 27.5238 14.8635 27.4752C14.7966 27.4266 14.7447 27.3601 14.7138 27.2835C14.6828 27.2069 14.6739 27.1231 14.6882 27.0417L15.4224 22.7592C15.4709 22.4764 15.4499 22.1862 15.3612 21.9134C15.2724 21.6406 15.1187 21.3935 14.9132 21.1933L11.7999 18.1625C11.7404 18.105 11.6982 18.032 11.6782 17.9517C11.6581 17.8715 11.6611 17.7872 11.6866 17.7085C11.7121 17.6298 11.7593 17.5599 11.8226 17.5066C11.8859 17.4534 11.963 17.4191 12.0449 17.4075L16.349 16.7783C16.6326 16.7371 16.9019 16.6275 17.1337 16.4591C17.3655 16.2908 17.553 16.0686 17.6799 15.8117L19.604 11.9125Z" stroke="white" stroke-width="1.66667" stroke-linecap="round" stroke-linejoin="round"/>
</svg>
