<svg width="12" height="12" viewBox="0 0 12 12" fill="none" xmlns="http://www.w3.org/2000/svg">
<path d="M0.749992 10.5C0.749992 10.9148 1.08515 11.25 1.49999 11.25H5.62499L5.62499 7.5H0.749992L0.749992 10.5ZM10.875 3.75H10.2633C10.4086 3.46641 10.5 3.15234 10.5 2.8125C10.5 1.67579 9.5742 0.75 8.4375 0.75C7.46249 0.75 6.83202 1.24922 6.02343 2.35079C5.21483 1.24922 4.58437 0.75 3.60937 0.75C2.47265 0.75 1.54687 1.67579 1.54687 2.8125C1.54687 3.15234 1.63593 3.46641 1.78358 3.75H1.125C0.710156 3.75 0.375 4.08516 0.375 4.5L0.375 6.375C0.375 6.58125 0.54375 6.75 0.75 6.75L11.25 6.75C11.4563 6.75 11.625 6.58125 11.625 6.375V4.5C11.625 4.08516 11.2898 3.75 10.875 3.75ZM3.60702 3.75C3.08906 3.75 2.66953 3.33047 2.66953 2.8125C2.66953 2.29454 3.08906 1.875 3.60702 1.875C4.07343 1.875 4.41796 1.95235 5.62499 3.75L3.60702 3.75ZM8.4375 3.75H6.41952C7.6242 1.95704 7.95938 1.875 8.4375 1.875C8.95545 1.875 9.375 2.29454 9.375 2.8125C9.375 3.33047 8.95545 3.75 8.4375 3.75ZM6.41952 11.25H10.5C10.9148 11.25 11.25 10.9148 11.25 10.5V7.5L6.41952 7.5L6.41952 11.25Z" fill="#95A0A7"/>
</svg>
