<svg width="10" height="7" viewBox="0 0 10 7" fill="none" xmlns="http://www.w3.org/2000/svg">
<path fill-rule="evenodd" clip-rule="evenodd" d="M0.36447 0.396656C0.598143 0.163273 0.914897 0.0321844 1.24515 0.0321844C1.57541 0.0321844 1.89217 0.163273 2.12584 0.396656L4.98391 3.25472L7.84198 0.396656C7.95607 0.274213 8.09366 0.176003 8.24653 0.107888C8.3994 0.0397732 8.56443 0.00314637 8.73176 0.000193948C8.8991 -0.00275848 9.06531 0.028024 9.22049 0.0907038C9.37567 0.153384 9.51664 0.246678 9.63498 0.36502C9.75332 0.483362 9.84662 0.624326 9.9093 0.779507C9.97198 0.934687 10.0028 1.1009 9.99981 1.26824C9.99685 1.43557 9.96023 1.6006 9.89211 1.75347C9.824 1.90634 9.72579 2.04393 9.60334 2.15802L5.86459 5.89677C5.63092 6.13016 5.31417 6.26125 4.98391 6.26125C4.65365 6.26125 4.3369 6.13016 4.10322 5.89677L0.36447 2.15802C0.131088 1.92435 0 1.6076 0 1.27734C0 0.947081 0.131088 0.630328 0.36447 0.396656Z" fill="#9CA3AF"/>
</svg>
