<?xml version="1.0" encoding="UTF-8"?>
<!DOCTYPE svg PUBLIC "-//W3C//DTD SVG 1.1//EN" "http://www.w3.org/Graphics/SVG/1.1/DTD/svg11.dtd">
<!-- Creator: CorelDRAW -->
<svg xmlns="http://www.w3.org/2000/svg" xml:space="preserve" width="25mm" height="25mm" version="1.1" style="shape-rendering:geometricPrecision; text-rendering:geometricPrecision; image-rendering:optimizeQuality; fill-rule:evenodd; clip-rule:evenodd"
viewBox="0 0 936.7 936.7"
 xmlns:xlink="http://www.w3.org/1999/xlink"
 xmlns:xodm="http://www.corel.com/coreldraw/odm/2003">
 <defs>
  <style type="text/css">
   <![CDATA[
    .fil0 {fill:#F2F4F4}
    .fil1 {fill:url(#id0);fill-rule:nonzero}
   ]]>
  </style>
  <linearGradient id="id0" gradientUnits="userSpaceOnUse" x1="40.87" y1="535.06" x2="815.77" y2="535.06">
   <stop offset="0" style="stop-opacity:1; stop-color:#3C98D1"/>
   <stop offset="0.501961" style="stop-opacity:1; stop-color:#B446A5"/>
   <stop offset="1" style="stop-opacity:1; stop-color:#D1663A"/>
  </linearGradient>
 </defs>
 <g id="Layer_x0020_1">
  <metadata id="CorelCorpID_0Corel-Layer"/>
  <g id="_1558770030176">
   <path class="fil0" d="M468.35 0c258.66,0 468.35,209.69 468.35,468.35 0,258.66 -209.69,468.35 -468.35,468.35 -258.66,0 -468.35,-209.69 -468.35,-468.35 0,-258.66 209.69,-468.35 468.35,-468.35z"/>
   <path class="fil1" d="M462.89 891.41l-420.06 -493.05c-2.53,-2.96 -2.65,-7.4 -0.09,-10.51l171.69 -208.49c1.48,-2.14 3.95,-3.53 6.74,-3.53l495.9 0c2.6,0.03 5.14,1.26 6.73,3.55l90.35 130.8c2.1,2.81 2.23,6.77 0.05,9.74 -2.67,3.64 -7.79,4.42 -11.43,1.76l-93.26 -68.17c-0.39,-0.28 -0.86,-0.42 -1.3,-0.4 -0.43,0.01 -0.88,0.19 -1.23,0.49l-79.78 58.23c-2.54,1.99 -6.14,2.36 -9.11,0.66 -3.91,-2.24 -5.25,-7.24 -3.01,-11.14l33.41 -58.19c0.28,-0.49 0.33,-1.06 0.19,-1.56 -0.11,-0.43 -0.37,-0.83 -0.74,-1.1l-0.68 -0.3 -1.38 -0.1 -353.82 0c-0.58,0 -1.1,0.22 -1.45,0.57l-0.03 0.03c-0.35,0.35 -0.57,0.86 -0.57,1.45 0.03,0.6 0.09,0.61 0.34,1.17l33.38 58.03c1.55,2.71 1.47,6.19 -0.48,8.87 -2.65,3.64 -7.76,4.44 -11.4,1.79l-75.7 -55.26c-0.43,-0.31 -0.96,-0.43 -1.46,-0.37 -0.51,0.06 -0.99,0.31 -1.32,0.72l-110.32 133.97c-0.31,0.38 -0.47,0.86 -0.47,1.32 0,0.46 0.18,0.93 0.49,1.3l344.78 404.69c0.36,0.41 0.87,0.66 1.4,0.7 0.53,0.03 1.08,-0.12 1.48,-0.47l188.11 -164.99c2.9,-2.85 7.55,-3.15 10.82,-0.56 3.54,2.81 4.12,7.96 1.32,11.5l-195.46 246.62c-0.33,0.4 -0.69,0.78 -1.09,1.12 -3.43,2.93 -8.6,2.53 -11.53,-0.9zm-27.34 -459.56c0.09,-1.25 0.25,-2.53 0.46,-3.83l0.28 -1.48 -222.28 0c-5.66,0 -10.25,-4.59 -10.25,-10.24l0 -47.06c0,-5.65 4.59,-10.24 10.25,-10.24l510.76 0c5.65,0 10.24,4.59 10.24,10.24l0 47.06c0,5.65 -4.59,10.24 -10.24,10.24l-221.03 0 0 258.62c0,5.66 -4.59,10.25 -10.24,10.25l-47.86 0c-5.66,0 -10.25,-4.59 -10.25,-10.25l0 -249.45c0,-1.23 0.06,-2.52 0.16,-3.86z"/>
  </g>
 </g>
</svg>
