<svg width="17" height="18" viewBox="0 0 17 18" fill="none" xmlns="http://www.w3.org/2000/svg">
<path d="M4.29289 11.3639C3.90237 11.7545 3.90237 12.3876 4.29289 12.7782C4.68342 13.1687 5.31658 13.1687 5.70711 12.7782L5 12.071L4.29289 11.3639ZM13.0711 4.99998C13.0711 4.44769 12.6234 3.99998 12.0711 3.99998L3.07107 3.99998C2.51878 3.99998 2.07107 4.44769 2.07107 4.99998C2.07107 5.55226 2.51878 5.99998 3.07107 5.99998L11.0711 5.99998L11.0711 14C11.0711 14.5523 11.5188 15 12.0711 15C12.6234 15 13.0711 14.5523 13.0711 14L13.0711 4.99998ZM5 12.071L5.70711 12.7782L12.7782 5.70708L12.0711 4.99998L11.364 4.29287L4.29289 11.3639L5 12.071Z" fill="#95A0A7"/>
<path d="M3 1H14C15.1046 1 16 1.89543 16 3V14" stroke="#95A0A7" stroke-width="2" stroke-linecap="round"/>
</svg>
