<svg width="24" height="24" viewBox="0 0 24 24" fill="none" xmlns="http://www.w3.org/2000/svg">
<path d="M16.1317 3.71436C14.4174 3.71436 12.9031 4.57721 12.0002 5.8915C11.0974 4.57721 9.58313 3.71436 7.86885 3.71436C5.10313 3.71436 2.85742 5.96006 2.85742 8.72577C2.85742 14.8344 12.0002 20.3258 12.0002 20.3258C12.0002 20.3258 21.1431 14.8344 21.1431 8.72577C21.1431 5.96006 18.8974 3.71436 16.1317 3.71436Z" fill="currentColor"/>
<path opacity="0.5" d="M18.2058 4.16016C20.9487 8.53158 18.423 14.2687 15.3887 15.8973C12.0401 17.6973 9.74871 16.8516 5.00586 14.1602C7.70871 17.743 12.0001 20.3202 12.0001 20.3202C12.0001 20.3202 21.143 14.8287 21.143 8.72016C21.143 6.6973 19.9372 4.94873 18.2058 4.16016Z" fill="currentColor"/>
<path opacity="0.5" d="M16.1317 3.71436C14.4174 3.71436 12.9031 4.57721 12.0002 5.8915C11.0974 4.57721 9.58313 3.71436 7.86885 3.71436C5.10313 3.71436 2.85742 5.96006 2.85742 8.72577C2.85742 14.8344 12.0002 20.3258 12.0002 20.3258C12.0002 20.3258 21.1431 14.8344 21.1431 8.72577C21.1431 5.96006 18.8974 3.71436 16.1317 3.71436Z" fill="currentColor"/>
<path opacity="0.5" d="M16.1317 3.71436C14.4174 3.71436 12.9031 4.57721 12.0002 5.8915C11.0974 4.57721 9.58313 3.71436 7.86885 3.71436C5.10313 3.71436 2.85742 5.96006 2.85742 8.72577C2.85742 14.8344 12.0002 20.3258 12.0002 20.3258C12.0002 20.3258 21.1431 14.8344 21.1431 8.72577C21.1431 5.96006 18.8974 3.71436 16.1317 3.71436Z" fill="currentColor"/>
<path opacity="0.24" d="M10.7488 5.74883C11.2516 6.93169 10.1373 8.5374 8.25738 9.33169C6.37738 10.126 4.45167 9.8174 3.94881 8.64026C3.44595 7.46312 4.56024 5.85169 6.44024 5.0574C8.32024 4.26312 10.2459 4.56597 10.7488 5.74883Z" fill="currentColor"/>
<path opacity="0.24" d="M16.8742 4.78885C17.5885 5.57742 17.1485 7.13742 15.8971 8.26885C14.6456 9.40028 13.0513 9.68028 12.3371 8.8917C11.6228 8.10313 12.0628 6.54313 13.3142 5.41171C14.5656 4.28028 16.1599 4.00028 16.8742 4.78885Z" fill="currentColor"/>
<path opacity="0.32" d="M16.2227 5.04578C18.737 5.90293 21.137 9.6172 17.0799 14.2458C14.6513 17.0172 11.9999 18.4172 8.62842 17.8686C10.4513 19.3886 12.0056 20.3258 12.0056 20.3258C12.0056 20.3258 21.1485 14.8344 21.1485 8.72577C21.1427 5.96006 18.897 3.71436 16.1313 3.71436C14.417 3.71436 12.9027 4.57721 11.9999 5.8915C11.9999 5.8915 14.3827 4.41721 16.2227 5.04578Z" fill="currentColor"/>
</svg>
