<svg width="16" height="16" viewBox="0 0 16 16" fill="none" xmlns="http://www.w3.org/2000/svg">
<path d="M7.70796 2.17734C7.73673 2.12508 7.77901 2.08149 7.83037 2.05114C7.88173 2.02079 7.9403 2.00478 7.99996 2.00478C8.05962 2.00478 8.11818 2.02079 8.16955 2.05114C8.22091 2.08149 8.26318 2.12508 8.29196 2.17734L10.26 5.91334C10.3069 5.99985 10.3724 6.07489 10.4518 6.13308C10.5311 6.19128 10.6224 6.23117 10.719 6.24991C10.8156 6.26865 10.9152 6.26576 11.0106 6.24146C11.106 6.21715 11.1948 6.17203 11.2706 6.10934L14.122 3.66667C14.1767 3.62215 14.2441 3.59615 14.3146 3.59241C14.3851 3.58866 14.4549 3.60737 14.514 3.64584C14.5732 3.6843 14.6186 3.74055 14.6437 3.80647C14.6689 3.87239 14.6725 3.94459 14.654 4.01267L12.7646 10.8433C12.7261 10.9831 12.643 11.1065 12.528 11.1948C12.413 11.2831 12.2723 11.3315 12.1273 11.3327H3.87329C3.72818 11.3317 3.58736 11.2833 3.47222 11.195C3.35707 11.1067 3.27389 10.9832 3.23529 10.8433L1.34662 4.01334C1.32812 3.94525 1.3317 3.87305 1.35685 3.80713C1.382 3.74121 1.42741 3.68497 1.48656 3.6465C1.5457 3.60804 1.61553 3.58933 1.68598 3.59307C1.75644 3.59682 1.82389 3.62282 1.87862 3.66734L4.72929 6.11001C4.80516 6.1727 4.89396 6.21782 4.98933 6.24212C5.0847 6.26643 5.18427 6.26932 5.28089 6.25058C5.37751 6.23184 5.46878 6.19194 5.54815 6.13375C5.62752 6.07556 5.69303 6.00051 5.73996 5.91401L7.70796 2.17734Z" stroke="#808080" stroke-width="2" stroke-linecap="round" stroke-linejoin="round"/>
<path d="M3.33301 14H12.6663" stroke="#808080" stroke-width="2" stroke-linecap="round" stroke-linejoin="round"/>
</svg>
