<svg width="163" height="30" viewBox="0 0 163 30" fill="none" xmlns="http://www.w3.org/2000/svg">
<g clip-path="url(#clip0_10550_4912)">
<path d="M17.7712 29.8802L0.0827065 9.29186C-0.0234983 9.16825 -0.0289238 8.9829 0.078773 8.85324L7.3087 0.147187C7.37096 0.0580095 7.47486 -0.000366211 7.59232 -0.000366211H28.4744C28.5836 0.000844345 28.6909 0.0522257 28.7575 0.148129L32.5619 5.60975C32.6504 5.72704 32.6557 5.89249 32.5639 6.01664C32.4516 6.16863 32.2359 6.20145 32.0826 6.09008L28.1554 3.24352C28.139 3.23168 28.1193 3.22617 28.1007 3.22671C28.0825 3.22725 28.0638 3.23437 28.0488 3.24702L24.6895 5.67876C24.5825 5.76202 24.431 5.77748 24.3058 5.70633C24.1414 5.61271 24.0846 5.40409 24.179 5.24094L25.5858 2.81122C25.5976 2.79104 25.5998 2.76723 25.5941 2.74598C25.5894 2.72782 25.5782 2.71128 25.563 2.69998L25.5344 2.68747L25.4762 2.68317H10.5772C10.5525 2.68317 10.5309 2.69245 10.5163 2.70698L10.5148 2.70832C10.5001 2.72285 10.4909 2.74423 10.4909 2.76871C10.492 2.79373 10.4944 2.7944 10.5052 2.81767L11.9106 5.24094C11.9759 5.35419 11.9726 5.49946 11.8903 5.61137C11.7787 5.76336 11.5635 5.79685 11.4104 5.68615L8.22264 3.37857C8.20446 3.36552 8.18249 3.36068 8.16119 3.36323C8.14003 3.36579 8.11982 3.37628 8.10558 3.39336L3.4601 8.98761C3.44708 9.00348 3.4403 9.02352 3.44043 9.04289C3.44071 9.06186 3.44789 9.0815 3.46119 9.0971L17.9796 25.9959C17.9946 26.0131 18.0164 26.0232 18.0386 26.025C18.0609 26.0263 18.0838 26.0199 18.1009 26.0053L26.0219 19.1159C26.1441 18.9968 26.3398 18.9841 26.4775 19.0925C26.6265 19.2097 26.6511 19.4249 26.533 19.5726L18.3025 29.8708C18.2889 29.8875 18.2737 29.9033 18.2566 29.9177C18.1122 30.0403 17.8947 30.0234 17.7712 29.8802ZM16.6199 10.6902C16.6238 10.638 16.6306 10.5845 16.6395 10.5305L16.6512 10.4687H7.29121C7.05303 10.4687 6.85974 10.277 6.85974 10.0408V8.07593C6.85974 7.83973 7.05303 7.64806 7.29121 7.64806H28.7988C29.0369 7.64806 29.2302 7.83973 29.2302 8.07593V10.0408C29.2302 10.277 29.0369 10.4687 28.7988 10.4687H19.4913V21.268C19.4913 21.5042 19.298 21.6959 19.06 21.6959H17.0446C16.8064 21.6959 16.6131 21.5042 16.6131 21.268V10.8515C16.6131 10.8004 16.6155 10.7461 16.6199 10.6902ZM37.1402 21.6815C36.9759 21.6728 36.8179 21.6597 36.6674 21.6428C36.504 21.6245 36.3494 21.6025 36.2046 21.5774C36.073 21.5547 35.9289 21.5244 35.7734 21.4878L35.7544 21.4836C35.6007 21.4468 35.4556 21.407 35.3195 21.3649C35.1771 21.3205 35.0362 21.2713 34.8969 21.2172C34.7593 21.1639 34.6236 21.1055 34.4902 21.0427C34.3671 20.9849 34.2443 20.9218 34.1225 20.854L34.1011 20.8429C33.9755 20.7728 33.8503 20.6965 33.7264 20.6153C33.6075 20.5373 33.4893 20.4532 33.3731 20.3643C33.2551 20.2739 33.144 20.1822 33.0409 20.0904C32.9368 19.9975 32.8331 19.8978 32.7314 19.7926C32.6278 19.6857 32.5309 19.5784 32.4419 19.4717C32.3547 19.3656 32.2717 19.2597 32.1948 19.1541L32.1764 19.1305C32.1045 19.0311 32.0293 18.9186 31.9518 18.7949L31.9313 18.7647C31.8584 18.6472 31.7844 18.5179 31.7103 18.3783C31.6384 18.2431 31.5722 18.1078 31.5126 17.9734C31.4537 17.8408 31.397 17.7001 31.3431 17.5523C31.2867 17.3948 31.2375 17.2466 31.1975 17.108C31.1534 16.956 31.1143 16.8035 31.0804 16.6512C31.0492 16.5101 31.0192 16.3525 30.991 16.1768C30.9651 16.0161 30.9434 15.8538 30.9267 15.6911C30.9098 15.5285 30.8968 15.3605 30.8883 15.189C30.8793 15.0038 30.8744 14.831 30.8744 14.672C30.8744 14.5129 30.8793 14.3397 30.8883 14.1549C30.8968 13.9834 30.9098 13.8156 30.9267 13.653C30.9434 13.4905 30.9651 13.328 30.991 13.167C31.0194 12.9917 31.0493 12.8329 31.0804 12.6927C31.1191 12.5254 31.158 12.3729 31.1975 12.2363C31.2357 12.1039 31.2824 11.9626 31.3355 11.8144L31.3431 11.7919C31.397 11.644 31.4536 11.5033 31.5124 11.3711C31.5721 11.2366 31.6384 11.101 31.7103 10.9657C31.7799 10.8344 31.8538 10.7063 31.9307 10.5819L31.9325 10.5802C32.0118 10.4525 32.0935 10.3305 32.1765 10.2151C32.2525 10.1098 32.3344 10.0039 32.4216 9.89876L32.4425 9.87172C32.5313 9.76546 32.6279 9.65812 32.7314 9.55146C32.8331 9.44628 32.9365 9.34674 33.0407 9.25407C33.1436 9.16233 33.255 9.07047 33.3731 8.97967C33.4906 8.88969 33.6088 8.80535 33.7278 8.72707C33.8514 8.64583 33.9757 8.56997 34.1003 8.50056C34.2355 8.42658 34.3654 8.3592 34.4895 8.30082C34.6226 8.23814 34.7585 8.18003 34.8956 8.12677C35.0355 8.0727 35.177 8.0232 35.3191 7.97908C35.4552 7.93698 35.6004 7.89703 35.7542 7.86031C35.9181 7.82185 36.0681 7.7901 36.2046 7.76656C36.3494 7.74141 36.504 7.71949 36.6674 7.70119C36.8157 7.68451 36.9715 7.67147 37.1333 7.66286L37.1402 7.66232C37.3131 7.6529 37.476 7.64806 37.6286 7.64806H52.1486C52.3868 7.64806 52.58 7.83973 52.58 8.07593V10.0408C52.58 10.277 52.3868 10.4687 52.1486 10.4687H37.6286C37.5057 10.4687 37.3979 10.4711 37.3073 10.4758C37.2072 10.4812 37.1048 10.4895 37.0008 10.5009C36.9069 10.5109 36.81 10.5249 36.711 10.5418C36.6108 10.5592 36.5192 10.5777 36.438 10.5975C36.3478 10.6194 36.2625 10.643 36.1831 10.6681C36.1072 10.6921 36.0269 10.7213 35.943 10.7546C35.8678 10.7845 35.798 10.815 35.734 10.8454L35.7141 10.8559C35.6417 10.8913 35.5684 10.9308 35.4954 10.9736C35.4298 11.0122 35.3614 11.0563 35.2914 11.1046C35.2281 11.1467 35.1635 11.195 35.0991 11.2469C35.0417 11.2932 34.9898 11.3374 34.9437 11.3798L34.9241 11.3994C34.8684 11.4516 34.8126 11.5083 34.7574 11.5685C34.7125 11.6161 34.6675 11.6689 34.6223 11.726L34.6052 11.7493C34.5522 11.8168 34.5045 11.8822 34.4632 11.9438L34.4615 11.9455C34.4177 12.0108 34.3745 12.0806 34.3325 12.1539C34.2927 12.2237 34.2561 12.2919 34.2234 12.3579L34.2137 12.3799C34.175 12.4595 34.1391 12.5399 34.1065 12.62C34.0764 12.6941 34.0456 12.7783 34.0144 12.8719C33.9839 12.9639 33.9576 13.0513 33.9356 13.1338C33.909 13.2342 33.8868 13.3277 33.8691 13.4135C33.8526 13.4956 33.8356 13.593 33.8191 13.7061C33.8025 13.8192 33.7898 13.922 33.7814 14.0136C33.7624 14.2164 33.7526 14.4365 33.7526 14.672C33.7526 14.8038 33.7549 14.9152 33.759 15.0068C33.7643 15.1219 33.7719 15.2318 33.7814 15.3351C33.7898 15.4272 33.8025 15.5305 33.8191 15.6443C33.8356 15.7574 33.8526 15.8559 33.8693 15.9384C33.8866 16.0228 33.9085 16.1152 33.9349 16.2149C33.9569 16.298 33.9837 16.3864 34.0144 16.4791C34.0459 16.574 34.0771 16.6594 34.1073 16.7342C34.143 16.8225 34.1793 16.9045 34.2154 16.9789C34.2507 17.0523 34.2908 17.1278 34.3342 17.2042C34.3702 17.267 34.4068 17.3265 34.4437 17.3827L34.4634 17.4094C34.5099 17.4789 34.5576 17.5445 34.6052 17.6054C34.6484 17.6623 34.6999 17.7227 34.7582 17.7863C34.8124 17.8454 34.8663 17.9001 34.9197 17.9502L34.924 17.9541C34.9825 18.0089 35.042 18.0607 35.102 18.109C35.1629 18.1578 35.2262 18.2052 35.2912 18.2498C35.3589 18.2961 35.4265 18.3393 35.4926 18.3776C35.5519 18.4121 35.6247 18.4503 35.7091 18.4909C35.782 18.5263 35.8514 18.5573 35.9159 18.5837L35.9391 18.5919C36.0205 18.6238 36.1007 18.6522 36.1782 18.6762C36.2686 18.7043 36.3554 18.7284 36.438 18.7482C36.5157 18.767 36.607 18.7854 36.7123 18.8032C36.8105 18.8199 36.9069 18.8336 36.9998 18.8434C37.1021 18.8546 37.2052 18.8631 37.3076 18.8682C37.3982 18.8729 37.5059 18.8753 37.6286 18.8753H47.2895L47.5583 18.8733L47.8227 18.8621L48.0589 18.8458C48.2095 18.8302 48.3496 18.8117 48.4994 18.7906L48.6891 18.7548L48.8673 18.7129L49.037 18.6639L49.1716 18.6144C49.2163 18.5963 49.2565 18.5782 49.2918 18.5606C49.3272 18.5439 49.3642 18.5233 49.4052 18.4984C49.442 18.4762 49.4757 18.4538 49.505 18.4321L49.5725 18.379L49.6715 18.285L49.7417 18.2005L49.7874 18.1389L49.8033 18.111C49.8273 18.0722 49.8476 18.0368 49.8628 18.006C49.8823 17.9666 49.8997 17.9277 49.9143 17.8902L49.9586 17.7585L49.9973 17.6159C50.0105 17.5582 50.0214 17.5021 50.03 17.4478C50.0391 17.3891 50.0473 17.3263 50.0535 17.2603C50.0656 17.1353 50.0718 16.9934 50.0718 16.8359V15.8661H39.9438C39.7057 15.8661 39.5124 15.6745 39.5124 15.4384V13.4735C39.5124 13.2373 39.7057 13.0457 39.9438 13.0457H52.514C52.7522 13.0457 52.9454 13.2373 52.9454 13.4735V21.268C52.9454 21.5042 52.7522 21.6959 52.514 21.6959H50.496C50.2578 21.6959 50.0645 21.5042 50.0645 21.268V21.1837C49.9743 21.2249 49.8895 21.2608 49.7971 21.2984L49.6432 21.3567C49.5358 21.393 49.4336 21.4254 49.3247 21.4584L49.1622 21.5007L48.9967 21.5388L48.8287 21.5723C48.6037 21.6081 48.3922 21.6286 48.1689 21.6578C47.8688 21.6798 47.5868 21.6814 47.2895 21.6959H37.6286C37.476 21.6959 37.3131 21.6911 37.1402 21.6815Z" fill="url(#paint0_linear_10550_4912)"/>
<path d="M124.207 21.2683V11.6987C124.207 11.4625 124.4 11.2709 124.639 11.2709H126.61C126.824 11.2709 127.001 11.4249 127.036 11.627L127.25 11.5372L127.494 11.4543L127.621 11.4196L127.749 11.3884C127.881 11.3609 128.008 11.3427 128.142 11.3193C128.299 11.3003 128.479 11.2772 128.636 11.2772C128.732 11.273 128.818 11.2709 128.891 11.2709H139.598C139.836 11.2709 140.029 11.4625 140.029 11.6987V13.6273C140.029 13.8635 139.836 14.0552 139.598 14.0552H128.891C128.699 14.0552 128.522 14.0654 128.362 14.0853C128.208 14.1032 128.069 14.1321 127.945 14.1695C127.899 14.1833 127.852 14.1997 127.806 14.218L127.787 14.2262C127.739 14.2462 127.693 14.2683 127.649 14.292C127.607 14.3148 127.569 14.3394 127.534 14.3648C127.501 14.3875 127.469 14.4143 127.438 14.4443C127.407 14.4736 127.376 14.507 127.345 14.5437L127.282 14.6238L127.267 14.6477C127.236 14.6935 127.213 14.7314 127.198 14.7601C127.18 14.7932 127.162 14.833 127.145 14.8778C127.128 14.9203 127.114 14.9596 127.104 14.9952L127.1 15.0111C127.088 15.0522 127.078 15.1011 127.068 15.1562C127.06 15.2063 127.053 15.2597 127.048 15.3144C127.044 15.3671 127.042 15.4247 127.042 15.4862V21.2683C127.042 21.5045 126.848 21.6962 126.61 21.6962H124.639C124.4 21.6962 124.207 21.5045 124.207 21.2683Z" fill="black"/>
<path d="M87.9689 21.6873C87.8604 21.6823 87.7523 21.6743 87.6458 21.664C87.526 21.6523 87.4209 21.6396 87.3326 21.6263C87.2389 21.6121 87.1345 21.5927 87.0223 21.5696C86.9211 21.5487 86.8276 21.5267 86.7416 21.5041L86.7231 21.4995C86.6308 21.4746 86.5325 21.4445 86.4304 21.4103C86.3408 21.3802 86.2474 21.3452 86.1515 21.3059C86.0633 21.2698 85.9727 21.229 85.8805 21.1842C85.8036 21.1469 85.7275 21.107 85.6534 21.0656L85.6211 21.049C85.5501 21.0087 85.4734 20.9615 85.3923 20.9081L85.3764 20.8981C85.2991 20.8471 85.2211 20.7914 85.144 20.7325C85.0641 20.6716 84.9914 20.6123 84.9275 20.5559C84.8626 20.4988 84.7951 20.4345 84.7261 20.364C84.6574 20.2936 84.5938 20.224 84.5368 20.1567C84.4819 20.0919 84.4234 20.0171 84.3625 19.9334C84.3129 19.8652 84.2656 19.7958 84.2209 19.7251L84.2063 19.7033C84.1604 19.6303 84.1127 19.547 84.0641 19.4547C84.0169 19.3651 83.9756 19.2793 83.9407 19.1984C83.9007 19.1055 83.8653 19.0157 83.8357 18.9306C83.8066 18.8464 83.7785 18.7541 83.752 18.6544C83.7271 18.5603 83.7052 18.466 83.6872 18.3726C83.6681 18.2727 83.6522 18.1753 83.6404 18.082C83.6292 17.9924 83.6201 17.8927 83.6137 17.7844C83.6069 17.6745 83.6035 17.5733 83.6035 17.4807C83.6035 14.621 83.6062 13.6322 83.6085 12.7363L83.6068 12.7157L83.6112 11.426L83.6108 9.1654C83.6108 8.92934 83.8043 8.73767 84.0423 8.73767H86.0211C86.2593 8.73767 86.4526 8.92934 86.4526 9.1654V11.3104L86.5212 11.2972C86.5758 11.2883 86.6292 11.2815 86.6799 11.2776C86.7353 11.2732 86.7897 11.2708 86.8412 11.2708H98.6215C98.8597 11.2708 99.053 11.4625 99.053 11.6987V13.6272C99.053 13.8634 98.8597 14.0551 98.6215 14.0551H86.4526V17.4807C86.4526 17.5422 86.4549 17.5999 86.4591 17.6526C86.4636 17.7074 86.4704 17.7608 86.479 17.8108C86.4885 17.8658 86.499 17.9145 86.5104 17.9555C86.5211 17.9963 86.5367 18.0408 86.5557 18.0892C86.5675 18.1212 86.582 18.1532 86.5988 18.1859L86.6105 18.2069C86.6295 18.2432 86.6524 18.281 86.678 18.319C86.6985 18.3516 86.7252 18.3867 86.7563 18.4236C86.7871 18.4601 86.8181 18.4934 86.8487 18.5227C86.8735 18.5467 86.8991 18.5687 86.9246 18.5884L86.9451 18.6024C86.9797 18.6274 87.0186 18.6519 87.0609 18.675C87.0958 18.6958 87.142 18.7174 87.1982 18.7405C87.2539 18.7636 87.3068 18.7829 87.3558 18.7975C87.4152 18.8156 87.4821 18.8321 87.5552 18.8472C87.6184 18.8602 87.6926 18.8719 87.7763 18.8823C87.8636 18.8929 87.9475 18.9007 88.0275 18.9054C88.1032 18.9096 88.1951 18.9119 88.3023 18.9119H98.9941C99.2323 18.9119 99.4256 19.1035 99.4256 19.3397V21.2683C99.4256 21.5045 99.2323 21.6961 98.9941 21.6961H88.3023C88.2067 21.6961 88.0954 21.693 87.9689 21.6873Z" fill="black"/>
<path d="M57.5329 21.2683V19.3034C57.5329 19.0672 57.7262 18.8756 57.9642 18.8756H76.7094C76.8542 18.8756 76.9875 18.8667 77.1089 18.8493C77.2262 18.8324 77.3379 18.8066 77.4419 18.7725C77.4938 18.7562 77.5398 18.7389 77.5801 18.721C77.6203 18.7034 77.6573 18.6851 77.6913 18.6664L77.7109 18.6548C77.749 18.6332 77.7845 18.611 77.8171 18.5884L77.831 18.5782C77.8645 18.5543 77.9009 18.5253 77.9387 18.4917L78.0121 18.4211L78.0278 18.4022C78.0596 18.3663 78.0855 18.3338 78.1047 18.3054C78.1233 18.2785 78.1419 18.2473 78.1609 18.2126L78.1705 18.1927C78.1914 18.1528 78.2099 18.1122 78.2256 18.0716C78.2454 18.0201 78.2615 17.9711 78.2735 17.9255C78.2876 17.8719 78.2998 17.815 78.3092 17.7563C78.3178 17.7028 78.325 17.6396 78.3303 17.5692C78.3351 17.5083 78.3375 17.4408 78.3375 17.3673C78.3375 17.294 78.3351 17.2266 78.3303 17.1658C78.325 17.0955 78.3178 17.0327 78.3092 16.9791C78.2997 16.9206 78.2877 16.864 78.2738 16.8109C78.2621 16.766 78.2457 16.717 78.226 16.6655C78.2085 16.62 78.1899 16.5783 78.1707 16.5417C78.1515 16.505 78.1293 16.4686 78.1053 16.4335C78.0832 16.4014 78.0575 16.3688 78.0284 16.3358C77.9969 16.3003 77.9676 16.2707 77.9416 16.2478C77.9086 16.2189 77.8715 16.1899 77.8316 16.1616C77.7935 16.1346 77.7533 16.1092 77.7122 16.0862C77.6761 16.066 77.6392 16.047 77.6021 16.0301L77.5817 16.0219C77.5356 16.0018 77.4898 15.9842 77.4445 15.9697L77.4428 15.9679C77.3982 15.9531 77.3441 15.9385 77.2821 15.9242C77.2292 15.9121 77.1755 15.9019 77.1215 15.8942L77.1082 15.8925C77.0451 15.8837 76.9808 15.8769 76.9159 15.8724C76.8567 15.8685 76.7877 15.8664 76.7094 15.8664H61.7129C61.6236 15.8664 61.5196 15.8636 61.4009 15.8579C61.299 15.8531 61.1978 15.8454 61.098 15.8356C61.0132 15.8274 60.926 15.8163 60.8376 15.8033L60.8033 15.7995C60.7192 15.7869 60.6258 15.7695 60.5251 15.7488L60.5072 15.7455C60.4034 15.7237 60.3078 15.7009 60.2218 15.6778C60.1412 15.6563 60.0483 15.6275 59.9455 15.5933C59.863 15.5658 59.7815 15.5359 59.7015 15.5042L59.6762 15.4949C59.5924 15.4611 59.5049 15.4224 59.4143 15.3791C59.3392 15.3431 59.2632 15.3039 59.1871 15.2618L59.1654 15.2505C59.0823 15.2041 59.0013 15.1551 58.9239 15.1048C58.8475 15.0554 58.7714 15.0022 58.6967 14.9462C58.6288 14.8954 58.5578 14.8375 58.4841 14.7739C58.414 14.7131 58.3475 14.6514 58.2854 14.5894C58.2207 14.5247 58.1585 14.4578 58.099 14.3894C58.0414 14.3226 57.9839 14.2512 57.9277 14.1759C57.8809 14.1132 57.8343 14.0465 57.7884 13.9764L57.7726 13.9534C57.7225 13.8764 57.6742 13.7959 57.6289 13.7132C57.5814 13.625 57.5401 13.5422 57.5058 13.4656C57.4685 13.3818 57.4332 13.2943 57.4012 13.2045C57.3696 13.1157 57.3412 13.0253 57.317 12.9349C57.2912 12.8405 57.2693 12.7487 57.2516 12.66C57.2358 12.5812 57.2209 12.4876 57.2074 12.3812C57.1946 12.2818 57.1852 12.1852 57.1797 12.0923C57.1733 11.9848 57.1699 11.8846 57.1699 11.7937C57.1699 11.7031 57.1733 11.6033 57.1797 11.4957C57.1863 11.3889 57.1951 11.2922 57.2057 11.2065C57.2164 11.1211 57.2311 11.0321 57.2487 10.941L57.2517 10.9241C57.2702 10.8315 57.2921 10.7385 57.317 10.6462C57.3403 10.5601 57.3689 10.4696 57.4017 10.3761C57.4329 10.2871 57.4676 10.1995 57.5051 10.1142C57.5433 10.0271 57.5843 9.94313 57.6267 9.86336C57.6695 9.78306 57.7174 9.70169 57.7694 9.61937C57.8217 9.53598 57.8725 9.46052 57.921 9.39434C57.9749 9.32036 58.0324 9.24733 58.0923 9.17604C58.149 9.10878 58.2109 9.04072 58.277 8.9728C58.3437 8.9042 58.4106 8.83991 58.4761 8.78167C58.5317 8.73203 58.5951 8.67904 58.6649 8.62416L58.6884 8.60452C58.7441 8.56121 58.8101 8.51359 58.8848 8.46262L58.9134 8.44177C58.9751 8.40047 59.0477 8.35515 59.1308 8.30632L59.1527 8.293C59.227 8.2501 59.3036 8.20853 59.3818 8.16899L59.4044 8.15702C59.4732 8.12312 59.5544 8.08613 59.6464 8.04686L59.6684 8.03704C59.7601 7.99817 59.8505 7.96319 59.9386 7.93226C60.0266 7.90159 60.1194 7.8724 60.2165 7.8451C60.2927 7.82371 60.3778 7.80246 60.4704 7.78188L60.5038 7.77327C60.5891 7.75484 60.687 7.73669 60.7972 7.71907C60.8971 7.70306 60.9963 7.69015 61.0935 7.68019C61.192 7.67011 61.2944 7.66217 61.3995 7.65719C61.5177 7.65141 61.6224 7.64832 61.7129 7.64832H80.4215C80.6596 7.64832 80.8529 7.83999 80.8529 8.07618V10.041C80.8529 10.2772 80.6596 10.4689 80.4215 10.4689H61.7129L61.546 10.4715L61.3834 10.4824C61.284 10.4949 61.2 10.5078 61.1015 10.5254L60.9854 10.5539L60.8776 10.5874C60.8185 10.6104 60.7713 10.6307 60.7141 10.6574C60.6455 10.6985 60.5914 10.7303 60.5255 10.7757L60.4539 10.8325L60.3908 10.8901C60.3335 10.9494 60.2922 11.0009 60.2457 11.0684C60.1386 11.2546 60.0901 11.4084 60.0578 11.6189L60.0497 11.7074V11.8764L60.0577 11.9579C60.0703 12.0432 60.0836 12.1017 60.107 12.1866L60.1343 12.2636C60.2427 12.5232 60.3515 12.6362 60.5872 12.787C60.6484 12.8221 60.6981 12.8462 60.7623 12.8764L60.8658 12.9145C60.9469 12.9394 61.0107 12.955 61.0938 12.974L61.0935 12.9757L61.2294 12.9975L61.3759 13.0132L61.539 13.0245L61.7129 13.0265H76.7094C76.7977 13.0265 76.8993 13.0296 77.0138 13.0354C77.1155 13.0405 77.215 13.0485 77.3105 13.0584C77.4026 13.0678 77.4957 13.0805 77.5886 13.095L77.6033 13.097C77.709 13.1141 77.8049 13.1323 77.8903 13.1508L77.8921 13.1523C77.9988 13.1757 78.0925 13.1991 78.1723 13.2216C78.2625 13.2473 78.3547 13.2766 78.4478 13.3091C78.5355 13.3399 78.6253 13.3746 78.7158 13.4128C78.8021 13.4498 78.8878 13.4891 78.9724 13.5312C79.0495 13.5695 79.1242 13.6096 79.1962 13.6509L79.2224 13.665C79.303 13.7123 79.3833 13.7628 79.4613 13.8158L79.463 13.8176C79.5432 13.8723 79.6182 13.9272 79.6872 13.9817C79.7597 14.039 79.8313 14.0998 79.9007 14.1631C79.9604 14.2173 80.0269 14.2831 80.0994 14.3592C80.1679 14.4311 80.2301 14.5007 80.2854 14.5673C80.3454 14.6401 80.4022 14.7135 80.4548 14.7867C80.5073 14.86 80.5602 14.9392 80.613 15.0234L80.6146 15.0268C80.6728 15.1222 80.7209 15.2066 80.7584 15.2795C80.8029 15.3686 80.8444 15.4565 80.8813 15.5445C80.9146 15.6237 80.9492 15.716 80.9844 15.8204C81.0204 15.9278 81.0488 16.0223 81.0697 16.1035C81.0935 16.203 81.1152 16.3004 81.1329 16.3949C81.1516 16.494 81.1665 16.5893 81.1776 16.6799L81.1793 16.6929C81.1905 16.7872 81.1995 16.891 81.2059 17.0028C81.2125 17.1181 81.2159 17.2241 81.2159 17.319C81.2159 17.4133 81.2125 17.5182 81.2059 17.6331C81.1995 17.7445 81.1905 17.8479 81.1793 17.9419C81.1681 18.0356 81.1524 18.1355 81.133 18.24C81.1124 18.3508 81.0911 18.449 81.0697 18.5326C81.0507 18.6067 81.0256 18.6918 80.9938 18.7881L80.9858 18.8156C80.9561 18.9055 80.9211 18.998 80.8824 19.0916C80.8484 19.1723 80.811 19.2543 80.7699 19.3369L80.7582 19.3621C80.7185 19.4405 80.6748 19.52 80.6272 19.5992L80.6179 19.6157C80.5742 19.6886 80.5258 19.7636 80.4733 19.8398L80.4631 19.8556C80.4143 19.9262 80.3565 20.0033 80.2914 20.085C80.2335 20.1575 80.1717 20.2292 80.1077 20.2988C80.0384 20.3741 79.9719 20.4416 79.9094 20.5007C79.8378 20.5686 79.7673 20.631 79.6989 20.6871C79.6254 20.7475 79.5508 20.8048 79.4758 20.8582C79.3907 20.9171 79.3113 20.9699 79.2377 21.0153C79.1517 21.0684 79.0682 21.1162 78.9879 21.1584C78.8947 21.2061 78.8074 21.2496 78.7272 21.2855C78.6472 21.3215 78.5583 21.3576 78.4607 21.3936C78.3607 21.4309 78.2679 21.4626 78.184 21.4877C78.0801 21.5177 77.9847 21.5438 77.8999 21.5633C77.8059 21.5852 77.709 21.6051 77.6101 21.6219C77.517 21.6376 77.4195 21.6515 77.3179 21.6625C77.2232 21.673 77.1226 21.6814 77.0165 21.6869C76.9019 21.6929 76.7991 21.6961 76.7094 21.6961H57.9642C57.7262 21.6961 57.5329 21.5045 57.5329 21.2683Z" fill="black"/>
<path d="M104.952 21.6895C104.872 21.6862 104.789 21.6804 104.706 21.6729C104.614 21.6647 104.533 21.6554 104.462 21.6459C104.383 21.6347 104.302 21.6215 104.219 21.6061C104.143 21.5919 104.063 21.5746 103.982 21.5551C103.892 21.5336 103.815 21.5128 103.749 21.4935C103.669 21.4702 103.593 21.4457 103.524 21.4211C103.449 21.3949 103.374 21.3664 103.301 21.3361C103.242 21.3119 103.175 21.2816 103.103 21.2468L103.079 21.2358C103.005 21.1997 102.933 21.1614 102.864 21.1218C102.79 21.0793 102.722 21.0371 102.661 20.9958C102.584 20.9431 102.52 20.8969 102.468 20.8566C102.401 20.8027 102.34 20.7524 102.288 20.7053C102.232 20.6546 102.175 20.599 102.118 20.5401C102.067 20.4867 102.014 20.4271 101.96 20.3621C101.908 20.2992 101.859 20.236 101.813 20.1732C101.763 20.1023 101.716 20.0323 101.676 19.964C101.637 19.8986 101.597 19.8249 101.558 19.7433C101.52 19.6635 101.486 19.5863 101.458 19.5125C101.427 19.4299 101.399 19.3488 101.377 19.2706C101.358 19.2034 101.338 19.127 101.32 19.0408L101.316 19.0242C101.299 18.9434 101.285 18.8588 101.273 18.7713C101.262 18.6866 101.254 18.6024 101.248 18.519L101.248 18.5104C101.242 18.4134 101.238 18.3224 101.238 18.2391C101.238 18.1562 101.242 18.0655 101.248 17.9683C101.253 17.884 101.262 17.7962 101.274 17.7066C101.285 17.6192 101.3 17.5344 101.317 17.4535C101.336 17.3629 101.356 17.2794 101.378 17.2038C101.402 17.1218 101.429 17.0408 101.459 16.962C101.489 16.8834 101.522 16.8062 101.559 16.7314C101.596 16.6535 101.636 16.58 101.678 16.5114C101.723 16.4355 101.77 16.3658 101.816 16.3022C101.863 16.2385 101.912 16.1762 101.962 16.1167C102.02 16.0508 102.073 15.9924 102.123 15.9419C102.175 15.8886 102.233 15.8343 102.295 15.7795C102.359 15.7236 102.421 15.6729 102.479 15.6286C102.529 15.5905 102.586 15.5502 102.65 15.508L102.674 15.4915C102.732 15.4535 102.8 15.4121 102.88 15.3678C102.957 15.3244 103.028 15.287 103.093 15.2563C103.178 15.2165 103.254 15.1826 103.318 15.1569C103.394 15.1266 103.468 15.0985 103.541 15.0738L103.771 15.0023C103.861 14.9767 103.939 14.9558 104.007 14.9401C104.074 14.9247 104.155 14.9079 104.25 14.8908C104.341 14.8748 104.423 14.8617 104.498 14.8518L104.746 14.823C104.808 14.8177 104.892 14.8126 104.996 14.8083L105.253 14.8017H118.106L118.075 14.7397C118.046 14.6881 118.01 14.6347 117.968 14.5807C117.924 14.5263 117.877 14.4752 117.827 14.4285C117.8 14.4023 117.768 14.3768 117.732 14.3519C117.699 14.329 117.66 14.3055 117.615 14.2821C117.577 14.2622 117.531 14.2417 117.478 14.221C117.43 14.2003 117.376 14.1821 117.318 14.1653C117.265 14.1502 117.203 14.1355 117.131 14.1212L117.116 14.1185C117.044 14.1044 116.974 14.0929 116.905 14.0846L116.892 14.0834C116.805 14.073 116.721 14.0658 116.64 14.0613C116.564 14.0572 116.471 14.0552 116.362 14.0552H102.405C102.167 14.0552 101.974 13.8635 101.974 13.6273V11.6987C101.974 11.4625 102.167 11.2709 102.405 11.2709H116.362C116.454 11.2709 116.563 11.274 116.687 11.2795L116.693 11.2796C116.798 11.2843 116.905 11.2923 117.012 11.3025C117.134 11.3143 117.239 11.3268 117.324 11.3395C117.412 11.3527 117.516 11.3715 117.633 11.3953C117.733 11.4159 117.827 11.4375 117.914 11.4599L117.934 11.4648C118.008 11.4846 118.093 11.5099 118.187 11.5404L118.223 11.5504C118.315 11.5808 118.409 11.6152 118.502 11.6527C118.589 11.6876 118.68 11.7282 118.773 11.7726C118.85 11.8093 118.928 11.8497 119.005 11.8922L119.031 11.9049C119.106 11.9469 119.188 11.9965 119.274 12.0515C119.352 12.1016 119.428 12.1542 119.501 12.208L119.503 12.2097C119.582 12.2684 119.654 12.3254 119.718 12.3799C119.787 12.4385 119.855 12.5011 119.921 12.5654C119.986 12.6287 120.049 12.6953 120.11 12.7642C120.174 12.8373 120.233 12.9079 120.284 12.9749C120.335 13.0421 120.388 13.1172 120.441 13.1994C120.491 13.2754 120.539 13.3548 120.584 13.4367C120.631 13.522 120.672 13.6043 120.708 13.682C120.744 13.7622 120.779 13.8472 120.812 13.936C120.844 14.0238 120.873 14.1114 120.897 14.198C120.921 14.286 120.943 14.3758 120.962 14.468C120.981 14.5587 120.997 14.6505 121.009 14.7421C121.021 14.8338 121.03 14.9249 121.036 15.0143L121.037 15.0228C121.043 15.1253 121.047 15.2215 121.047 15.31V21.2683C121.047 21.5045 120.853 21.6962 120.615 21.6962H118.636C118.424 21.6962 118.247 21.5437 118.211 21.3431L118.003 21.4299L117.76 21.5127L117.633 21.5474L117.505 21.5786C117.205 21.6416 116.924 21.676 116.618 21.6899C116.522 21.6939 116.436 21.6962 116.362 21.6962H105.204L104.952 21.6895ZM116.892 18.8824C117.046 18.8637 117.185 18.8348 117.309 18.7976C117.355 18.7836 117.402 18.7673 117.448 18.749L117.467 18.7408C117.515 18.7209 117.561 18.6987 117.605 18.675C117.646 18.6523 117.685 18.6276 117.72 18.6023C117.753 18.5795 117.785 18.5526 117.816 18.5228C117.847 18.4933 117.878 18.4601 117.909 18.4232C117.94 18.3865 117.967 18.3514 117.988 18.3193C118.014 18.2812 118.037 18.2438 118.056 18.2078C118.073 18.1743 118.091 18.1346 118.109 18.0893C118.128 18.0411 118.143 17.997 118.154 17.9578C118.165 17.9198 118.175 17.8751 118.184 17.8247L118.186 17.8108C118.194 17.7608 118.201 17.7074 118.206 17.6527L118.21 17.5859H105.182L105.019 17.5892L104.871 17.6019C104.818 17.6076 104.773 17.6143 104.734 17.6213C104.7 17.6275 104.66 17.6369 104.614 17.649C104.507 17.681 104.446 17.7044 104.347 17.7566C104.328 17.766 104.309 17.7781 104.291 17.7911L104.228 17.8424L104.191 17.8802L104.157 17.9241C104.122 17.9806 104.112 18.0161 104.096 18.08C104.087 18.1264 104.082 18.1799 104.082 18.2391L104.085 18.3257C104.092 18.3795 104.1 18.4145 104.113 18.4675L104.124 18.4999L104.16 18.5696C104.198 18.625 104.229 18.6532 104.28 18.6963L104.347 18.7415L104.423 18.7825C104.441 18.7927 104.47 18.8047 104.508 18.8191C104.526 18.8278 104.557 18.8377 104.599 18.8496L104.679 18.8717C104.781 18.888 104.863 18.8987 104.966 18.9087L105.111 18.9119H116.362C116.555 18.9119 116.732 18.9017 116.892 18.8824Z" fill="black"/>
<path d="M142.648 21.2683V19.3398C142.648 19.1036 142.842 18.9119 143.08 18.9119H158.771L158.93 18.9093L159.084 18.8986L159.224 18.8811L159.35 18.8573L159.466 18.8276L159.567 18.7941C159.594 18.7845 159.625 18.7716 159.659 18.7556L159.727 18.7221L159.795 18.6796C159.808 18.6709 159.82 18.6608 159.831 18.6499C159.857 18.6204 159.862 18.6153 159.88 18.5813L159.909 18.4921L159.92 18.4181L159.922 18.3311L159.919 18.2431L159.908 18.169L159.899 18.1311C159.883 18.0876 159.88 18.0774 159.855 18.0391C159.849 18.0291 159.839 18.0186 159.827 18.0065C159.798 17.9809 159.785 17.973 159.752 17.9514C159.643 17.8966 159.58 17.8708 159.463 17.8322C159.377 17.8092 159.31 17.7952 159.223 17.7784L159.083 17.7612C158.992 17.7522 158.887 17.7476 158.771 17.7476H146.244C146.075 17.7439 145.913 17.7382 145.743 17.73C145.579 17.7153 145.427 17.6988 145.262 17.6781C145.189 17.6676 145.112 17.6541 145.031 17.6388C144.943 17.622 144.865 17.6054 144.799 17.59L144.574 17.5313C144.505 17.5121 144.432 17.4895 144.355 17.4639C144.288 17.4413 144.221 17.4166 144.156 17.3906L144.132 17.3816C144.076 17.3586 144.014 17.3304 143.947 17.2976L143.914 17.2832C143.86 17.2568 143.8 17.224 143.734 17.1858L143.708 17.1718C143.648 17.1367 143.584 17.0951 143.515 17.0476C143.451 17.003 143.388 16.9563 143.33 16.9086C143.267 16.8576 143.208 16.8063 143.155 16.7559C143.104 16.7072 143.051 16.6518 142.996 16.5906C142.94 16.5279 142.891 16.4687 142.85 16.4147C142.802 16.3525 142.756 16.2853 142.712 16.2137C142.667 16.1403 142.627 16.0686 142.593 15.9989C142.559 15.9296 142.525 15.8524 142.493 15.7681C142.463 15.6894 142.436 15.6084 142.413 15.5264C142.393 15.4542 142.373 15.3717 142.354 15.2794C142.337 15.1952 142.323 15.1109 142.313 15.0279C142.301 14.9374 142.293 14.8494 142.287 14.7645C142.281 14.6647 142.278 14.5723 142.278 14.4888C142.278 14.405 142.281 14.3127 142.287 14.2129C142.293 14.1281 142.301 14.0401 142.313 13.9498C142.323 13.8674 142.337 13.7836 142.354 13.7001C142.374 13.6043 142.393 13.5213 142.413 13.4526C142.435 13.3783 142.459 13.3054 142.485 13.2348L142.493 13.2115C142.522 13.137 142.556 13.0605 142.594 12.9831C142.633 12.9071 142.671 12.8385 142.708 12.7776C142.752 12.7078 142.796 12.6424 142.842 12.5822L142.855 12.5671C142.904 12.5038 142.953 12.4452 143.001 12.3928C143.05 12.3393 143.104 12.2849 143.162 12.2308C143.219 12.1784 143.277 12.1282 143.336 12.081C143.392 12.0369 143.455 11.9914 143.523 11.945C143.596 11.8962 143.662 11.8548 143.718 11.8228C143.791 11.7829 143.859 11.7466 143.922 11.7166C143.986 11.6864 144.053 11.6566 144.124 11.6284C144.177 11.607 144.24 11.5843 144.31 11.5606C144.4 11.5287 144.493 11.5038 144.585 11.4765L144.81 11.4222L145.038 11.3757C145.2 11.3489 145.344 11.3287 145.507 11.3091L145.748 11.288C145.914 11.2767 146.08 11.2709 146.244 11.2709H161.969C162.208 11.2709 162.401 11.4625 162.401 11.6987V13.6273C162.401 13.8635 162.208 14.0552 161.969 14.0552H146.059C145.955 14.0552 145.862 14.0595 145.783 14.0677C145.7 14.076 145.625 14.0886 145.557 14.1051C145.414 14.1446 145.334 14.1766 145.212 14.2608L145.184 14.2852C145.149 14.3256 145.147 14.3318 145.131 14.3844L145.124 14.4349L145.123 14.4888C145.123 14.5248 145.126 14.5565 145.131 14.5819C145.136 14.6037 145.144 14.6252 145.156 14.6474C145.167 14.668 145.18 14.6863 145.194 14.7015C145.211 14.7202 145.233 14.7382 145.258 14.7547L145.319 14.7906C145.371 14.8157 145.414 14.8321 145.469 14.8528C145.541 14.874 145.593 14.8852 145.667 14.9003L145.786 14.9168L145.919 14.9273L146.059 14.9297H158.623C158.796 14.9297 158.97 14.9362 159.144 14.9489C159.305 14.9608 159.472 14.9803 159.642 15.0068C159.811 15.0331 159.972 15.065 160.122 15.102C160.274 15.1391 160.428 15.1846 160.583 15.2375C160.673 15.2685 160.752 15.298 160.817 15.325C160.885 15.353 160.961 15.388 161.042 15.4285C161.123 15.4685 161.194 15.5067 161.255 15.5421C161.308 15.5733 161.365 15.6098 161.426 15.6508L161.456 15.67C161.515 15.7104 161.578 15.7585 161.647 15.8136C161.711 15.8652 161.771 15.9179 161.827 15.9705C161.873 16.014 161.922 16.0633 161.972 16.1178L161.996 16.1412C162.044 16.1942 162.096 16.2557 162.15 16.3245C162.204 16.3922 162.254 16.4624 162.299 16.5334C162.346 16.6073 162.388 16.6821 162.426 16.7572C162.466 16.8358 162.503 16.9162 162.535 16.9972C162.565 17.0735 162.593 17.1579 162.62 17.2482C162.645 17.3336 162.667 17.419 162.684 17.5034C162.702 17.5874 162.717 17.6765 162.729 17.7691C162.742 17.8624 162.751 17.9542 162.757 18.0434C162.763 18.1459 162.766 18.2419 162.766 18.3311C162.766 18.4197 162.763 18.5152 162.757 18.6168C162.751 18.7057 162.742 18.7969 162.729 18.8894C162.717 18.9816 162.702 19.0693 162.684 19.1521C162.666 19.2405 162.644 19.3262 162.62 19.4077C162.594 19.4943 162.565 19.5774 162.534 19.656C162.502 19.737 162.466 19.8163 162.427 19.8937C162.385 19.9744 162.343 20.0496 162.299 20.1178C162.253 20.188 162.203 20.2578 162.15 20.3253C162.05 20.4521 161.943 20.5692 161.829 20.675C161.715 20.7821 161.59 20.8813 161.458 20.9717C161.322 21.0644 161.181 21.1461 161.037 21.2157C160.9 21.2822 160.752 21.3418 160.596 21.3937L160.344 21.4714L160.111 21.5318C160.041 21.5482 159.961 21.5654 159.87 21.5827L159.634 21.6235L159.384 21.655C159.298 21.6643 159.215 21.6722 159.136 21.6776C158.962 21.6862 158.796 21.6921 158.623 21.6962H143.08C142.842 21.6962 142.648 21.5045 142.648 21.2683Z" fill="black"/>
<path d="M27.5815 27.331C27.5815 26.8971 27.6774 26.5099 27.8685 26.1698C27.9647 25.9993 28.0812 25.8467 28.2175 25.713C28.3538 25.5795 28.5104 25.4643 28.6861 25.3686C28.8608 25.2732 29.0498 25.201 29.2516 25.1531C29.4524 25.1051 29.665 25.0811 29.8884 25.0811C30.2263 25.0811 30.5344 25.1336 30.8112 25.2385C31.0892 25.3438 31.3364 25.5025 31.5512 25.7133C31.7659 25.9241 31.9272 26.1651 32.0348 26.4359C32.1418 26.7053 32.1955 27.0039 32.1955 27.331C32.1955 27.6899 32.1356 28.0131 32.0158 28.3007C31.8956 28.5897 31.7149 28.8417 31.4753 29.0557C31.0477 29.4311 30.5186 29.6188 29.8884 29.6188C29.5484 29.6188 29.2391 29.5661 28.9619 29.4607C28.683 29.3549 28.4363 29.1954 28.2225 28.9833C28.0089 28.7718 27.8482 28.5269 27.741 28.2501C27.6347 27.9752 27.5815 27.6684 27.5815 27.331ZM29.8632 29.9999C30.6863 29.9999 31.3533 29.7533 31.8644 29.2606C32.1194 29.015 32.3108 28.7316 32.4384 28.4108C32.5662 28.0895 32.6302 27.7293 32.6302 27.331C32.6302 26.9411 32.5662 26.5877 32.4387 26.272C32.3113 25.9572 32.1197 25.677 31.8648 25.4333C31.61 25.1897 31.3156 25.0063 30.9833 24.8842C30.6495 24.7614 30.2758 24.7001 29.8632 24.7001C29.0445 24.7001 28.378 24.9457 27.8649 25.4364C27.609 25.681 27.4166 25.9613 27.2887 26.2758C27.1606 26.5911 27.0962 26.9432 27.0962 27.331C27.0962 27.7318 27.161 28.0935 27.2902 28.4157C27.4191 28.7367 27.6128 29.0205 27.8711 29.2666C28.1273 29.5107 28.4212 29.6942 28.7519 29.8162C29.0836 29.9386 29.4543 29.9999 29.8632 29.9999ZM29.3506 27.7726H29.9055L30.5635 28.7262H31.0943L30.4096 27.7162L30.523 27.6775C30.5771 27.6591 30.6281 27.6347 30.676 27.605C30.723 27.5757 30.7681 27.5398 30.8098 27.4982C30.8934 27.4154 30.9552 27.3213 30.9947 27.2171C31.0149 27.1637 31.0301 27.1091 31.0401 27.0546C31.0499 27.0008 31.0549 26.9443 31.0549 26.8858C31.0549 26.6785 31.0087 26.5073 30.9162 26.3727C30.8248 26.2394 30.6852 26.1379 30.4987 26.0693C30.4212 26.0441 30.3393 26.0246 30.2545 26.0119C30.1689 25.9993 30.0783 25.9925 29.9835 25.9925L28.7664 25.9979V28.7262H29.258V27.7726H29.3506ZM29.8817 26.4113L29.9762 26.4157L30.0659 26.429L30.1494 26.4515L30.2273 26.484C30.251 26.4956 30.2745 26.5096 30.297 26.5247C30.3194 26.5394 30.3404 26.5564 30.3595 26.574C30.3999 26.6113 30.4329 26.657 30.4568 26.7103C30.4688 26.7372 30.4785 26.765 30.4844 26.7926C30.4903 26.822 30.4937 26.8511 30.4937 26.8793C30.4937 26.9493 30.479 27.0145 30.4501 27.0737C30.4212 27.1326 30.3788 27.1848 30.3232 27.2296C30.2692 27.2736 30.2073 27.3064 30.139 27.3283C30.0717 27.3494 29.9987 27.3602 29.9202 27.3602L29.2593 27.3671L29.2513 26.4188L29.8817 26.4113Z" fill="black"/>
</g>
<defs>
<linearGradient id="paint0_linear_10550_4912" x1="0.000488281" y1="14.9997" x2="52.9454" y2="14.9997" gradientUnits="userSpaceOnUse">
<stop stop-color="#2563EB"/>
<stop offset="1" stop-color="#9333EA"/>
</linearGradient>
<clipPath id="clip0_10550_4912">
<rect width="162.766" height="30" fill="white"/>
</clipPath>
</defs>
</svg>
