<svg width="218" height="40" viewBox="0 0 218 40" fill="none" xmlns="http://www.w3.org/2000/svg">
<g clip-path="url(#clip0_7711_7480)">
<path d="M23.6945 39.8404L0.109868 12.3893C-0.0317379 12.2244 -0.038972 11.9773 0.104624 11.8044L9.74453 0.19636C9.82754 0.0774566 9.96607 -0.000377655 10.1227 -0.000377655H37.9654C38.111 0.00123642 38.2541 0.0697449 38.3429 0.197616L43.4154 7.47978C43.5335 7.63617 43.5405 7.85676 43.4181 8.02229C43.2684 8.22495 42.9808 8.26871 42.7765 8.12021L37.5401 4.32481C37.5182 4.30902 37.492 4.30167 37.4672 4.30239C37.443 4.3031 37.418 4.31261 37.3979 4.32947L32.919 7.57179C32.7763 7.6828 32.5743 7.70342 32.4073 7.60855C32.1882 7.48373 32.1124 7.20557 32.2383 6.98803L34.114 3.7484C34.1298 3.7215 34.1327 3.68976 34.1251 3.66142C34.1187 3.63721 34.1039 3.61515 34.0837 3.60009L34.0455 3.58341L33.9679 3.57767H14.1025C14.0696 3.57767 14.0408 3.59004 14.0213 3.60941L14.0193 3.6112C13.9998 3.63057 13.9875 3.65909 13.9875 3.69173C13.9889 3.72509 13.9922 3.72598 14.0065 3.75701L15.8804 6.98803C15.9674 7.13903 15.9631 7.33272 15.8533 7.48194C15.7045 7.68459 15.4177 7.72925 15.2135 7.58165L10.9631 4.50486C10.9389 4.48747 10.9096 4.48101 10.8812 4.48442C10.853 4.48783 10.826 4.50182 10.807 4.52459L4.61306 11.9836C4.5957 12.0048 4.58666 12.0315 4.58684 12.0573C4.5872 12.0826 4.59678 12.1088 4.61451 12.1296L23.9725 34.6613C23.9923 34.6843 24.0215 34.6978 24.0511 34.7001C24.0808 34.7019 24.1113 34.6933 24.1341 34.6739L34.6955 25.488C34.8584 25.3291 35.1194 25.3123 35.303 25.4568C35.5015 25.613 35.5344 25.9 35.3769 26.0969L24.4029 39.8278C24.3848 39.8501 24.3645 39.8712 24.3417 39.8904C24.1491 40.0538 23.8592 40.0314 23.6945 39.8404ZM22.1594 14.2537C22.1647 14.1841 22.1737 14.1127 22.1856 14.0408L22.2012 13.9583H9.7212C9.40363 13.9583 9.14591 13.7028 9.14591 13.3878V10.768C9.14591 10.4531 9.40363 10.1975 9.7212 10.1975H38.398C38.7154 10.1975 38.9731 10.4531 38.9731 10.768V13.3878C38.9731 13.7028 38.7154 13.9583 38.398 13.9583H25.988V28.3575C25.988 28.6724 25.7303 28.928 25.4129 28.928H22.7257C22.4081 28.928 22.1504 28.6724 22.1504 28.3575V14.4687C22.1504 14.4006 22.1536 14.3283 22.1594 14.2537ZM49.5198 28.9088C49.3008 28.8971 49.0901 28.8797 48.8894 28.8571C48.6717 28.8327 48.4655 28.8035 48.2723 28.77C48.0969 28.7397 47.9048 28.6993 47.6974 28.6505L47.6721 28.645C47.4672 28.5958 47.2737 28.5427 47.0923 28.4866C46.9024 28.4274 46.7145 28.3618 46.5287 28.2897C46.3454 28.2187 46.1643 28.1408 45.9866 28.0571C45.8223 27.98 45.6587 27.8959 45.4963 27.8055L45.4677 27.7906C45.3002 27.6971 45.1333 27.5955 44.9682 27.4871C44.8096 27.3831 44.6521 27.271 44.4971 27.1525C44.3397 27.032 44.1916 26.9097 44.0542 26.7873C43.9153 26.6634 43.7771 26.5305 43.6415 26.3903C43.5033 26.2477 43.3742 26.1046 43.2555 25.9624C43.1392 25.8209 43.0286 25.6797 42.926 25.539L42.9014 25.5074C42.8056 25.3749 42.7054 25.2249 42.6019 25.0599L42.5746 25.0198C42.4775 24.863 42.3788 24.6907 42.28 24.5045C42.1842 24.3243 42.0959 24.1439 42.0163 23.9647C41.9378 23.7879 41.8622 23.6003 41.7905 23.4032C41.7152 23.1932 41.6496 22.9955 41.5962 22.8108C41.5374 22.6082 41.4854 22.4048 41.4401 22.2018C41.3985 22.0136 41.3586 21.8034 41.321 21.5692C41.2864 21.3549 41.2575 21.1384 41.2352 20.9216C41.2126 20.7048 41.1953 20.4808 41.1841 20.2521C41.1719 20.0052 41.1654 19.7747 41.1654 19.5627C41.1654 19.3506 41.1719 19.1198 41.1841 18.8734C41.1953 18.6447 41.2126 18.4209 41.2352 18.2041C41.2575 17.9874 41.2864 17.7708 41.321 17.5561C41.3588 17.3224 41.3987 17.1106 41.4401 16.9237C41.4917 16.7006 41.5436 16.4973 41.5962 16.3152C41.6472 16.1386 41.7094 15.9503 41.7803 15.7526L41.7905 15.7227C41.8622 15.5254 41.9377 15.3378 42.0162 15.1615C42.0957 14.9822 42.1842 14.8014 42.28 14.621C42.3728 14.446 42.4714 14.2752 42.5739 14.1093L42.5762 14.107C42.682 13.9368 42.7909 13.7741 42.9016 13.6203C43.0029 13.4798 43.1121 13.3387 43.2284 13.1985L43.2562 13.1624C43.3747 13.0207 43.5035 12.8776 43.6415 12.7354C43.7771 12.5951 43.9149 12.4624 44.0538 12.3389C44.1911 12.2166 44.3395 12.0941 44.4971 11.973C44.6537 11.853 44.8114 11.7406 44.97 11.6362C45.1348 11.5279 45.3006 11.4267 45.4666 11.3342C45.6469 11.2356 45.8202 11.1457 45.9857 11.0679C46.1631 10.9843 46.3443 10.9068 46.5271 10.8358C46.7136 10.7637 46.9022 10.6977 47.0917 10.6389C47.2731 10.5828 47.4668 10.5295 47.6719 10.4805C47.8904 10.4292 48.0904 10.3869 48.2723 10.3555C48.4655 10.322 48.6717 10.2928 48.8894 10.2684C49.0872 10.2461 49.2949 10.2287 49.5106 10.2173L49.5198 10.2165C49.7504 10.204 49.9676 10.1975 50.1711 10.1975H69.531C69.8486 10.1975 70.1063 10.4531 70.1063 10.768V13.3878C70.1063 13.7028 69.8486 13.9583 69.531 13.9583H50.1711C50.0072 13.9583 49.8635 13.9615 49.7427 13.9678C49.6092 13.975 49.4726 13.9861 49.3339 14.0014C49.2088 14.0146 49.0797 14.0333 48.9476 14.0559C48.814 14.079 48.6919 14.1038 48.5836 14.1301C48.4633 14.1594 48.3496 14.1907 48.2438 14.2243C48.1425 14.2562 48.0354 14.2951 47.9237 14.3396C47.8233 14.3794 47.7303 14.4201 47.645 14.4607L47.6184 14.4746C47.5218 14.5218 47.4241 14.5745 47.3268 14.6316C47.2393 14.683 47.1482 14.7419 47.0548 14.8062C46.9704 14.8624 46.8843 14.9268 46.7984 14.996C46.7219 15.0577 46.6526 15.1167 46.5911 15.1732L46.5651 15.1994C46.4908 15.269 46.4164 15.3445 46.3428 15.4248C46.283 15.4883 46.2229 15.5586 46.1627 15.6348L46.1399 15.6658C46.0692 15.7559 46.0055 15.843 45.9506 15.9252L45.9482 15.9275C45.8898 16.0145 45.8323 16.1076 45.7762 16.2053C45.7232 16.2984 45.6744 16.3893 45.6308 16.4774L45.6178 16.5066C45.5663 16.6128 45.5183 16.72 45.4749 16.8267C45.4348 16.9255 45.3937 17.0378 45.3521 17.1626C45.3114 17.2853 45.2764 17.4019 45.2471 17.5118C45.2116 17.6458 45.1819 17.7704 45.1584 17.8848C45.1364 17.9942 45.1138 18.1241 45.0917 18.2749C45.0696 18.4257 45.0526 18.5627 45.0414 18.6849C45.0161 18.9553 45.0031 19.2487 45.0031 19.5627C45.0031 19.7385 45.0062 19.887 45.0116 20.0091C45.0186 20.1626 45.0288 20.3092 45.0414 20.4469C45.0526 20.5698 45.0696 20.7075 45.0917 20.8592C45.1138 21.01 45.1364 21.1413 45.1586 21.2512C45.1818 21.3639 45.2109 21.4871 45.2462 21.62C45.2755 21.7308 45.3113 21.8486 45.3521 21.9722C45.3941 22.0988 45.4357 22.2127 45.476 22.3124C45.5236 22.4301 45.572 22.5395 45.6202 22.6386C45.6672 22.7366 45.7207 22.8372 45.7786 22.939C45.8265 23.0228 45.8753 23.1021 45.9245 23.177L45.9507 23.2127C46.0128 23.3053 46.0764 23.3928 46.1399 23.474C46.1974 23.5499 46.2662 23.6304 46.3439 23.7152C46.4161 23.794 46.4881 23.8669 46.5591 23.9337L46.5649 23.9389C46.6429 24.012 46.7223 24.0811 46.8022 24.1455C46.8834 24.2106 46.9679 24.2737 47.0545 24.3332C47.1447 24.3949 47.235 24.4525 47.323 24.5036C47.4021 24.5495 47.4992 24.6005 47.6117 24.6546C47.709 24.7018 47.8014 24.7432 47.8875 24.7784L47.9184 24.7893C48.0269 24.8318 48.1338 24.8696 48.2372 24.9018C48.3577 24.9392 48.4734 24.9713 48.5836 24.9977C48.6872 25.0228 48.8089 25.0474 48.9493 25.071C49.0802 25.0933 49.2088 25.1116 49.3327 25.1247C49.469 25.1396 49.6065 25.1509 49.743 25.1577C49.8638 25.1639 50.0074 25.1672 50.1711 25.1672H63.0522L63.4107 25.1645L63.7631 25.1496L64.0782 25.1279C64.2789 25.1071 64.4657 25.0823 64.6654 25.0542L64.9184 25.0065L65.1561 24.9507L65.3823 24.8853L65.5617 24.8193C65.6214 24.7952 65.6749 24.771 65.7219 24.7475C65.7691 24.7253 65.8185 24.6978 65.8731 24.6647C65.9223 24.6351 65.9672 24.6051 66.0062 24.5762L66.0963 24.5054L66.2283 24.38L66.3218 24.2674L66.3828 24.1853L66.4039 24.1482C66.4359 24.0963 66.4631 24.0492 66.4833 24.0081C66.5094 23.9555 66.5325 23.9037 66.552 23.8537L66.611 23.6781L66.6627 23.488C66.6803 23.4111 66.6947 23.3363 66.7063 23.2638C66.7184 23.1856 66.7293 23.1019 66.7376 23.0138C66.7537 22.8472 66.762 22.658 66.762 22.448V21.1549H53.258C52.9405 21.1549 52.6828 20.8994 52.6828 20.5846V17.9648C52.6828 17.6499 52.9405 17.3943 53.258 17.3943H70.0182C70.3358 17.3943 70.5935 17.6499 70.5935 17.9648V28.3575C70.5935 28.6724 70.3358 28.928 70.0182 28.928H67.3275C67.01 28.928 66.7522 28.6724 66.7522 28.3575V28.245C66.632 28.2999 66.519 28.3478 66.3958 28.398L66.1905 28.4757C66.0473 28.5241 65.9111 28.5673 65.7659 28.6113L65.5492 28.6677L65.3286 28.7185L65.1045 28.7632C64.8045 28.8109 64.5225 28.8383 64.2249 28.8772C63.8246 28.9064 63.4486 28.9086 63.0522 28.928H50.1711C49.9676 28.928 49.7504 28.9215 49.5198 28.9088Z" fill="url(#paint0_linear_7711_7480)"/>
<path d="M165.609 28.3577V15.5982C165.609 15.2833 165.867 15.0277 166.184 15.0277H168.813C169.098 15.0277 169.335 15.2331 169.381 15.5026L169.667 15.3828L169.991 15.2724L170.161 15.2261L170.331 15.1845C170.508 15.1477 170.678 15.1235 170.856 15.0923C171.065 15.067 171.305 15.0362 171.514 15.0362C171.642 15.0306 171.756 15.0277 171.855 15.0277H186.13C186.448 15.0277 186.705 15.2833 186.705 15.5982V18.1696C186.705 18.4846 186.448 18.7401 186.13 18.7401H171.855C171.598 18.7401 171.363 18.7538 171.149 18.7803C170.944 18.8041 170.758 18.8427 170.593 18.8926C170.531 18.911 170.469 18.9329 170.408 18.9573L170.383 18.9682C170.319 18.9948 170.257 19.0244 170.199 19.0559C170.143 19.0863 170.091 19.1191 170.045 19.153C170.001 19.1833 169.958 19.219 169.916 19.259C169.876 19.2981 169.835 19.3425 169.793 19.3915L169.709 19.4984L169.689 19.5301C169.648 19.5913 169.617 19.6418 169.597 19.68C169.573 19.7242 169.55 19.7773 169.526 19.837C169.503 19.8936 169.485 19.946 169.471 19.9935L169.466 20.0147C169.451 20.0696 169.436 20.1347 169.424 20.2082C169.412 20.2749 169.403 20.3461 169.397 20.4191C169.392 20.4894 169.389 20.5662 169.389 20.6481V28.3577C169.389 28.6726 169.131 28.9282 168.813 28.9282H166.184C165.867 28.9282 165.609 28.6726 165.609 28.3577Z" fill="black"/>
<path d="M117.291 28.9163C117.147 28.9097 117.003 28.8991 116.861 28.8853C116.701 28.8697 116.561 28.8528 116.443 28.8351C116.318 28.8161 116.179 28.7903 116.029 28.7594C115.894 28.7316 115.77 28.7022 115.655 28.6721L115.63 28.666C115.507 28.6328 115.376 28.5926 115.24 28.5471C115.121 28.5069 114.996 28.4603 114.868 28.4079C114.751 28.3597 114.63 28.3053 114.507 28.2456C114.404 28.1959 114.303 28.1426 114.204 28.0874L114.161 28.0654C114.066 28.0116 113.964 27.9486 113.856 27.8774L113.835 27.8641C113.732 27.7962 113.628 27.7219 113.525 27.6434C113.418 27.5621 113.321 27.483 113.236 27.4079C113.15 27.3317 113.06 27.2459 112.968 27.152C112.876 27.0582 112.791 26.9653 112.715 26.8756C112.642 26.7892 112.564 26.6894 112.483 26.5779C112.417 26.487 112.354 26.3944 112.294 26.3001L112.275 26.271C112.214 26.1737 112.15 26.0626 112.085 25.9396C112.022 25.8202 111.967 25.7058 111.921 25.5978C111.867 25.474 111.82 25.3542 111.781 25.2407C111.742 25.1285 111.704 25.0054 111.669 24.8725C111.636 24.747 111.607 24.6213 111.583 24.4968C111.557 24.3636 111.536 24.2337 111.52 24.1093C111.505 23.9898 111.493 23.8569 111.485 23.7126C111.475 23.566 111.471 23.431 111.471 23.3076C111.471 19.4946 111.475 18.1763 111.478 16.9817L111.475 16.9542L111.481 15.2347L111.481 12.2205C111.481 11.9058 111.739 11.6502 112.056 11.6502H114.694C115.012 11.6502 115.27 11.9058 115.27 12.2205V15.0805L115.361 15.0629C115.434 15.0511 115.505 15.0419 115.573 15.0367C115.647 15.031 115.719 15.0278 115.788 15.0278H131.495C131.813 15.0278 132.07 15.2833 132.07 15.5982V18.1696C132.07 18.4846 131.813 18.7401 131.495 18.7401H115.27V23.3076C115.27 23.3896 115.273 23.4665 115.278 23.5368C115.284 23.6098 115.293 23.681 115.305 23.7477C115.318 23.8211 115.332 23.886 115.347 23.9407C115.361 23.995 115.382 24.0544 115.407 24.1189C115.423 24.1616 115.442 24.2043 115.465 24.2479L115.48 24.2759C115.506 24.3243 115.536 24.3747 115.57 24.4253C115.598 24.4688 115.633 24.5156 115.675 24.5648C115.716 24.6134 115.757 24.6579 115.798 24.697C115.831 24.7289 115.865 24.7583 115.899 24.7845L115.926 24.8031C115.973 24.8365 116.024 24.8691 116.081 24.9C116.127 24.9278 116.189 24.9565 116.264 24.9873C116.338 25.0182 116.409 25.0438 116.474 25.0634C116.553 25.0874 116.642 25.1094 116.74 25.1295C116.824 25.1469 116.923 25.1625 117.035 25.1763C117.151 25.1905 117.263 25.2009 117.37 25.2072C117.471 25.2127 117.593 25.2158 117.736 25.2158H131.992C132.309 25.2158 132.567 25.4714 132.567 25.7863V28.3577C132.567 28.6726 132.309 28.9282 131.992 28.9282H117.736C117.608 28.9282 117.46 28.924 117.291 28.9163Z" fill="black"/>
<path d="M76.7103 28.3577V25.7379C76.7103 25.4229 76.968 25.1674 77.2854 25.1674H102.279C102.472 25.1674 102.65 25.1555 102.812 25.1324C102.968 25.1098 103.117 25.0754 103.256 25.03C103.325 25.0083 103.386 24.9852 103.44 24.9613C103.493 24.9378 103.543 24.9134 103.588 24.8885L103.614 24.8731C103.665 24.8442 103.712 24.8146 103.756 24.7845L103.774 24.7708C103.819 24.7391 103.868 24.7004 103.918 24.6555L104.016 24.5614L104.037 24.5363C104.079 24.4884 104.114 24.445 104.139 24.4071C104.164 24.3713 104.189 24.3297 104.214 24.2834L104.227 24.2569C104.255 24.2038 104.28 24.1496 104.301 24.0954C104.327 24.0268 104.348 23.9615 104.364 23.9007C104.383 23.8291 104.399 23.7533 104.412 23.6751C104.424 23.6037 104.433 23.5194 104.44 23.4256C104.447 23.3444 104.45 23.2543 104.45 23.1564C104.45 23.0587 104.447 22.9688 104.44 22.8878C104.433 22.794 104.424 22.7102 104.412 22.6388C104.399 22.5608 104.383 22.4853 104.365 22.4145C104.349 22.3546 104.327 22.2893 104.301 22.2206C104.278 22.16 104.253 22.1044 104.227 22.0556C104.202 22.0067 104.172 21.9581 104.14 21.9112C104.111 21.8686 104.076 21.825 104.038 21.781C103.996 21.7337 103.957 21.6942 103.922 21.6638C103.878 21.6252 103.828 21.5865 103.775 21.5488C103.724 21.5127 103.671 21.4789 103.616 21.4482C103.568 21.4213 103.519 21.396 103.469 21.3734L103.442 21.3625C103.381 21.3357 103.319 21.3122 103.259 21.2929L103.257 21.2905C103.197 21.2708 103.125 21.2513 103.043 21.2323C102.972 21.2161 102.9 21.2025 102.828 21.1923L102.811 21.1899C102.727 21.1783 102.641 21.1691 102.554 21.1632C102.475 21.158 102.383 21.1551 102.279 21.1551H82.2836C82.1646 21.1551 82.0258 21.1514 81.8676 21.1438C81.7318 21.1374 81.5969 21.1272 81.4638 21.1141C81.3507 21.1031 81.2344 21.0884 81.1165 21.071L81.0708 21.066C80.9587 21.0491 80.8342 21.026 80.6998 20.9984L80.676 20.9939C80.5376 20.9649 80.4101 20.9345 80.2955 20.9037C80.188 20.875 80.0642 20.8366 79.9271 20.7911C79.8171 20.7543 79.7084 20.7145 79.6017 20.6722L79.5681 20.6598C79.4563 20.6148 79.3397 20.5631 79.2189 20.5054C79.1187 20.4575 79.0174 20.4051 78.9159 20.349L78.887 20.3339C78.7761 20.2721 78.6682 20.2068 78.5649 20.1397C78.4631 20.0739 78.3616 20.0029 78.262 19.9283C78.1716 19.8605 78.0768 19.7834 77.9786 19.6985C77.8851 19.6175 77.7965 19.5351 77.7136 19.4525C77.6274 19.3662 77.5444 19.2771 77.4651 19.1858C77.3883 19.0968 77.3116 19.0016 77.2367 18.9012C77.1743 18.8176 77.1121 18.7286 77.051 18.6352L77.0298 18.6045C76.9631 18.5018 76.8987 18.3945 76.8383 18.2842C76.775 18.1666 76.7199 18.0563 76.6741 17.9541C76.6244 17.8423 76.5773 17.7258 76.5347 17.606C76.4925 17.4876 76.4547 17.3671 76.4224 17.2466C76.388 17.1207 76.3589 16.9982 76.3352 16.88C76.3142 16.7749 76.2943 16.6501 76.2762 16.5082C76.2592 16.3757 76.2467 16.2469 76.2393 16.123C76.2308 15.9797 76.2263 15.8461 76.2263 15.7249C76.2263 15.6042 76.2308 15.4711 76.2393 15.3276C76.2482 15.1852 76.26 15.0563 76.2741 14.942C76.2883 14.8281 76.3079 14.7094 76.3314 14.588L76.3354 14.5654C76.36 14.442 76.3893 14.3179 76.4224 14.1949C76.4535 14.0801 76.4916 13.9594 76.5354 13.8348C76.577 13.716 76.6233 13.5993 76.6732 13.4856C76.7242 13.3694 76.7788 13.2575 76.8354 13.1511C76.8924 13.0441 76.9562 12.9356 77.0257 12.8258C77.0953 12.7146 77.1631 12.614 77.2277 12.5258C77.2997 12.4271 77.3764 12.3297 77.4561 12.2347C77.5317 12.145 77.6144 12.0543 77.7024 11.9637C77.7914 11.8722 77.8806 11.7865 77.9679 11.7089C78.0421 11.6427 78.1265 11.572 78.2197 11.4988L78.2509 11.4727C78.3253 11.4149 78.4132 11.3514 78.5128 11.2835L78.551 11.2557C78.6333 11.2006 78.73 11.1402 78.8409 11.0751L78.87 11.0573C78.9691 11.0001 79.0713 10.9447 79.1755 10.892L79.2057 10.876C79.2973 10.8308 79.4057 10.7815 79.5283 10.7291L79.5576 10.716C79.6798 10.6642 79.8005 10.6176 79.9179 10.5763C80.0352 10.5354 80.1589 10.4965 80.2884 10.4601C80.3901 10.4316 80.5034 10.4032 80.627 10.3758L80.6715 10.3643C80.7852 10.3398 80.9158 10.3156 81.0626 10.2921C81.1959 10.2707 81.3281 10.2535 81.4578 10.2402C81.5891 10.2268 81.7256 10.2162 81.8658 10.2096C82.0233 10.2018 82.1629 10.1977 82.2836 10.1977H107.228C107.546 10.1977 107.804 10.4533 107.804 10.7682V13.388C107.804 13.703 107.546 13.9585 107.228 13.9585H82.2836L82.0611 13.9619L81.8443 13.9765C81.7117 13.9931 81.5998 14.0103 81.4685 14.0338L81.3137 14.0719L81.1699 14.1165C81.091 14.1472 81.0281 14.1743 80.952 14.2098C80.8604 14.2647 80.7883 14.307 80.7004 14.3676L80.6049 14.4433L80.5208 14.52C80.4445 14.5991 80.3893 14.6678 80.3273 14.7578C80.1846 15.0061 80.1199 15.2112 80.0768 15.4919L80.066 15.6099V15.8351L80.0766 15.9438C80.0935 16.0575 80.1112 16.1355 80.1425 16.2487L80.1788 16.3515C80.3233 16.6976 80.4684 16.8482 80.7827 17.0493C80.8642 17.0961 80.9306 17.1282 81.0162 17.1686L81.1541 17.2193C81.2623 17.2525 81.3473 17.2733 81.4582 17.2986L81.4578 17.3009L81.639 17.33L81.8343 17.3509L82.0517 17.366L82.2836 17.3687H102.279C102.397 17.3687 102.532 17.3728 102.685 17.3805C102.82 17.3874 102.953 17.3979 103.08 17.4112C103.203 17.4238 103.327 17.4406 103.451 17.46L103.471 17.4627C103.612 17.4855 103.74 17.5097 103.854 17.5344L103.856 17.5364C103.998 17.5676 104.123 17.5988 104.229 17.6287C104.35 17.663 104.473 17.7021 104.597 17.7455C104.714 17.7866 104.834 17.8328 104.954 17.8838C105.069 17.9331 105.183 17.9855 105.296 18.0416C105.399 18.0927 105.499 18.1461 105.595 18.2012L105.63 18.22C105.737 18.283 105.844 18.3504 105.948 18.4211L105.95 18.4234C106.057 18.4964 106.157 18.5696 106.249 18.6422C106.346 18.7186 106.441 18.7997 106.534 18.8841C106.614 18.9564 106.702 19.0441 106.799 19.1456C106.89 19.2414 106.973 19.3343 107.047 19.4231C107.127 19.5201 107.203 19.618 107.273 19.7156C107.343 19.8133 107.413 19.9189 107.484 20.0312L107.486 20.0357C107.563 20.1628 107.628 20.2755 107.678 20.3727C107.737 20.4914 107.792 20.6087 107.841 20.726C107.886 20.8316 107.932 20.9546 107.979 21.0938C108.027 21.2371 108.065 21.363 108.093 21.4713C108.124 21.604 108.153 21.7339 108.177 21.8598C108.202 21.9919 108.222 22.1191 108.237 22.2398L108.239 22.2572C108.254 22.3829 108.266 22.5214 108.274 22.6704C108.283 22.8241 108.288 22.9654 108.288 23.092C108.288 23.2177 108.283 23.3576 108.274 23.5108C108.266 23.6593 108.254 23.7972 108.239 23.9226C108.224 24.0474 108.203 24.1806 108.177 24.32C108.15 24.4678 108.121 24.5987 108.093 24.71C108.067 24.8089 108.034 24.9224 107.992 25.0508L107.981 25.0874C107.941 25.2074 107.895 25.3306 107.843 25.4554C107.798 25.563 107.748 25.6724 107.693 25.7825L107.677 25.816C107.624 25.9206 107.566 26.0266 107.503 26.1322L107.49 26.1543C107.432 26.2515 107.367 26.3514 107.297 26.4531L107.284 26.4741C107.219 26.5682 107.142 26.671 107.055 26.78C106.978 26.8767 106.895 26.9723 106.81 27.065C106.718 27.1654 106.629 27.2554 106.546 27.3342C106.45 27.4247 106.356 27.508 106.265 27.5827C106.167 27.6633 106.067 27.7397 105.967 27.8109C105.854 27.8894 105.748 27.9599 105.65 28.0203C105.535 28.0912 105.424 28.1548 105.317 28.2112C105.193 28.2748 105.076 28.3328 104.969 28.3806C104.863 28.4287 104.744 28.4768 104.614 28.5248C104.481 28.5745 104.357 28.6168 104.245 28.6502C104.107 28.6902 103.979 28.725 103.866 28.751C103.741 28.7802 103.612 28.8068 103.48 28.8292C103.356 28.8502 103.226 28.8686 103.09 28.8833C102.964 28.8973 102.83 28.9084 102.688 28.9158C102.536 28.9239 102.399 28.9282 102.279 28.9282H77.2854C76.968 28.9282 76.7103 28.6726 76.7103 28.3577Z" fill="black"/>
<path d="M139.936 28.9192C139.829 28.9149 139.719 28.9072 139.608 28.8971C139.485 28.8862 139.377 28.8738 139.283 28.8611C139.177 28.8462 139.069 28.8286 138.959 28.808C138.857 28.7892 138.751 28.766 138.642 28.74C138.523 28.7113 138.42 28.6837 138.332 28.6579C138.225 28.6269 138.124 28.5942 138.031 28.5614C137.932 28.5264 137.832 28.4884 137.734 28.4481C137.656 28.4158 137.567 28.3754 137.47 28.329L137.438 28.3143C137.34 28.2662 137.244 28.2151 137.152 28.1624C137.054 28.1057 136.962 28.0494 136.881 27.9943C136.779 27.924 136.693 27.8625 136.624 27.8087C136.534 27.7368 136.453 27.6697 136.384 27.6069C136.309 27.5393 136.233 27.4653 136.157 27.3867C136.089 27.3155 136.018 27.2361 135.946 27.1494C135.877 27.0655 135.811 26.9812 135.751 26.8975C135.683 26.803 135.622 26.7097 135.567 26.6186C135.516 26.5314 135.463 26.4332 135.41 26.3243C135.359 26.2179 135.315 26.115 135.277 26.0165C135.235 25.9064 135.199 25.7983 135.169 25.6941C135.143 25.6044 135.118 25.5026 135.093 25.3876L135.088 25.3655C135.066 25.2578 135.046 25.1449 135.031 25.0284C135.016 24.9154 135.005 24.8031 134.997 24.6919L134.996 24.6805C134.988 24.5511 134.984 24.4297 134.984 24.3187C134.984 24.2082 134.988 24.0872 134.996 23.9577C135.004 23.8453 135.016 23.7281 135.031 23.6087C135.047 23.4921 135.066 23.3791 135.089 23.2712C135.114 23.1505 135.142 23.0391 135.171 22.9383C135.202 22.8289 135.238 22.721 135.278 22.6159C135.318 22.5111 135.363 22.4082 135.411 22.3085C135.461 22.2046 135.515 22.1065 135.57 22.0151C135.631 21.9139 135.693 21.821 135.755 21.7362C135.817 21.6512 135.882 21.5682 135.95 21.4889C136.026 21.401 136.097 21.3232 136.163 21.2557C136.233 21.1847 136.31 21.1123 136.393 21.0393C136.478 20.9647 136.56 20.8971 136.639 20.8381C136.705 20.7873 136.782 20.7335 136.867 20.6772L136.898 20.6553C136.975 20.6046 137.067 20.5493 137.172 20.4903C137.276 20.4324 137.371 20.3825 137.457 20.3416C137.571 20.2886 137.672 20.2434 137.757 20.2091C137.858 20.1688 137.957 20.1313 138.055 20.0983L138.361 20.003C138.481 19.9688 138.586 19.941 138.676 19.92C138.766 19.8996 138.874 19.8771 139 19.8544C139.121 19.833 139.23 19.8155 139.33 19.8024L139.661 19.764C139.744 19.7568 139.855 19.75 139.994 19.7443L140.337 19.7355H157.474L157.432 19.6528C157.395 19.5841 157.347 19.5129 157.29 19.4408C157.232 19.3684 157.17 19.3002 157.103 19.238C157.067 19.203 157.024 19.1689 156.976 19.1357C156.932 19.1053 156.88 19.0739 156.82 19.0427C156.769 19.0161 156.708 18.9889 156.637 18.9612C156.574 18.9336 156.501 18.9094 156.424 18.887C156.353 18.8669 156.27 18.8472 156.175 18.8282L156.155 18.8246C156.059 18.8058 155.965 18.7905 155.872 18.7794L155.856 18.7778C155.74 18.764 155.628 18.7543 155.519 18.7484C155.419 18.7428 155.295 18.7401 155.15 18.7401H136.54C136.222 18.7401 135.965 18.4846 135.965 18.1696V15.5982C135.965 15.2833 136.222 15.0277 136.54 15.0277H155.15C155.272 15.0277 155.417 15.0319 155.582 15.0392L155.591 15.0394C155.731 15.0457 155.873 15.0563 156.016 15.0699C156.179 15.0857 156.318 15.1024 156.432 15.1192C156.55 15.1368 156.688 15.1619 156.843 15.1936C156.978 15.2211 157.103 15.25 157.218 15.2797L157.245 15.2864C157.344 15.3127 157.458 15.3464 157.583 15.3871L157.63 15.4004C157.754 15.441 157.878 15.4869 158.003 15.5369C158.119 15.5833 158.24 15.6375 158.364 15.6967C158.466 15.7457 158.57 15.7995 158.673 15.8561L158.707 15.8732C158.808 15.9291 158.917 15.9953 159.032 16.0686C159.136 16.1354 159.237 16.2055 159.334 16.2772L159.337 16.2796C159.442 16.3577 159.538 16.4338 159.624 16.5064C159.716 16.5846 159.807 16.668 159.895 16.7537C159.981 16.8382 160.065 16.927 160.146 17.0188C160.232 17.1164 160.31 17.2105 160.378 17.2998C160.446 17.3893 160.517 17.4896 160.588 17.5991C160.655 17.7005 160.718 17.8063 160.778 17.9155C160.841 18.0292 160.896 18.139 160.944 18.2426C160.992 18.3495 161.039 18.4629 161.082 18.5812C161.125 18.6983 161.163 18.8151 161.196 18.9306C161.228 19.0479 161.257 19.1677 161.283 19.2905C161.308 19.4116 161.329 19.5339 161.345 19.656C161.361 19.7783 161.374 19.8997 161.381 20.019L161.382 20.0303C161.391 20.167 161.395 20.2952 161.395 20.4132V28.3577C161.395 28.6726 161.138 28.9282 160.82 28.9282H158.182C157.898 28.9282 157.663 28.7248 157.615 28.4574L157.338 28.5731L157.013 28.6835L156.843 28.7298L156.673 28.7714C156.273 28.8553 155.899 28.9013 155.49 28.9197C155.362 28.9251 155.248 28.9282 155.15 28.9282H140.272L139.936 28.9192ZM155.856 25.1765C156.061 25.1516 156.247 25.113 156.412 25.0633C156.473 25.0447 156.536 25.023 156.597 24.9986L156.622 24.9877C156.686 24.9611 156.748 24.9315 156.806 24.9C156.862 24.8697 156.913 24.8367 156.96 24.8029C157.004 24.7726 157.046 24.7368 157.088 24.697C157.129 24.6577 157.17 24.6134 157.211 24.5642C157.253 24.5153 157.289 24.4685 157.317 24.4256C157.352 24.3749 157.382 24.325 157.407 24.2769C157.431 24.2323 157.455 24.1794 157.479 24.1189C157.504 24.0547 157.524 23.9959 157.539 23.9437C157.553 23.893 157.566 23.8334 157.578 23.7662L157.581 23.7477C157.592 23.681 157.601 23.6098 157.607 23.5368L157.613 23.4478H140.242L140.025 23.4521L139.828 23.4692C139.757 23.4767 139.697 23.4857 139.645 23.495C139.599 23.5033 139.546 23.5158 139.486 23.5319C139.342 23.5746 139.261 23.6058 139.129 23.6754C139.104 23.688 139.079 23.7041 139.054 23.7213L138.97 23.7898L138.921 23.8402L138.875 23.8987C138.829 23.974 138.816 24.0214 138.795 24.1066C138.782 24.1684 138.776 24.2398 138.776 24.3187L138.779 24.4342C138.79 24.506 138.799 24.5526 138.817 24.6232L138.832 24.6665L138.88 24.7594C138.931 24.8333 138.972 24.8709 139.04 24.9283L139.129 24.9886L139.231 25.0433C139.254 25.0569 139.293 25.0729 139.343 25.092C139.368 25.1037 139.409 25.1168 139.465 25.1328L139.572 25.1622C139.707 25.1839 139.817 25.1982 139.955 25.2115L140.148 25.2158H155.15C155.406 25.2158 155.642 25.2022 155.856 25.1765Z" fill="black"/>
<path d="M190.197 28.3577V25.7863C190.197 25.4713 190.455 25.2158 190.773 25.2158H211.694L211.906 25.2124L212.111 25.198L212.299 25.1747L212.467 25.143L212.621 25.1033L212.755 25.0587C212.792 25.046 212.832 25.0287 212.878 25.0074L212.969 24.9627L213.059 24.9061C213.077 24.8944 213.093 24.881 213.108 24.8664C213.142 24.8272 213.149 24.8203 213.173 24.775L213.211 24.6561L213.226 24.5574L213.229 24.4414L213.225 24.3241L213.211 24.2253L213.198 24.1747C213.177 24.1168 213.173 24.1032 213.139 24.052C213.131 24.0388 213.118 24.0248 213.102 24.0086C213.064 23.9744 213.046 23.964 213.001 23.9351C212.856 23.8621 212.773 23.8277 212.617 23.7762C212.502 23.7455 212.413 23.7269 212.297 23.7045L212.11 23.6815C211.988 23.6695 211.849 23.6634 211.694 23.6634H194.992C194.766 23.6584 194.55 23.6509 194.324 23.6399C194.104 23.6204 193.902 23.5983 193.683 23.5707C193.585 23.5567 193.482 23.5388 193.374 23.5183C193.257 23.4959 193.153 23.4738 193.065 23.4532L192.765 23.375C192.673 23.3494 192.576 23.3193 192.473 23.2852C192.383 23.255 192.294 23.222 192.207 23.1874L192.175 23.1754C192.101 23.1448 192.018 23.1071 191.928 23.0633L191.885 23.0441C191.813 23.009 191.733 22.9652 191.644 22.9143L191.61 22.8956C191.53 22.8488 191.444 22.7934 191.353 22.7301C191.267 22.6706 191.184 22.6083 191.105 22.5447C191.022 22.4767 190.944 22.4084 190.873 22.3411C190.805 22.2762 190.734 22.2023 190.661 22.1207C190.586 22.0371 190.521 21.9582 190.466 21.8861C190.402 21.8033 190.341 21.7136 190.282 21.6182C190.222 21.5203 190.169 21.4247 190.123 21.3318C190.078 21.2394 190.033 21.1365 189.99 21.024C189.951 20.9191 189.915 20.8112 189.884 20.7018C189.857 20.6055 189.83 20.4955 189.805 20.3725C189.783 20.2602 189.764 20.1478 189.749 20.0371C189.734 19.9164 189.723 19.7991 189.716 19.686C189.708 19.5529 189.704 19.4297 189.704 19.3183C189.704 19.2066 189.708 19.0836 189.716 18.9505C189.723 18.8373 189.734 18.72 189.749 18.5997C189.763 18.4898 189.782 18.378 189.805 18.2667C189.831 18.139 189.857 18.0283 189.884 17.9367C189.912 17.8377 189.945 17.7405 189.98 17.6463L189.991 17.6153C190.029 17.5159 190.074 17.4139 190.125 17.3108C190.176 17.2094 190.227 17.118 190.277 17.0367C190.335 16.9437 190.395 16.8565 190.456 16.7762L190.472 16.7561C190.538 16.6716 190.604 16.5936 190.668 16.5236C190.733 16.4523 190.805 16.3798 190.883 16.3077C190.958 16.2378 191.035 16.1709 191.115 16.1079C191.189 16.0491 191.272 15.9885 191.364 15.9266C191.461 15.8615 191.548 15.8063 191.623 15.7636C191.721 15.7105 191.812 15.6621 191.895 15.6221C191.98 15.5817 192.07 15.5421 192.164 15.5044C192.236 15.4759 192.319 15.4456 192.412 15.4141C192.532 15.3715 192.657 15.3384 192.779 15.302L193.079 15.2295L193.384 15.1675C193.599 15.1318 193.792 15.1049 194.009 15.0787L194.33 15.0505C194.552 15.0355 194.773 15.0277 194.992 15.0277H215.959C216.276 15.0277 216.534 15.2833 216.534 15.5982V18.1696C216.534 18.4846 216.276 18.7401 215.959 18.7401H194.745C194.605 18.7401 194.482 18.7459 194.377 18.7568C194.267 18.7679 194.166 18.7848 194.076 18.8067C193.885 18.8594 193.778 18.9021 193.615 19.0143L193.578 19.0468C193.532 19.1008 193.529 19.109 193.508 19.1791L193.498 19.2464L193.496 19.3183C193.496 19.3664 193.5 19.4085 193.508 19.4424C193.514 19.4715 193.525 19.5002 193.541 19.5298C193.555 19.5572 193.572 19.5816 193.591 19.6019C193.614 19.6268 193.643 19.6508 193.677 19.6729L193.758 19.7208C193.828 19.7541 193.885 19.776 193.958 19.8036C194.054 19.832 194.123 19.8468 194.222 19.8669L194.381 19.889L194.558 19.903L194.745 19.9062H211.496C211.727 19.9062 211.959 19.9148 212.191 19.9318C212.406 19.9476 212.628 19.9736 212.856 20.009C213.081 20.0441 213.295 20.0866 213.496 20.1359C213.698 20.1854 213.904 20.2461 214.11 20.3165C214.23 20.358 214.335 20.3972 214.422 20.4333C214.513 20.4706 214.614 20.5172 214.723 20.5712C214.83 20.6246 214.925 20.6756 215.006 20.7227C215.077 20.7643 215.153 20.813 215.234 20.8676L215.274 20.8933C215.352 20.9471 215.437 21.0113 215.528 21.0847C215.614 21.1535 215.694 21.2238 215.769 21.2939C215.83 21.3519 215.895 21.4177 215.963 21.4903L215.993 21.5215C216.058 21.5922 216.128 21.6741 216.2 21.766C216.271 21.8562 216.337 21.9498 216.398 22.0445C216.46 22.1429 216.517 22.2427 216.568 22.3429C216.621 22.4476 216.67 22.5549 216.712 22.6629C216.752 22.7645 216.791 22.8772 216.826 22.9975C216.859 23.1114 216.888 23.2253 216.912 23.3377C216.935 23.4498 216.956 23.5685 216.972 23.6921C216.989 23.8164 217.001 23.9389 217.008 24.0578C217.017 24.1944 217.021 24.3225 217.021 24.4414C217.021 24.5596 217.017 24.6869 217.008 24.8223C217.001 24.9409 216.989 25.0625 216.972 25.1858C216.956 25.3087 216.935 25.4256 216.912 25.5361C216.887 25.6539 216.858 25.7682 216.826 25.8768C216.792 25.9923 216.753 26.1032 216.712 26.2079C216.669 26.3159 216.621 26.4217 216.568 26.5248C216.513 26.6324 216.456 26.7327 216.398 26.8236C216.337 26.9172 216.271 27.0103 216.2 27.1003C216.067 27.2694 215.923 27.4255 215.772 27.5666C215.619 27.7094 215.453 27.8417 215.277 27.9622C215.095 28.0858 214.907 28.1947 214.716 28.2876C214.533 28.3761 214.336 28.4556 214.127 28.5248L213.791 28.6285L213.481 28.709C213.388 28.7309 213.281 28.7538 213.16 28.7768L212.844 28.8313L212.511 28.8733C212.397 28.8857 212.287 28.8962 212.18 28.9034C211.949 28.9149 211.728 28.9228 211.496 28.9282H190.773C190.455 28.9282 190.197 28.6726 190.197 28.3577Z" fill="black"/>
<path d="M36.775 36.4413C36.775 35.8628 36.9029 35.3464 37.1577 34.8931C37.2859 34.6657 37.4413 34.4623 37.623 34.284C37.8048 34.1059 38.0135 33.9524 38.2479 33.8247C38.4808 33.6976 38.7327 33.6013 39.0018 33.5374C39.2695 33.4734 39.5531 33.4415 39.8509 33.4415C40.3014 33.4415 40.7121 33.5114 41.0813 33.6513C41.452 33.7917 41.7815 34.0034 42.068 34.2844C42.3543 34.5654 42.5693 34.8868 42.7127 35.2478C42.8554 35.607 42.927 36.0052 42.927 36.4413C42.927 36.9198 42.8471 37.3508 42.6874 37.7342C42.5272 38.1196 42.2863 38.4555 41.9667 38.7408C41.3967 39.2414 40.6912 39.4918 39.8509 39.4918C39.3975 39.4918 38.9852 39.4215 38.6155 39.2808C38.2437 39.1399 37.9147 38.9272 37.6297 38.6444C37.3449 38.3624 37.1306 38.0359 36.9877 37.6668C36.8459 37.3002 36.775 36.8911 36.775 36.4413ZM39.8173 39.9998C40.9147 39.9998 41.8041 39.6711 42.4856 39.0142C42.8256 38.6867 43.0807 38.3088 43.2509 37.8811C43.4213 37.4526 43.5066 36.9724 43.5066 36.4413C43.5066 35.9214 43.4213 35.4503 43.2513 35.0294C43.0815 34.6095 42.8259 34.236 42.4861 33.911C42.1463 33.5862 41.7538 33.3418 41.3108 33.1789C40.8657 33.0152 40.3674 32.9334 39.8173 32.9334C38.7257 32.9334 37.837 33.2609 37.1528 33.9151C36.8117 34.2413 36.5551 34.6151 36.3846 35.0344C36.2138 35.4548 36.1279 35.9243 36.1279 36.4413C36.1279 36.9758 36.2144 37.458 36.3865 37.8875C36.5585 38.3156 36.8168 38.694 37.1611 39.0221C37.5028 39.3476 37.8947 39.5922 38.3356 39.7548C38.7778 39.918 39.272 39.9998 39.8173 39.9998ZM39.1339 37.0301H39.8737L40.751 38.3016H41.4587L40.5458 36.955L40.697 36.9033C40.7691 36.8787 40.8371 36.8463 40.901 36.8066C40.9637 36.7676 41.0237 36.7197 41.0794 36.6643C41.1909 36.5538 41.2733 36.4284 41.326 36.2894C41.3529 36.2182 41.3732 36.1454 41.3865 36.0728C41.3996 36.001 41.4062 35.9257 41.4062 35.8477C41.4062 35.5713 41.3446 35.343 41.2212 35.1635C41.0993 34.9858 40.9132 34.8506 40.6646 34.7591C40.5613 34.7254 40.4521 34.6994 40.339 34.6825C40.2249 34.6657 40.1041 34.6567 39.9777 34.6567L38.3549 34.6639V38.3016H39.0103V37.0301H39.1339ZM39.8419 35.215L39.9679 35.2209L40.0875 35.2387L40.1989 35.2686L40.3027 35.312C40.3343 35.3274 40.3656 35.3461 40.3956 35.3662C40.4255 35.3859 40.4535 35.4085 40.479 35.432C40.5329 35.4817 40.5769 35.5426 40.6087 35.6137C40.6248 35.6495 40.6376 35.6867 40.6456 35.7234C40.6534 35.7627 40.6579 35.8014 40.6579 35.8391C40.6579 35.9324 40.6384 36.0193 40.5998 36.0982C40.5613 36.1768 40.5047 36.2464 40.4306 36.3061C40.3586 36.3648 40.2761 36.4085 40.185 36.4377C40.0953 36.4659 39.998 36.4802 39.8932 36.4802L39.0121 36.4894L39.0015 35.225L39.8419 35.215Z" fill="black"/>
</g>
<defs>
<linearGradient id="paint0_linear_7711_7480" x1="0.000244141" y1="19.9996" x2="70.5935" y2="19.9996" gradientUnits="userSpaceOnUse">
<stop stop-color="#2563EB"/>
<stop offset="1" stop-color="#9333EA"/>
</linearGradient>
<clipPath id="clip0_7711_7480">
<rect width="217.021" height="40" fill="white"/>
</clipPath>
</defs>
</svg>
