<svg width="207" height="39" viewBox="0 0 207 39" fill="none" xmlns="http://www.w3.org/2000/svg">
<g clip-path="url(#clip0_1059_1572)">
<path d="M22.6004 38.0007L0.104806 11.8172C-0.0302611 11.6599 -0.0371611 11.4242 0.0998039 11.2593L9.29457 0.187275C9.37375 0.0738625 9.50588 -0.000377655 9.65527 -0.000377655H36.2123C36.3512 0.00116189 36.4876 0.0665069 36.5723 0.188473L41.4106 7.13437C41.5233 7.28354 41.53 7.49394 41.4132 7.65183C41.2704 7.84513 40.9961 7.88687 40.8012 7.74523L35.8066 4.12508C35.7857 4.11003 35.7607 4.10302 35.7371 4.1037C35.714 4.10438 35.6902 4.11345 35.671 4.12953L31.3989 7.22213C31.2628 7.32802 31.0701 7.34769 30.9109 7.2572C30.7018 7.13814 30.6295 6.87282 30.7496 6.66533L32.5388 3.5753C32.5538 3.54964 32.5565 3.51936 32.5493 3.49233C32.5433 3.46924 32.5291 3.4482 32.5098 3.43383L32.4734 3.41792L32.3994 3.41245H13.4513C13.4199 3.41245 13.3925 3.42425 13.3739 3.44272L13.372 3.44443C13.3533 3.46291 13.3416 3.49011 13.3416 3.52124C13.343 3.55306 13.3461 3.55391 13.3597 3.58351L15.1472 6.66533C15.2301 6.80936 15.226 6.99411 15.1213 7.13643C14.9793 7.32973 14.7057 7.37232 14.511 7.23154L10.4569 4.29683C10.4338 4.28023 10.4058 4.27408 10.3787 4.27733C10.3518 4.28058 10.3261 4.29392 10.308 4.31564L4.40006 11.4302C4.3835 11.4504 4.37487 11.4759 4.37504 11.5005C4.37539 11.5246 4.38453 11.5496 4.40144 11.5695L22.8655 33.0608C22.8845 33.0827 22.9122 33.0955 22.9405 33.0977C22.9688 33.0994 22.998 33.0912 23.0197 33.0728L33.0934 24.311C33.2488 24.1595 33.4977 24.1434 33.6728 24.2813C33.8622 24.4303 33.8936 24.704 33.7433 24.8918L23.276 37.9887C23.2588 38.0099 23.2395 38.0301 23.2177 38.0484C23.034 38.2042 22.7575 38.1828 22.6004 38.0007ZM21.1362 13.5955C21.1412 13.5291 21.1498 13.461 21.1612 13.3924L21.176 13.3138H9.27232C8.96941 13.3138 8.7236 13.07 8.7236 12.7696V10.2708C8.7236 9.97038 8.96941 9.72662 9.27232 9.72662H36.625C36.9277 9.72662 37.1735 9.97038 37.1735 10.2708V12.7696C37.1735 13.07 36.9277 13.3138 36.625 13.3138H24.788V27.048C24.788 27.3484 24.5422 27.5922 24.2395 27.5922H21.6763C21.3734 27.5922 21.1276 27.3484 21.1276 27.048V13.8006C21.1276 13.7356 21.1307 13.6667 21.1362 13.5955ZM47.2332 27.5739C47.0243 27.5627 46.8233 27.5461 46.6319 27.5246C46.4242 27.5013 46.2275 27.4734 46.0433 27.4415C45.876 27.4125 45.6928 27.3741 45.4949 27.3275L45.4708 27.3222C45.2753 27.2754 45.0907 27.2247 44.9177 27.1712C44.7366 27.1147 44.5574 27.0521 44.3802 26.9834C44.2053 26.9156 44.0326 26.8414 43.8631 26.7615C43.7064 26.6879 43.5503 26.6077 43.3954 26.5215L43.3682 26.5073C43.2084 26.4182 43.0492 26.3212 42.8917 26.2179C42.7404 26.1186 42.5902 26.0117 42.4423 25.8987C42.2923 25.7837 42.151 25.667 42.0199 25.5504C41.8874 25.4322 41.7556 25.3054 41.6262 25.1717C41.4945 25.0357 41.3713 24.8992 41.2581 24.7635C41.1472 24.6285 41.0416 24.4939 40.9438 24.3596L40.9204 24.3295C40.829 24.2031 40.7334 24.0601 40.6347 23.9027L40.6087 23.8644C40.516 23.7149 40.4219 23.5505 40.3277 23.373C40.2362 23.201 40.1521 23.029 40.0762 22.8581C40.0013 22.6894 39.9292 22.5105 39.8607 22.3225C39.789 22.1222 39.7263 21.9337 39.6754 21.7575C39.6194 21.5642 39.5697 21.3702 39.5266 21.1765C39.4869 20.9971 39.4488 20.7966 39.4129 20.5732C39.38 20.3688 39.3524 20.1623 39.3311 19.9555C39.3096 19.7487 39.293 19.535 39.2823 19.3169C39.2708 19.0814 39.2645 18.8616 39.2645 18.6594C39.2645 18.457 39.2708 18.2369 39.2823 18.0018C39.293 17.7837 39.3096 17.5702 39.3311 17.3634C39.3524 17.1568 39.38 16.9502 39.4129 16.7454C39.449 16.5225 39.4871 16.3205 39.5266 16.1422C39.5757 15.9294 39.6252 15.7355 39.6754 15.5618C39.7241 15.3933 39.7834 15.2137 39.851 15.0252L39.8607 14.9966C39.9292 14.8085 40.0011 14.6296 40.076 14.4614C40.1519 14.2903 40.2362 14.1179 40.3277 13.9458C40.4162 13.7789 40.5102 13.616 40.608 13.4578L40.6102 13.4556C40.7111 13.2932 40.815 13.1381 40.9205 12.9913C41.0171 12.8574 41.1213 12.7227 41.2323 12.589L41.2588 12.5546C41.3718 12.4195 41.4946 12.2829 41.6262 12.1473C41.7556 12.0135 41.8871 11.8869 42.0195 11.7691C42.1505 11.6524 42.2921 11.5356 42.4423 11.4201C42.5917 11.3057 42.7422 11.1984 42.8934 11.0989C43.0506 10.9955 43.2088 10.8991 43.3671 10.8108C43.5391 10.7167 43.7044 10.631 43.8622 10.5568C44.0314 10.4771 44.2043 10.4032 44.3787 10.3354C44.5565 10.2667 44.7364 10.2037 44.9172 10.1476C45.0902 10.0941 45.275 10.0433 45.4706 9.99656C45.679 9.94763 45.8697 9.90726 46.0433 9.87733C46.2275 9.84534 46.4242 9.81746 46.6319 9.79419C46.8206 9.77298 47.0186 9.75639 47.2244 9.74544L47.2332 9.74475C47.4531 9.73278 47.6603 9.72662 47.8544 9.72662H66.3203C66.6232 9.72662 66.869 9.97038 66.869 10.2708V12.7696C66.869 13.07 66.6232 13.3138 66.3203 13.3138H47.8544C47.6981 13.3138 47.5609 13.3168 47.4457 13.3228C47.3184 13.3297 47.1882 13.3403 47.0559 13.3548C46.9365 13.3675 46.8133 13.3853 46.6874 13.4068C46.5599 13.4289 46.4435 13.4525 46.3402 13.4776C46.2254 13.5055 46.1169 13.5355 46.016 13.5674C45.9194 13.5979 45.8173 13.635 45.7107 13.6774C45.615 13.7154 45.5263 13.7542 45.4449 13.7929L45.4195 13.8062C45.3274 13.8512 45.2343 13.9015 45.1415 13.9559C45.058 14.005 44.971 14.0611 44.882 14.1225C44.8015 14.1761 44.7193 14.2375 44.6374 14.3035C44.5644 14.3624 44.4984 14.4186 44.4397 14.4725L44.4149 14.4975C44.344 14.5639 44.2731 14.6359 44.2029 14.7125C44.1458 14.7731 44.0885 14.8401 44.0311 14.9128L44.0093 14.9424C43.9419 15.0283 43.8812 15.1114 43.8287 15.1898L43.8265 15.192C43.7708 15.275 43.7159 15.3637 43.6624 15.457C43.6119 15.5458 43.5653 15.6325 43.5237 15.7165L43.5113 15.7444C43.4622 15.8456 43.4165 15.9479 43.3751 16.0497C43.3368 16.1439 43.2976 16.251 43.2579 16.3701C43.2191 16.4871 43.1856 16.5983 43.1577 16.7031C43.1239 16.8309 43.0956 16.9498 43.0732 17.0589C43.0521 17.1633 43.0306 17.2871 43.0095 17.431C42.9885 17.5749 42.9723 17.7056 42.9616 17.822C42.9374 18.08 42.925 18.3599 42.925 18.6594C42.925 18.827 42.9279 18.9687 42.9331 19.0852C42.9398 19.2316 42.9495 19.3713 42.9616 19.5027C42.9723 19.6199 42.9885 19.7513 43.0095 19.896C43.0306 20.0398 43.0521 20.1651 43.0733 20.2699C43.0954 20.3773 43.1232 20.4949 43.1568 20.6216C43.1848 20.7273 43.2189 20.8397 43.2579 20.9576C43.2979 21.0784 43.3376 21.187 43.3761 21.2821C43.4215 21.3943 43.4677 21.4986 43.5136 21.5932C43.5584 21.6866 43.6095 21.7826 43.6647 21.8798C43.7104 21.9597 43.757 22.0353 43.8039 22.1068L43.8289 22.1408C43.8881 22.2291 43.9488 22.3126 44.0093 22.39C44.0642 22.4624 44.1297 22.5392 44.2039 22.6201C44.2727 22.6952 44.3414 22.7648 44.4092 22.8285L44.4147 22.8334C44.4891 22.9032 44.5648 22.9691 44.641 23.0305C44.7185 23.0926 44.799 23.1528 44.8817 23.2096C44.9677 23.2684 45.0538 23.3233 45.1378 23.3721C45.2132 23.4159 45.3058 23.4645 45.4131 23.5161C45.5059 23.5611 45.5941 23.6006 45.6762 23.6342L45.7057 23.6446C45.8092 23.6851 45.9111 23.7212 46.0098 23.7519C46.1247 23.7876 46.2351 23.8182 46.3402 23.8434C46.439 23.8673 46.5551 23.8908 46.689 23.9133C46.8138 23.9345 46.9365 23.952 47.0547 23.9645C47.1847 23.9787 47.3158 23.9895 47.4461 23.996C47.5613 24.0019 47.6982 24.005 47.8544 24.005H60.1407L60.4826 24.0025L60.8188 23.9883L61.1193 23.9676C61.3107 23.9477 61.4889 23.9241 61.6794 23.8973L61.9207 23.8518L62.1474 23.7986L62.3632 23.7361L62.5343 23.6732C62.5912 23.6502 62.6423 23.6272 62.6871 23.6047C62.7321 23.5835 62.7792 23.5574 62.8313 23.5257C62.8782 23.4975 62.921 23.4689 62.9583 23.4414L63.0442 23.3738L63.1701 23.2542L63.2593 23.1468L63.3174 23.0685L63.3376 23.0331C63.3681 22.9836 63.394 22.9386 63.4133 22.8995C63.4382 22.8493 63.4603 22.7999 63.4789 22.7522L63.5351 22.5847L63.5845 22.4034C63.6012 22.33 63.615 22.2587 63.626 22.1896C63.6376 22.115 63.6479 22.0351 63.6559 21.9511C63.6712 21.7922 63.6792 21.6117 63.6792 21.4114V20.1781H50.7988C50.4959 20.1781 50.25 19.9343 50.25 19.6341V17.1352C50.25 16.8349 50.4959 16.5911 50.7988 16.5911H66.785C67.0879 16.5911 67.3337 16.8349 67.3337 17.1352V27.048C67.3337 27.3484 67.0879 27.5922 66.785 27.5922H64.2186C63.9157 27.5922 63.6698 27.3484 63.6698 27.048V26.9408C63.5551 26.9931 63.4473 27.0388 63.3299 27.0867L63.1341 27.1607C62.9974 27.2069 62.8676 27.2482 62.729 27.2901L62.5224 27.3439L62.3119 27.3924L62.0982 27.435C61.812 27.4805 61.5431 27.5066 61.2592 27.5437C60.8774 27.5716 60.5188 27.5737 60.1407 27.5922H47.8544C47.6603 27.5922 47.4531 27.586 47.2332 27.5739Z" fill="url(#paint0_linear_1059_1572)"/>
<path d="M157.962 27.0482V14.878C157.962 14.5776 158.208 14.3338 158.511 14.3338H161.018C161.29 14.3338 161.515 14.5297 161.559 14.7868L161.832 14.6725L162.142 14.5672L162.304 14.523L162.466 14.4833C162.635 14.4483 162.796 14.4252 162.966 14.3954C163.166 14.3713 163.394 14.3419 163.594 14.3419C163.716 14.3366 163.825 14.3338 163.919 14.3338H177.535C177.838 14.3338 178.084 14.5776 178.084 14.878V17.3306C178.084 17.631 177.838 17.8748 177.535 17.8748H163.919C163.675 17.8748 163.45 17.8878 163.246 17.9131C163.05 17.9358 162.873 17.9726 162.716 18.0202C162.657 18.0378 162.598 18.0587 162.539 18.0819L162.515 18.0924C162.454 18.1177 162.395 18.1459 162.339 18.176C162.286 18.2049 162.237 18.2362 162.193 18.2686C162.151 18.2975 162.11 18.3315 162.07 18.3696C162.032 18.4069 161.992 18.4494 161.953 18.4961L161.873 18.598L161.854 18.6283C161.815 18.6866 161.785 18.7349 161.766 18.7713C161.743 18.8134 161.72 18.864 161.698 18.921C161.676 18.975 161.659 19.025 161.646 19.0703L161.64 19.0905C161.626 19.1428 161.613 19.2049 161.6 19.2751C161.59 19.3387 161.581 19.4066 161.575 19.4762C161.57 19.5433 161.567 19.6165 161.567 19.6947V27.0482C161.567 27.3486 161.321 27.5924 161.018 27.5924H158.511C158.208 27.5924 157.962 27.3486 157.962 27.0482Z" fill="black"/>
<path d="M111.875 27.5811C111.737 27.5747 111.6 27.5647 111.464 27.5515C111.312 27.5366 111.178 27.5205 111.066 27.5036C110.947 27.4855 110.814 27.4608 110.671 27.4314C110.543 27.4049 110.424 27.3768 110.314 27.3481L110.291 27.3423C110.174 27.3106 110.048 27.2723 109.919 27.2289C109.805 27.1905 109.686 27.1461 109.564 27.0961C109.452 27.0501 109.337 26.9983 109.219 26.9413C109.121 26.8939 109.025 26.8431 108.93 26.7904L108.889 26.7694C108.799 26.7181 108.702 26.658 108.598 26.5901L108.578 26.5775C108.48 26.5126 108.381 26.4418 108.283 26.3669C108.181 26.2894 108.089 26.214 108.007 26.1423C107.925 26.0696 107.839 25.9878 107.751 25.8982C107.664 25.8087 107.583 25.7201 107.51 25.6346C107.441 25.5521 107.366 25.457 107.289 25.3506C107.226 25.2639 107.165 25.1756 107.109 25.0856L107.09 25.0579C107.032 24.965 106.971 24.8592 106.909 24.7418C106.849 24.6279 106.797 24.5188 106.752 24.4158C106.701 24.2977 106.656 24.1835 106.619 24.0752C106.582 23.9681 106.546 23.8508 106.512 23.724C106.481 23.6043 106.453 23.4844 106.43 23.3656C106.406 23.2385 106.385 23.1147 106.37 22.996C106.356 22.882 106.345 22.7553 106.336 22.6176C106.328 22.4778 106.323 22.349 106.323 22.2313C106.323 18.5944 106.327 17.337 106.33 16.1975L106.328 16.1714L106.333 14.5312L106.333 11.6562C106.333 11.356 106.579 11.1122 106.882 11.1122H109.398C109.701 11.1122 109.947 11.356 109.947 11.6562V14.3841L110.034 14.3674C110.103 14.3561 110.171 14.3473 110.236 14.3424C110.306 14.3369 110.376 14.3338 110.441 14.3338H125.423C125.726 14.3338 125.972 14.5776 125.972 14.878V17.3306C125.972 17.631 125.726 17.8748 125.423 17.8748H109.947V22.2313C109.947 22.3095 109.95 22.3829 109.955 22.45C109.961 22.5196 109.969 22.5875 109.98 22.6511C109.993 22.7211 110.006 22.783 110.02 22.8352C110.034 22.887 110.054 22.9436 110.078 23.0052C110.093 23.0459 110.111 23.0866 110.133 23.1282L110.148 23.1549C110.172 23.2011 110.201 23.2491 110.234 23.2974C110.26 23.3389 110.294 23.3836 110.333 23.4305C110.372 23.4768 110.412 23.5192 110.451 23.5565C110.482 23.587 110.515 23.615 110.547 23.64L110.573 23.6578C110.617 23.6896 110.667 23.7208 110.721 23.7502C110.765 23.7767 110.824 23.8041 110.895 23.8335C110.966 23.8629 111.033 23.8874 111.096 23.906C111.171 23.9289 111.256 23.95 111.349 23.9691C111.429 23.9857 111.524 24.0006 111.63 24.0138C111.741 24.0273 111.848 24.0372 111.95 24.0432C112.046 24.0485 112.163 24.0514 112.299 24.0514H125.897C126.2 24.0514 126.445 24.2952 126.445 24.5956V27.0482C126.445 27.3486 126.2 27.5924 125.897 27.5924H112.299C112.178 27.5924 112.036 27.5884 111.875 27.5811Z" fill="black"/>
<path d="M73.1681 27.0482V24.5494C73.1681 24.249 73.414 24.0052 73.7167 24.0052H97.5562C97.7403 24.0052 97.9098 23.9939 98.0642 23.9719C98.2134 23.9503 98.3554 23.9175 98.4877 23.8742C98.5538 23.8535 98.6122 23.8314 98.6635 23.8087C98.7145 23.7863 98.7616 23.763 98.8049 23.7392L98.8298 23.7245C98.8782 23.697 98.9234 23.6688 98.9648 23.64L98.9826 23.627C99.0252 23.5967 99.0714 23.5598 99.1196 23.517L99.2129 23.4272L99.2329 23.4033C99.2733 23.3576 99.3062 23.3162 99.3307 23.2801C99.3543 23.2459 99.378 23.2062 99.4021 23.1621L99.4144 23.1368C99.4409 23.0861 99.4644 23.0345 99.4844 22.9828C99.5096 22.9173 99.5301 22.855 99.5453 22.797C99.5632 22.7288 99.5788 22.6564 99.5907 22.5818C99.6017 22.5138 99.6109 22.4334 99.6176 22.3439C99.6236 22.2664 99.6267 22.1805 99.6267 22.0871C99.6267 21.9939 99.6236 21.9082 99.6176 21.8309C99.6109 21.7414 99.6017 21.6615 99.5907 21.5935C99.5786 21.519 99.5634 21.447 99.5456 21.3795C99.5308 21.3223 99.5099 21.2601 99.4849 21.1945C99.4627 21.1367 99.439 21.0837 99.4145 21.0372C99.3902 20.9905 99.3619 20.9441 99.3314 20.8995C99.3033 20.8587 99.2707 20.8172 99.2336 20.7753C99.1936 20.7301 99.1563 20.6925 99.1232 20.6634C99.0813 20.6266 99.034 20.5897 98.9833 20.5537C98.9348 20.5194 98.8838 20.487 98.8315 20.4578C98.7856 20.4321 98.7387 20.408 98.6914 20.3865L98.6656 20.376C98.6069 20.3505 98.5486 20.3281 98.491 20.3096L98.4889 20.3074C98.4322 20.2886 98.3633 20.27 98.2845 20.2518C98.2172 20.2364 98.1489 20.2234 98.0803 20.2137L98.0634 20.2115C97.9831 20.2003 97.9014 20.1916 97.8187 20.186C97.7435 20.181 97.6557 20.1783 97.5562 20.1783H78.4841C78.3706 20.1783 78.2383 20.1747 78.0873 20.1675C77.9578 20.1613 77.8291 20.1516 77.7021 20.1391C77.5943 20.1287 77.4834 20.1146 77.3709 20.098L77.3273 20.0933C77.2204 20.0772 77.1017 20.0551 76.9735 20.0288L76.9507 20.0245C76.8188 19.9968 76.6972 19.9679 76.5878 19.9384C76.4853 19.9111 76.3672 19.8745 76.2364 19.831C76.1315 19.796 76.0279 19.758 75.9261 19.7176L75.894 19.7058C75.7874 19.6629 75.6761 19.6136 75.5609 19.5585C75.4653 19.5128 75.3687 19.4629 75.272 19.4094L75.2444 19.395C75.1386 19.336 75.0356 19.2737 74.9371 19.2097C74.84 19.1469 74.7433 19.0792 74.6482 19.008C74.562 18.9434 74.4716 18.8698 74.3779 18.7889C74.2887 18.7116 74.2042 18.6331 74.1252 18.5542C74.0429 18.4719 73.9637 18.3869 73.8882 18.2999C73.8149 18.215 73.7417 18.1242 73.6703 18.0284C73.6108 17.9487 73.5514 17.8638 73.4931 17.7747L73.473 17.7455C73.4093 17.6474 73.3479 17.5451 73.2903 17.4399C73.2299 17.3277 73.1773 17.2225 73.1336 17.125C73.0862 17.0184 73.0414 16.9073 73.0007 16.793C72.9605 16.6801 72.9244 16.5651 72.8935 16.4502C72.8608 16.3301 72.833 16.2133 72.8104 16.1005C72.7904 16.0003 72.7714 15.8812 72.7541 15.7459C72.7379 15.6195 72.726 15.4967 72.719 15.3785C72.7109 15.2418 72.7065 15.1144 72.7065 14.9987C72.7065 14.8836 72.7109 14.7567 72.719 14.6198C72.7274 14.484 72.7386 14.361 72.7521 14.2521C72.7657 14.1434 72.7843 14.0302 72.8068 13.9144L72.8106 13.8928C72.834 13.7751 72.862 13.6568 72.8935 13.5394C72.9232 13.4299 72.9596 13.3148 73.0013 13.1959C73.041 13.0827 73.0852 12.9713 73.1328 12.8629C73.1814 12.752 73.2335 12.6453 73.2875 12.5438C73.3419 12.4417 73.4027 12.3382 73.469 12.2335C73.5354 12.1275 73.6001 12.0315 73.6617 11.9474C73.7303 11.8533 73.8035 11.7604 73.8795 11.6697C73.9516 11.5842 74.0305 11.4976 74.1145 11.4113C74.1994 11.324 74.2844 11.2423 74.3677 11.1682C74.4384 11.1051 74.519 11.0377 74.6078 10.9679L74.6377 10.9429C74.7086 10.8878 74.7924 10.8273 74.8875 10.7624L74.9239 10.7359C75.0023 10.6834 75.0946 10.6258 75.2004 10.5637L75.2281 10.5467C75.3227 10.4922 75.4201 10.4393 75.5195 10.389L75.5483 10.3738C75.6358 10.3307 75.7391 10.2836 75.856 10.2337L75.884 10.2212C76.0006 10.1718 76.1157 10.1273 76.2276 10.0879C76.3396 10.0489 76.4576 10.0118 76.5811 9.97709C76.678 9.94989 76.7862 9.92286 76.904 9.89669L76.9464 9.88574C77.0549 9.86231 77.1795 9.83922 77.3195 9.81681C77.4467 9.79645 77.5728 9.78003 77.6965 9.76737C77.8217 9.75454 77.9519 9.74445 78.0856 9.73812C78.2359 9.73076 78.369 9.72683 78.4841 9.72683H102.277C102.58 9.72683 102.826 9.97059 102.826 10.271V12.7698C102.826 13.0702 102.58 13.314 102.277 13.314H78.4841L78.2719 13.3172L78.0651 13.3311C77.9386 13.347 77.8319 13.3634 77.7066 13.3858L77.559 13.4221L77.4218 13.4647C77.3466 13.4939 77.2866 13.5197 77.214 13.5536C77.1267 13.606 77.0578 13.6463 76.974 13.7042L76.8829 13.7763L76.8027 13.8496C76.7299 13.925 76.6773 13.9905 76.6181 14.0764C76.482 14.3131 76.4203 14.5088 76.3792 14.7765L76.3689 14.8891V15.1039L76.3791 15.2076C76.3951 15.3161 76.412 15.3905 76.4419 15.4984L76.4765 15.5964C76.6144 15.9266 76.7527 16.0703 77.0525 16.262C77.1303 16.3067 77.1936 16.3373 77.2752 16.3758L77.4068 16.4242C77.51 16.4558 77.5911 16.4757 77.6968 16.4998L77.6965 16.502L77.8693 16.5297L78.0556 16.5497L78.2629 16.5641L78.4841 16.5667H97.5562C97.6685 16.5667 97.7977 16.5706 97.9433 16.578C98.0727 16.5845 98.1991 16.5946 98.3206 16.6072C98.4377 16.6192 98.5562 16.6353 98.6743 16.6537L98.693 16.6563C98.8274 16.678 98.9493 16.7011 99.058 16.7247L99.0602 16.7266C99.196 16.7564 99.3152 16.7861 99.4166 16.8147C99.5313 16.8474 99.6486 16.8847 99.767 16.9261C99.8786 16.9652 99.9928 17.0094 100.108 17.058C100.218 17.105 100.327 17.155 100.434 17.2085C100.532 17.2572 100.627 17.3082 100.719 17.3607L100.752 17.3787C100.855 17.4387 100.957 17.5031 101.056 17.5705L101.058 17.5727C101.16 17.6423 101.255 17.7121 101.343 17.7814C101.435 17.8542 101.526 17.9316 101.615 18.0121C101.691 18.0811 101.775 18.1647 101.867 18.2615C101.955 18.3529 102.034 18.4415 102.104 18.5262C102.18 18.6187 102.253 18.7121 102.319 18.8052C102.386 18.8984 102.453 18.9992 102.521 19.1062L102.523 19.1105C102.597 19.2318 102.658 19.3392 102.705 19.4319C102.762 19.5452 102.815 19.657 102.862 19.7689C102.904 19.8697 102.948 19.987 102.993 20.1198C103.039 20.2564 103.075 20.3765 103.101 20.4798C103.132 20.6064 103.159 20.7303 103.182 20.8504C103.206 20.9764 103.225 21.0977 103.239 21.2128L103.241 21.2294C103.255 21.3493 103.266 21.4814 103.275 21.6236C103.283 21.7702 103.287 21.905 103.287 22.0257C103.287 22.1456 103.283 22.2791 103.275 22.4251C103.266 22.5668 103.255 22.6983 103.241 22.8179C103.227 22.937 103.207 23.0641 103.182 23.197C103.156 23.3379 103.129 23.4628 103.101 23.569C103.077 23.6633 103.045 23.7716 103.005 23.894L102.995 23.9289C102.957 24.0434 102.912 24.1609 102.863 24.28C102.82 24.3826 102.772 24.4869 102.72 24.592L102.705 24.624C102.655 24.7237 102.599 24.8248 102.539 24.9255L102.527 24.9466C102.471 25.0393 102.41 25.1346 102.343 25.2316L102.33 25.2516C102.268 25.3414 102.194 25.4394 102.112 25.5434C102.038 25.6356 101.959 25.7268 101.878 25.8152C101.79 25.911 101.705 25.9969 101.626 26.072C101.535 26.1584 101.445 26.2377 101.358 26.3091C101.265 26.3859 101.17 26.4587 101.074 26.5267C100.966 26.6016 100.865 26.6688 100.772 26.7265C100.662 26.794 100.556 26.8548 100.454 26.9085C100.335 26.9692 100.224 27.0244 100.122 27.0701C100.021 27.116 99.9075 27.1618 99.7833 27.2076C99.6562 27.255 99.5382 27.2954 99.4315 27.3272C99.2993 27.3654 99.178 27.3986 99.0702 27.4234C98.9507 27.4512 98.8274 27.4766 98.7016 27.4979C98.5833 27.518 98.4592 27.5356 98.33 27.5496C98.2096 27.5629 98.0816 27.5735 97.9467 27.5806C97.801 27.5883 97.6702 27.5924 97.5562 27.5924H73.7167C73.414 27.5924 73.1681 27.3486 73.1681 27.0482Z" fill="black"/>
<path d="M133.475 27.5838C133.372 27.5797 133.267 27.5724 133.161 27.5628C133.044 27.5523 132.941 27.5405 132.851 27.5284C132.75 27.5142 132.647 27.4974 132.542 27.4778C132.445 27.4598 132.344 27.4377 132.24 27.4129C132.126 27.3856 132.028 27.3592 131.944 27.3346C131.842 27.305 131.746 27.2738 131.657 27.2425C131.562 27.2092 131.467 27.1729 131.374 27.1344C131.299 27.1036 131.214 27.0652 131.122 27.0209L131.091 27.0068C130.998 26.961 130.906 26.9122 130.819 26.8619C130.725 26.8079 130.638 26.7542 130.56 26.7017C130.463 26.6346 130.381 26.5759 130.315 26.5246C130.229 26.456 130.152 26.392 130.086 26.3322C130.015 26.2677 129.942 26.197 129.87 26.1221C129.805 26.0542 129.738 25.9784 129.669 25.8958C129.602 25.8157 129.54 25.7353 129.482 25.6554C129.418 25.5653 129.359 25.4763 129.307 25.3894C129.258 25.3063 129.208 25.2126 129.158 25.1087C129.109 25.0073 129.066 24.9091 129.03 24.8152C128.991 24.7102 128.956 24.607 128.927 24.5076C128.903 24.4221 128.878 24.3249 128.855 24.2153L128.85 24.1943C128.829 24.0914 128.81 23.9838 128.795 23.8727C128.781 23.7649 128.77 23.6578 128.764 23.5518L128.763 23.5408C128.755 23.4175 128.751 23.3017 128.751 23.1958C128.751 23.0904 128.755 22.9749 128.763 22.8514C128.77 22.7442 128.781 22.6325 128.796 22.5185C128.811 22.4074 128.829 22.2996 128.851 22.1966C128.875 22.0815 128.901 21.9753 128.929 21.8791C128.959 21.7748 128.994 21.6718 129.031 21.5716C129.07 21.4717 129.112 21.3735 129.158 21.2784C129.206 21.1793 129.257 21.0857 129.31 20.9985C129.368 20.902 129.427 20.8134 129.486 20.7325C129.545 20.6514 129.608 20.5722 129.672 20.4966C129.745 20.4128 129.813 20.3386 129.876 20.2742C129.942 20.2065 130.016 20.1374 130.095 20.0678C130.176 19.9966 130.254 19.9321 130.329 19.8758C130.393 19.8274 130.465 19.7761 130.547 19.7224L130.576 19.7015C130.65 19.6531 130.738 19.6004 130.838 19.5442C130.937 19.4889 131.028 19.4413 131.109 19.4023C131.218 19.3517 131.315 19.3086 131.396 19.2759C131.492 19.2374 131.587 19.2017 131.68 19.1702L131.972 19.0794C132.086 19.0467 132.186 19.0202 132.272 19.0002C132.358 18.9807 132.461 18.9593 132.581 18.9376C132.697 18.9172 132.801 18.9005 132.896 18.888L133.212 18.8514C133.291 18.8445 133.397 18.838 133.53 18.8325L133.856 18.8242H150.203L150.163 18.7453C150.127 18.6798 150.081 18.6119 150.027 18.5431C149.972 18.474 149.912 18.409 149.848 18.3496C149.814 18.3163 149.773 18.2838 149.727 18.2521C149.685 18.2231 149.635 18.1931 149.578 18.1634C149.53 18.138 149.472 18.112 149.404 18.0857C149.344 18.0593 149.275 18.0363 149.2 18.0149C149.134 17.9957 149.054 17.9769 148.963 17.9588L148.944 17.9553C148.853 17.9374 148.763 17.9228 148.675 17.9122L148.659 17.9107C148.549 17.8975 148.441 17.8883 148.338 17.8826C148.242 17.8773 148.124 17.8748 147.985 17.8748H130.235C129.932 17.8748 129.686 17.631 129.686 17.3306V14.878C129.686 14.5776 129.932 14.3338 130.235 14.3338H147.985C148.102 14.3338 148.24 14.3378 148.398 14.3448L148.406 14.3449C148.54 14.3509 148.675 14.361 148.812 14.374C148.967 14.3891 149.1 14.405 149.208 14.4211C149.321 14.4378 149.452 14.4618 149.601 14.4921C149.729 14.5182 149.848 14.5458 149.958 14.5742L149.984 14.5805C150.079 14.6056 150.187 14.6378 150.306 14.6766L150.351 14.6893C150.469 14.7279 150.588 14.7717 150.707 14.8195C150.817 14.8638 150.933 14.9154 151.051 14.9719C151.149 15.0186 151.248 15.0699 151.346 15.124L151.378 15.1402C151.475 15.1936 151.579 15.2567 151.688 15.3267C151.787 15.3903 151.884 15.4572 151.977 15.5256L151.979 15.5278C152.08 15.6024 152.171 15.6749 152.253 15.7442C152.341 15.8188 152.428 15.8983 152.511 15.9801C152.593 16.0607 152.674 16.1454 152.751 16.2329C152.833 16.326 152.907 16.4158 152.972 16.501C153.037 16.5863 153.105 16.682 153.173 16.7865C153.236 16.8831 153.297 16.9841 153.354 17.0882C153.414 17.1967 153.467 17.3014 153.512 17.4003C153.558 17.5022 153.602 17.6103 153.644 17.7232C153.684 17.8349 153.721 17.9463 153.752 18.0564C153.783 18.1683 153.811 18.2826 153.835 18.3998C153.859 18.5152 153.879 18.6319 153.895 18.7484C153.91 18.865 153.922 18.9808 153.929 19.0946L153.93 19.1054C153.938 19.2357 153.943 19.358 153.943 19.4706V27.0482C153.943 27.3486 153.697 27.5924 153.394 27.5924H150.877C150.607 27.5924 150.382 27.3984 150.337 27.1433L150.072 27.2537L149.763 27.359L149.601 27.4032L149.438 27.4429C149.057 27.5229 148.7 27.5667 148.31 27.5843C148.188 27.5895 148.079 27.5924 147.985 27.5924H133.794L133.475 27.5838ZM148.659 24.014C148.854 23.9902 149.032 23.9534 149.189 23.906C149.248 23.8882 149.307 23.8675 149.366 23.8443L149.39 23.8338C149.451 23.8085 149.51 23.7803 149.565 23.7502C149.618 23.7213 149.668 23.6898 149.712 23.6576C149.754 23.6287 149.794 23.5945 149.834 23.5565C149.873 23.5191 149.912 23.4768 149.952 23.43C149.991 23.3833 150.025 23.3386 150.053 23.2977C150.086 23.2493 150.115 23.2018 150.139 23.1559C150.161 23.1133 150.184 23.0629 150.207 23.0052C150.231 22.944 150.25 22.8879 150.264 22.8381C150.277 22.7897 150.29 22.7329 150.301 22.6687L150.304 22.6511C150.315 22.5875 150.324 22.5196 150.329 22.45L150.335 22.3651H133.766L133.559 22.3692L133.371 22.3855C133.304 22.3926 133.246 22.4012 133.197 22.4101C133.153 22.418 133.102 22.4299 133.045 22.4453C132.908 22.486 132.831 22.5158 132.704 22.5822C132.681 22.5942 132.657 22.6095 132.633 22.626L132.553 22.6913L132.506 22.7394L132.462 22.7951C132.418 22.867 132.406 22.9122 132.386 22.9934C132.374 23.0524 132.368 23.1205 132.368 23.1958L132.371 23.3059C132.381 23.3744 132.39 23.4188 132.406 23.4862L132.421 23.5275L132.467 23.6161C132.515 23.6865 132.555 23.7225 132.62 23.7772L132.704 23.8347L132.801 23.8869C132.824 23.8999 132.86 23.9151 132.909 23.9334C132.932 23.9445 132.972 23.957 133.025 23.9722L133.127 24.0003C133.256 24.021 133.361 24.0347 133.492 24.0473L133.677 24.0514H147.985C148.23 24.0514 148.455 24.0384 148.659 24.014Z" fill="black"/>
<path d="M181.415 27.0482V24.5956C181.415 24.2952 181.66 24.0514 181.963 24.0514H201.919L202.121 24.0482L202.317 24.0345L202.496 24.0122L202.656 23.982L202.803 23.9442L202.931 23.9016C202.966 23.8894 203.005 23.873 203.048 23.8526L203.135 23.8101L203.221 23.756C203.238 23.7449 203.253 23.732 203.267 23.7182C203.3 23.6807 203.306 23.6742 203.329 23.6309L203.366 23.5175L203.38 23.4235L203.383 23.3128L203.379 23.2009L203.365 23.1067L203.354 23.0584C203.333 23.0032 203.33 22.9902 203.298 22.9414C203.29 22.9287 203.277 22.9154 203.262 22.9C203.225 22.8673 203.209 22.8574 203.166 22.8299C203.028 22.7603 202.948 22.7274 202.799 22.6783C202.69 22.6491 202.605 22.6313 202.494 22.6099L202.316 22.588C202.2 22.5765 202.067 22.5707 201.919 22.5707H185.988C185.772 22.5659 185.566 22.5587 185.351 22.5483C185.141 22.5297 184.948 22.5086 184.739 22.4823C184.646 22.4689 184.548 22.4518 184.445 22.4323C184.333 22.4109 184.234 22.3899 184.15 22.3702L183.864 22.2957C183.777 22.2712 183.683 22.2425 183.585 22.21C183.499 22.1812 183.414 22.1497 183.332 22.1167L183.301 22.1053C183.23 22.076 183.152 22.0401 183.066 21.9984L183.024 21.98C182.956 21.9465 182.879 21.9048 182.795 21.8562L182.762 21.8384C182.686 21.7938 182.604 21.7409 182.517 21.6805C182.435 21.6237 182.356 21.5644 182.281 21.5036C182.201 21.4388 182.127 21.3736 182.059 21.3095C181.995 21.2476 181.927 21.1771 181.857 21.0993C181.786 21.0195 181.723 20.9443 181.671 20.8755C181.61 20.7965 181.552 20.711 181.496 20.6199C181.438 20.5265 181.387 20.4354 181.344 20.3468C181.301 20.2587 181.258 20.1605 181.217 20.0532C181.179 19.9532 181.145 19.8502 181.116 19.7458C181.09 19.654 181.064 19.5491 181.041 19.4318C181.019 19.3247 181.001 19.2174 180.988 19.1119C180.973 18.9968 180.962 18.8849 180.955 18.7769C180.948 18.65 180.944 18.5325 180.944 18.4263C180.944 18.3197 180.948 18.2024 180.955 18.0754C180.962 17.9675 180.973 17.8556 180.988 17.7408C181.001 17.636 181.019 17.5294 181.041 17.4232C181.065 17.3014 181.091 17.1958 181.116 17.1084C181.143 17.014 181.174 16.9213 181.207 16.8315L181.218 16.8019C181.254 16.7071 181.297 16.6098 181.346 16.5114C181.395 16.4148 181.443 16.3275 181.491 16.25C181.546 16.1613 181.603 16.0781 181.661 16.0015L181.677 15.9823C181.74 15.9018 181.802 15.8274 181.863 15.7606C181.926 15.6926 181.995 15.6234 182.068 15.5547C182.14 15.488 182.214 15.4242 182.29 15.3641C182.36 15.308 182.44 15.2502 182.528 15.1912C182.62 15.1291 182.703 15.0764 182.775 15.0357C182.868 14.9851 182.955 14.9389 183.034 14.9007C183.116 14.8622 183.201 14.8244 183.291 14.7885C183.359 14.7613 183.438 14.7324 183.527 14.7023C183.642 14.6617 183.761 14.6301 183.877 14.5954L184.163 14.5263L184.454 14.4671C184.66 14.433 184.843 14.4074 185.05 14.3824L185.357 14.3556C185.568 14.3412 185.779 14.3338 185.988 14.3338H205.987C206.29 14.3338 206.535 14.5776 206.535 14.878V17.3306C206.535 17.631 206.29 17.8748 205.987 17.8748H185.752C185.619 17.8748 185.502 17.8802 185.402 17.8907C185.296 17.9013 185.201 17.9174 185.114 17.9382C184.932 17.9885 184.83 18.0292 184.675 18.1363L184.639 18.1673C184.595 18.2188 184.593 18.2266 184.572 18.2935L184.563 18.3577L184.561 18.4263C184.561 18.4721 184.565 18.5123 184.573 18.5446C184.578 18.5724 184.589 18.5997 184.604 18.628C184.618 18.6541 184.634 18.6774 184.652 18.6967C184.674 18.7205 184.702 18.7434 184.734 18.7645L184.811 18.8101C184.878 18.8419 184.932 18.8628 185.002 18.8892C185.093 18.9162 185.16 18.9304 185.254 18.9495L185.405 18.9706L185.575 18.9839L185.752 18.987H201.73C201.95 18.987 202.172 18.9952 202.393 19.0115C202.598 19.0265 202.81 19.0513 203.027 19.085C203.242 19.1186 203.446 19.1591 203.638 19.2061C203.831 19.2533 204.026 19.3112 204.223 19.3784C204.338 19.4179 204.438 19.4554 204.521 19.4898C204.607 19.5253 204.704 19.5698 204.808 19.6213C204.91 19.6723 205.001 19.7209 205.078 19.7658C205.145 19.8055 205.218 19.8519 205.295 19.9041L205.334 19.9285C205.408 19.9798 205.489 20.0411 205.576 20.111C205.657 20.1767 205.734 20.2438 205.805 20.3107C205.864 20.3659 205.926 20.4287 205.99 20.498L206.02 20.5277C206.082 20.5951 206.148 20.6733 206.217 20.7609C206.285 20.8469 206.348 20.9362 206.405 21.0266C206.465 21.1205 206.519 21.2156 206.568 21.3112C206.618 21.4111 206.665 21.5134 206.705 21.6164C206.744 21.7134 206.78 21.8208 206.814 21.9356C206.845 22.0442 206.873 22.1528 206.896 22.2601C206.918 22.367 206.937 22.4802 206.953 22.5981C206.969 22.7166 206.981 22.8335 206.988 22.9469C206.996 23.0772 207 23.1994 207 23.3128C207 23.4255 206.996 23.547 206.988 23.6761C206.981 23.7892 206.969 23.9052 206.953 24.0228C206.938 24.14 206.918 24.2516 206.896 24.3569C206.872 24.4693 206.845 24.5783 206.814 24.6819C206.781 24.7921 206.744 24.8978 206.705 24.9977C206.664 25.1007 206.618 25.2016 206.568 25.3C206.515 25.4026 206.461 25.4982 206.406 25.585C206.348 25.6743 206.284 25.763 206.217 25.8489C206.089 26.0102 205.953 26.159 205.808 26.2937C205.662 26.4298 205.504 26.5561 205.336 26.671C205.163 26.7889 204.984 26.8927 204.801 26.9813C204.626 27.0658 204.439 27.1416 204.24 27.2076L203.919 27.3065L203.623 27.3833C203.535 27.4042 203.433 27.4261 203.317 27.448L203.016 27.5L202.698 27.54C202.59 27.5518 202.484 27.5619 202.383 27.5688C202.162 27.5797 201.951 27.5872 201.73 27.5924H181.963C181.66 27.5924 181.415 27.3486 181.415 27.0482Z" fill="black"/>
<path d="M35.0769 34.7586C35.0769 34.2068 35.1989 33.7143 35.4419 33.2818C35.5642 33.0649 35.7124 32.8709 35.8858 32.7009C36.0591 32.531 36.2582 32.3846 36.4818 32.2628C36.7039 32.1415 36.9442 32.0497 37.2009 31.9888C37.4562 31.9277 37.7267 31.8973 38.0108 31.8973C38.4405 31.8973 38.8322 31.964 39.1843 32.0974C39.5379 32.2313 39.8522 32.4332 40.1255 32.7013C40.3985 32.9693 40.6036 33.2758 40.7404 33.6202C40.8765 33.9628 40.9449 34.3426 40.9449 34.7586C40.9449 35.215 40.8686 35.626 40.7163 35.9918C40.5635 36.3594 40.3337 36.6798 40.0289 36.9519C39.4852 37.4294 38.8122 37.6682 38.0108 37.6682C37.5783 37.6682 37.185 37.6011 36.8325 37.467C36.4778 37.3325 36.164 37.1297 35.8922 36.8599C35.6205 36.591 35.4161 36.2795 35.2798 35.9274C35.1445 35.5778 35.0769 35.1876 35.0769 34.7586ZM37.9787 38.1528C39.0254 38.1528 39.8738 37.8392 40.5238 37.2126C40.8481 36.9003 41.0915 36.5398 41.2538 36.1319C41.4163 35.7232 41.4977 35.2651 41.4977 34.7586C41.4977 34.2627 41.4163 33.8133 41.2541 33.4118C41.0922 33.0114 40.8484 32.6551 40.5243 32.3451C40.2002 32.0353 39.8258 31.8022 39.4032 31.6468C38.9787 31.4907 38.5035 31.4127 37.9787 31.4127C36.9375 31.4127 36.0898 31.725 35.4373 32.349C35.1119 32.6602 34.8672 33.0167 34.7045 33.4166C34.5417 33.8176 34.4597 34.2654 34.4597 34.7586C34.4597 35.2684 34.5422 35.7283 34.7064 36.138C34.8704 36.5463 35.1168 36.9073 35.4452 37.2202C35.7711 37.5306 36.1449 37.764 36.5654 37.9191C36.9872 38.0748 37.4586 38.1528 37.9787 38.1528ZM37.3268 35.3202H38.0325L38.8693 36.533H39.5443L38.6735 35.2485L38.8178 35.1992C38.8866 35.1758 38.9514 35.1448 39.0123 35.107C39.0722 35.0698 39.1295 35.0241 39.1826 34.9712C39.2889 34.8658 39.3675 34.7463 39.4177 34.6137C39.4434 34.5458 39.4627 34.4763 39.4755 34.4071C39.4879 34.3386 39.4943 34.2668 39.4943 34.1924C39.4943 33.9288 39.4355 33.711 39.3178 33.5398C39.2016 33.3703 39.0241 33.2413 38.7869 33.154C38.6884 33.1219 38.5842 33.0971 38.4764 33.081C38.3675 33.0649 38.2523 33.0564 38.1317 33.0564L36.5839 33.0632V36.533H37.209V35.3202H37.3268ZM38.0022 33.5889L38.1224 33.5945L38.2364 33.6115L38.3427 33.64L38.4417 33.6814C38.4719 33.6961 38.5017 33.7139 38.5304 33.7331C38.5588 33.7519 38.5856 33.7735 38.6099 33.7959C38.6613 33.8433 38.7032 33.9014 38.7336 33.9692C38.7489 34.0034 38.7612 34.0388 38.7688 34.0738C38.7762 34.1113 38.7805 34.1483 38.7805 34.1842C38.7805 34.2731 38.7619 34.3561 38.7251 34.4314C38.6884 34.5063 38.6344 34.5727 38.5637 34.6296C38.495 34.6856 38.4163 34.7273 38.3294 34.7552C38.2438 34.782 38.151 34.7957 38.0512 34.7957L37.2107 34.8044L37.2006 33.5985L38.0022 33.5889Z" fill="black"/>
</g>
<defs>
<linearGradient id="paint0_linear_1059_1572" x1="-7.36191e-05" y1="19.0761" x2="67.3337" y2="19.0761" gradientUnits="userSpaceOnUse">
<stop stop-color="#3C98D1"/>
<stop offset="0.501961" stop-color="#B446A5"/>
<stop offset="1" stop-color="#D1663A"/>
</linearGradient>
<clipPath id="clip0_1059_1572">
<rect width="207" height="38.1529" fill="white"/>
</clipPath>
</defs>
</svg>
