<svg width="22" height="16" viewBox="0 0 22 16" fill="none" xmlns="http://www.w3.org/2000/svg">
<path d="M21 0C21.5523 4.02663e-08 22 0.447715 22 1C22 1.55228 21.5523 2 21 2H1C0.447715 2 0 1.55228 0 1C0 0.447715 0.447715 0 1 0H21Z" fill="black"/>
<path d="M21 7C21.5523 7 22 7.44772 22 8C22 8.55228 21.5523 9 21 9H1C0.447715 9 0 8.55228 0 8C0 7.44772 0.447715 7 1 7H21Z" fill="black"/>
<path d="M21 14C21.5523 14 22 14.4477 22 15C22 15.5523 21.5523 16 21 16H1C0.447715 16 0 15.5523 0 15C0 14.4477 0.447715 14 1 14H21Z" fill="black"/>
</svg>
