<svg width="15" height="15" viewBox="0 0 15 15" fill="none" xmlns="http://www.w3.org/2000/svg">
<path d="M4.91884 4.11478L6.58665 0.7922C6.77949 0.409127 7.24596 0.255373 7.62645 0.448212C7.77496 0.523787 7.89483 0.646267 7.97043 0.797417L9.54702 4.00273C9.6747 4.26593 9.92746 4.44314 10.2168 4.47702L13.5133 4.87313C13.9615 4.92784 14.282 5.33698 14.2298 5.78781C14.2064 5.97284 14.1231 6.14483 13.9902 6.27512L11.3817 8.84714C11.2747 8.95138 11.2253 9.09737 11.2435 9.24589L11.6787 12.717C11.7413 13.2148 11.3894 13.6682 10.8943 13.7308C10.7066 13.7542 10.5191 13.7203 10.3522 13.6291L7.5978 12.1229C7.39704 12.0134 7.15736 12.0108 6.9567 12.1151L4.10058 13.5796C3.69927 13.7855 3.20935 13.6239 3.00347 13.22C2.9253 13.0689 2.89923 12.8994 2.92269 12.7327L3.14941 11.1378C3.26147 10.3586 3.74356 9.68109 4.44196 9.32409L7.61074 7.70583C7.69424 7.66408 7.728 7.55984 7.68634 7.47391C7.65249 7.40872 7.5821 7.36966 7.50918 7.38008L3.6315 7.93775C3.03995 8.02108 2.44059 7.85426 1.97412 7.47391L0.684182 6.42106C0.316741 6.12137 0.256807 5.57412 0.556485 5.20408C0.697202 5.03208 0.897869 4.92002 1.11676 4.89136L4.42632 4.46659C4.63741 4.43792 4.82242 4.30763 4.91884 4.11478Z" fill="url(#paint0_linear_7760_1308)"/>
<path d="M7.50925 1.28495C7.17308 1.20938 6.81608 1.37095 6.65451 1.69408L4.9841 5.01667C4.88767 5.20951 4.70526 5.33981 4.49156 5.36848L1.18201 5.79586C0.968321 5.82452 0.772878 5.92876 0.634766 6.09293L1.85955 7.09361C2.24524 7.409 2.74557 7.5471 3.23811 7.47662L7.11317 6.92162C7.34245 6.89033 7.56662 7.00498 7.66818 7.21093C7.80115 7.4741 7.69691 7.79725 7.43374 7.93274L6.42257 8.44875L7.57444 8.28193C7.64743 8.27151 7.72034 8.31057 7.75168 8.37576C7.79586 8.46177 7.7594 8.56602 7.67608 8.60768L4.5072 10.2259C3.80881 10.5829 3.3267 11.2606 3.21465 12.0397L3.06611 13.0743C3.20163 13.2098 3.41531 13.2462 3.59251 13.155L6.44342 11.6905C6.75353 11.5315 7.121 11.5368 7.42592 11.7035L10.1804 13.2098C10.2794 13.2645 10.3941 13.2854 10.5061 13.2724C10.7979 13.2358 11.0091 12.9648 10.9726 12.6651L10.54 9.19139C10.5087 8.93083 10.5973 8.67278 10.7824 8.49041L13.3909 5.91834C13.4352 5.87404 13.469 5.82191 13.4925 5.76458L10.2819 5.37891C9.99279 5.34503 9.74256 5.16522 9.61227 4.90462L9.4872 4.64663C9.22394 4.53197 9.00764 4.32871 8.87744 4.06551L7.50925 1.28495Z" fill="url(#paint1_linear_7760_1308)"/>
<path d="M7.79064 0.122527C7.22779 -0.161527 6.54503 0.0651969 6.26358 0.628072L4.59316 3.95327C4.55147 4.03666 4.47068 4.09399 4.37947 4.10442L1.06992 4.53179C0.757213 4.57088 0.470555 4.73245 0.2725 4.97741C-0.152271 5.50381 -0.0714883 6.27518 0.45231 6.70255L1.74487 7.75801C2.28951 8.20103 2.99051 8.39641 3.68369 8.29737L6.42255 7.90392L4.27524 9.00104C3.47 9.41281 2.91754 10.1893 2.78985 11.0858L2.56052 12.6806C2.52665 12.9229 2.56574 13.1679 2.6778 13.3868C2.97227 13.968 3.68629 14.1999 4.26742 13.9028L7.12094 12.4383C7.21476 12.3888 7.32681 12.3914 7.42062 12.4435L10.1751 13.9471C10.4071 14.0748 10.6755 14.127 10.9387 14.093C11.6345 14.0044 12.1244 13.3659 12.0384 12.6728L11.6058 9.19911C11.6006 9.16518 11.6136 9.12872 11.6371 9.10528L14.2456 6.53317C14.4359 6.34293 14.5583 6.09537 14.5895 5.82956C14.6651 5.18067 14.2065 4.59173 13.5577 4.51355L10.2586 4.11745C10.0943 4.09921 9.94835 3.99497 9.87283 3.84382L8.29884 0.635901C8.18939 0.414385 8.00955 0.234583 7.79064 0.122527ZM6.91246 0.953815C7.0141 0.750552 7.26166 0.669769 7.46229 0.771401C7.54049 0.810495 7.60568 0.878249 7.64473 0.959032L9.22133 4.16435C9.40369 4.53701 9.76078 4.78978 10.1725 4.83929L13.4716 5.2354C13.7193 5.26406 13.8964 5.49079 13.8677 5.74356C13.8547 5.84779 13.8078 5.94423 13.7348 6.01719L11.1263 8.58927C10.9412 8.77164 10.8527 9.02969 10.8839 9.29025L11.3165 12.764C11.353 13.0636 11.142 13.3347 10.85 13.3711C10.7379 13.3842 10.6233 13.3633 10.5243 13.3086L7.76981 11.8024C7.46489 11.6356 7.09748 11.633 6.78738 11.7919L3.93386 13.2566C3.71235 13.3686 3.44134 13.28 3.32668 13.0559C3.28498 12.9725 3.26934 12.876 3.28238 12.7822L3.50909 11.19C3.6029 10.5281 4.01465 9.95217 4.6062 9.64986L7.77502 8.0316C8.04088 7.89602 8.14512 7.57296 8.01223 7.3097C7.90799 7.10389 7.68648 6.98918 7.45708 7.02045L3.57945 7.57556C3.08693 7.64587 2.58919 7.50777 2.20352 7.19244L0.913562 6.13706C0.699875 5.96246 0.665997 5.64714 0.8406 5.43346C0.921382 5.33443 1.03604 5.26928 1.16113 5.25365L4.47068 4.82626C4.80424 4.78456 5.09351 4.57871 5.24466 4.27901L6.91246 0.953815Z" fill="url(#paint2_linear_7760_1308)"/>
<defs>
<linearGradient id="paint0_linear_7760_1308" x1="7.30069" y1="0.364825" x2="7.30069" y2="13.7385" gradientUnits="userSpaceOnUse">
<stop stop-color="#FFD011"/>
<stop offset="1" stop-color="#FFC519"/>
</linearGradient>
<linearGradient id="paint1_linear_7760_1308" x1="7.06364" y1="1.26671" x2="10.7328" y2="13.275" gradientUnits="userSpaceOnUse">
<stop stop-color="#FFD10F"/>
<stop offset="1" stop-color="#FFC41A"/>
</linearGradient>
<linearGradient id="paint2_linear_7760_1308" x1="7.30075" y1="4.6565e-05" x2="10.519" y2="14.1008" gradientUnits="userSpaceOnUse">
<stop stop-color="#FFCF09"/>
<stop offset="1" stop-color="#FFE886"/>
</linearGradient>
</defs>
</svg>
