<svg width="16" height="16" viewBox="0 0 16 16" fill="none" xmlns="http://www.w3.org/2000/svg">
<path d="M7.95796 2.51314C6.58004 2.51314 5.46303 3.81727 5.46303 5.426C5.46303 6.54171 6.00031 7.5107 6.78927 7.99996L5.87437 8.42398L3.43972 9.55315C3.20452 9.67076 3.08713 9.87019 3.08713 10.1524C3.08713 11.0462 3.08713 11.94 3.08713 12.8338C3.10648 13.169 3.30763 13.4815 3.63375 13.4868H12.2953C12.6677 13.4544 12.856 13.1545 12.8597 12.8338C12.8597 11.94 12.8597 11.0462 12.8597 10.1524C12.8597 9.87019 12.7423 9.67076 12.5071 9.55315L10.1606 8.42398L9.18543 7.96198C9.94201 7.4617 10.4529 6.51366 10.4529 5.42602C10.4529 3.81727 9.33587 2.51314 7.95796 2.51314ZM3.93364 3.53746C3.34067 3.55998 2.87072 3.81656 2.51368 4.2254C2.11875 4.71764 1.92621 5.30207 1.92249 5.88346C1.94675 6.74316 2.33141 7.55703 3.01621 7.98274L0.282173 9.25326C0.094 9.32382 0 9.48844 0 9.74718V11.8992C0.0146933 12.1846 0.16288 12.4244 0.440733 12.4285H2.25785V10.1524C2.28792 9.54393 2.57368 9.05206 3.08713 8.81203L4.90376 7.9478C5.04488 7.86547 5.18017 7.75356 5.30953 7.61244C4.56052 6.45676 4.45651 5.07256 4.93923 3.8551C4.62527 3.66295 4.27243 3.53947 3.93364 3.53746ZM12.0481 3.53746C11.6603 3.54558 11.302 3.68838 11.0076 3.89004C11.4772 5.11854 11.3476 6.50359 10.6545 7.57698C10.8074 7.75338 10.9666 7.88867 11.1312 7.98277L12.8774 8.81203C13.4094 9.10378 13.6837 9.6 13.689 10.1525V12.4286H15.5588C15.8663 12.402 15.9973 12.1567 16 11.8992V9.74719C16 9.51198 15.906 9.34737 15.7178 9.25326L13.0187 7.96502C13.7187 7.44891 14.0702 6.67542 14.077 5.88346C14.0584 5.25663 13.8669 4.6746 13.4858 4.2254C13.0876 3.79342 12.5937 3.54203 12.0481 3.53746Z" fill="#808080"/>
</svg>
