<svg  viewBox="0 0 15 11" fill="none" xmlns="http://www.w3.org/2000/svg">
<path d="M7.46059 0C6.16879 0 5.12159 1.22263 5.12159 2.73081C5.12159 3.77679 5.62529 4.68521 6.36494 5.1439L5.50723 5.54141L3.22474 6.60001C3.00424 6.71028 2.89419 6.89724 2.89419 7.16185C2.89419 7.99978 2.89419 8.83769 2.89419 9.67563C2.91233 9.98991 3.1009 10.2828 3.40664 10.2878H11.5269C11.8759 10.2575 12.0525 9.9763 12.056 9.67563C12.056 8.8377 12.056 7.99978 12.056 7.16185C12.056 6.89724 11.9459 6.71028 11.7254 6.60001L9.52556 5.54141L8.61134 5.10829C9.32064 4.63928 9.7996 3.75049 9.7996 2.73083C9.79959 1.22263 8.75237 0 7.46059 0ZM3.68779 0.9603C3.13188 0.981413 2.6913 1.22196 2.35658 1.60525C1.98633 2.06673 1.80582 2.61462 1.80234 3.15968C1.82508 3.96565 2.1857 4.72865 2.8277 5.12775L0.264538 6.31886C0.088125 6.38501 0 6.53935 0 6.78191V8.79939C0.013775 9.06695 0.1527 9.29183 0.413188 9.29568H2.11674V7.16185C2.14493 6.59136 2.41283 6.13024 2.89419 5.90521L4.59728 5.095C4.72958 5.01781 4.85641 4.9129 4.97769 4.7806C4.27549 3.69715 4.17797 2.39946 4.63053 1.25809C4.33619 1.07795 4.0054 0.962188 3.68779 0.9603ZM11.2951 0.9603C10.9316 0.967913 10.5956 1.10179 10.3196 1.29085C10.7598 2.44256 10.6384 3.74105 9.9886 4.74735C10.1319 4.91273 10.2811 5.03956 10.4355 5.12778L12.0726 5.90521C12.5713 6.17873 12.8285 6.64394 12.8334 7.16186V9.2957H14.5863C14.8746 9.27081 14.9975 9.04086 15 8.7994V6.78193C15 6.56141 14.9119 6.40709 14.7355 6.31886L12.2051 5.11114C12.8613 4.62729 13.1908 3.90214 13.1972 3.15968C13.1797 2.57203 13.0002 2.02638 12.643 1.60525C12.2696 1.20026 11.8066 0.964588 11.2951 0.9603Z" fill="#808080"/>
</svg>
