<svg width="27" height="27" viewBox="0 0 27 27" fill="none" xmlns="http://www.w3.org/2000/svg">
<path d="M13.0074 3.67426C13.0559 3.58606 13.1273 3.51252 13.2139 3.4613C13.3006 3.41008 13.3994 3.38306 13.5001 3.38306C13.6008 3.38306 13.6996 3.41008 13.7863 3.4613C13.873 3.51252 13.9443 3.58606 13.9929 3.67426L17.3139 9.97876C17.3931 10.1247 17.5036 10.2514 17.6375 10.3496C17.7715 10.4478 17.9255 10.5151 18.0885 10.5467C18.2516 10.5783 18.4196 10.5735 18.5805 10.5325C18.7415 10.4914 18.8913 10.4153 19.0194 10.3095L23.831 6.18751C23.9234 6.11238 24.0372 6.0685 24.1561 6.06218C24.275 6.05586 24.3928 6.08743 24.4926 6.15235C24.5924 6.21726 24.669 6.31217 24.7115 6.42341C24.7539 6.53465 24.76 6.65649 24.7287 6.77138L21.5405 18.2981C21.4754 18.534 21.3352 18.7422 21.1411 18.8912C20.947 19.0403 20.7097 19.1219 20.465 19.1239H6.53636C6.29149 19.1222 6.05386 19.0406 5.85955 18.8916C5.66524 18.7426 5.52487 18.5342 5.45974 18.2981L2.27261 6.77251C2.24139 6.65761 2.24744 6.53578 2.28987 6.42453C2.3323 6.31329 2.40894 6.21838 2.50875 6.15347C2.60856 6.08856 2.72639 6.05699 2.84528 6.06331C2.96417 6.06963 3.07799 6.11351 3.17036 6.18863L7.98086 10.3106C8.10888 10.4164 8.25874 10.4926 8.41968 10.5336C8.58062 10.5746 8.74864 10.5795 8.91169 10.5478C9.07473 10.5162 9.22875 10.4489 9.36269 10.3507C9.49663 10.2525 9.60716 10.1259 9.68636 9.97988L13.0074 3.67426Z" stroke="#8B5CF6" stroke-width="2" stroke-linecap="round" stroke-linejoin="round"/>
<path d="M5.625 23.625H21.375" stroke="#8B5CF6" stroke-width="2" stroke-linecap="round" stroke-linejoin="round"/>
</svg>
