<svg width="16" height="16" viewBox="0 0 16 16" fill="none" xmlns="http://www.w3.org/2000/svg">
<path d="M0.999989 14C0.999989 14.5531 1.44686 15 1.99999 15H7.49999V10H0.999989V14ZM14.5 5H13.6844C13.8781 4.62188 14 4.20312 14 3.75C14 2.23438 12.7656 1 11.25 1C9.94999 1 9.10936 1.66563 8.03124 3.13438C6.95311 1.66563 6.11249 1 4.81249 1C3.29686 1 2.06249 2.23438 2.06249 3.75C2.06249 4.20312 2.18124 4.62188 2.37811 5H1.5C0.946875 5 0.5 5.44688 0.5 6V8.5C0.5 8.775 0.725 9 1 9H15C15.275 9 15.5 8.775 15.5 8.5V6C15.5 5.44688 15.0531 5 14.5 5ZM4.80936 5C4.11874 5 3.55937 4.44062 3.55937 3.75C3.55937 3.05938 4.11874 2.5 4.80936 2.5C5.43124 2.5 5.89061 2.60313 7.49999 5H4.80936ZM11.25 5H8.55936C10.1656 2.60938 10.6125 2.5 11.25 2.5C11.9406 2.5 12.5 3.05938 12.5 3.75C12.5 4.44062 11.9406 5 11.25 5ZM8.55936 15H14C14.5531 15 15 14.5531 15 14V10H8.55936V15Z" fill="#808080"/>
</svg>
