<svg width="40" height="40" viewBox="0 0 40 40" fill="none" xmlns="http://www.w3.org/2000/svg">
<rect width="40" height="40" rx="20" fill="#399AD1"/>
<mask id="path-2-inside-1_5074_4353" fill="white">
<path d="M10 20C10 14.4772 14.4772 10 20 10C25.5228 10 30 14.4772 30 20C30 25.5228 25.5228 30 20 30C14.4772 30 10 25.5228 10 20Z"/>
</mask>
<g clip-path="url(#paint0_diamond_5074_4353_clip_path)" data-figma-skip-parse="true" mask="url(#path-2-inside-1_5074_4353)"><g transform="matrix(0.01 0 0 0.01 20 10)"><rect x="0" y="0" width="1200" height="2200" fill="url(#paint0_diamond_5074_4353)" opacity="1" shape-rendering="crispEdges"/><rect x="0" y="0" width="1200" height="2200" transform="scale(1 -1)" fill="url(#paint0_diamond_5074_4353)" opacity="1" shape-rendering="crispEdges"/><rect x="0" y="0" width="1200" height="2200" transform="scale(-1 1)" fill="url(#paint0_diamond_5074_4353)" opacity="1" shape-rendering="crispEdges"/><rect x="0" y="0" width="1200" height="2200" transform="scale(-1)" fill="url(#paint0_diamond_5074_4353)" opacity="1" shape-rendering="crispEdges"/></g></g><path d="M20 30V28C15.5817 28 12 24.4183 12 20H10H8C8 26.6274 13.3726 32 20 32V30ZM30 20H28C28 24.4183 24.4183 28 20 28V30V32C26.6274 32 32 26.6274 32 20H30ZM20 10V12C24.4183 12 28 15.5817 28 20H30H32C32 13.3726 26.6274 8 20 8V10ZM20 10V8C13.3726 8 8 13.3726 8 20H10H12C12 15.5817 15.5817 12 20 12V10Z" data-figma-gradient-fill="{&#34;type&#34;:&#34;GRADIENT_DIAMOND&#34;,&#34;stops&#34;:[{&#34;color&#34;:{&#34;r&#34;:0.0,&#34;g&#34;:0.0,&#34;b&#34;:0.0,&#34;a&#34;:0.0},&#34;position&#34;:0.99999988079071045},{&#34;color&#34;:{&#34;r&#34;:1.0,&#34;g&#34;:1.0,&#34;b&#34;:1.0,&#34;a&#34;:1.0},&#34;position&#34;:1.0}],&#34;stopsVar&#34;:[{&#34;color&#34;:{&#34;r&#34;:0.0,&#34;g&#34;:0.0,&#34;b&#34;:0.0,&#34;a&#34;:0.0},&#34;position&#34;:0.99999988079071045},{&#34;color&#34;:{&#34;r&#34;:1.0,&#34;g&#34;:1.0,&#34;b&#34;:1.0,&#34;a&#34;:1.0},&#34;position&#34;:1.0}],&#34;transform&#34;:{&#34;m00&#34;:20.0,&#34;m01&#34;:0.0,&#34;m02&#34;:10.0,&#34;m10&#34;:0.0,&#34;m11&#34;:20.0,&#34;m12&#34;:0.0},&#34;opacity&#34;:1.0,&#34;blendMode&#34;:&#34;NORMAL&#34;,&#34;visible&#34;:true}" mask="url(#path-2-inside-1_5074_4353)"/>
<defs>
<clipPath id="paint0_diamond_5074_4353_clip_path"><path d="M20 30V28C15.5817 28 12 24.4183 12 20H10H8C8 26.6274 13.3726 32 20 32V30ZM30 20H28C28 24.4183 24.4183 28 20 28V30V32C26.6274 32 32 26.6274 32 20H30ZM20 10V12C24.4183 12 28 15.5817 28 20H30H32C32 13.3726 26.6274 8 20 8V10ZM20 10V8C13.3726 8 8 13.3726 8 20H10H12C12 15.5817 15.5817 12 20 12V10Z" mask="url(#path-2-inside-1_5074_4353)"/></clipPath><linearGradient id="paint0_diamond_5074_4353" x1="0" y1="0" x2="500" y2="500" gradientUnits="userSpaceOnUse">
<stop offset="1" stop-opacity="0"/>
<stop offset="1" stop-color="white"/>
</linearGradient>
</defs>
</svg>
