<svg width="16" height="16" viewBox="0 0 16 16" fill="none" xmlns="http://www.w3.org/2000/svg">
<path d="M14.6669 8.0699C14.6669 9.3885 14.2759 10.6775 13.5433 11.7739C12.8107 12.8702 11.7695 13.7248 10.5513 14.2294C9.33306 14.734 7.99256 14.866 6.6993 14.6087C5.40604 14.3515 4.2181 13.7165 3.28571 12.7841C2.35333 11.8518 1.71836 10.6638 1.46111 9.37056C1.20387 8.0773 1.3359 6.7368 1.8405 5.51857C2.34511 4.30035 3.19963 3.25911 4.296 2.52654C5.39237 1.79396 6.68136 1.40295 7.99996 1.40295C8.87547 1.40295 9.74242 1.5754 10.5513 1.91045C11.3602 2.24549 12.0951 2.73657 12.7142 3.35566C13.3333 3.97474 13.8244 4.7097 14.1594 5.51857C14.4945 6.32744 14.6669 7.19439 14.6669 8.0699ZM9.41217 8.01601H6.5768C6.02017 7.97771 5.47076 8.15947 5.04679 8.52218C4.62282 8.88488 4.3582 9.39953 4.30985 9.95537V11.227C4.3103 11.4037 4.38071 11.5731 4.50569 11.6981C4.63067 11.823 4.80005 11.8935 4.9768 11.8939H11.0113C11.1879 11.8935 11.3572 11.8232 11.4821 11.6984C11.6071 11.5736 11.6776 11.4044 11.6783 11.2278V9.95369C11.6297 9.398 11.365 8.88356 10.9411 8.52103C10.5171 8.15851 9.96782 7.97686 9.41133 8.01516L9.41217 8.01601ZM6.01259 5.36759C6.01259 5.75948 6.1288 6.14258 6.34653 6.46843C6.56426 6.79429 6.87372 7.04826 7.23579 7.19823C7.59785 7.3482 7.99626 7.38744 8.38063 7.31099C8.765 7.23453 9.11806 7.04581 9.39518 6.7687C9.67229 6.49159 9.86101 6.13852 9.93746 5.75415C10.0139 5.36978 9.97468 4.97138 9.82471 4.60931C9.67473 4.24724 9.42076 3.93778 9.09491 3.72005C8.76906 3.50232 8.38596 3.38611 7.99406 3.38611C7.46854 3.38611 6.96455 3.59487 6.59295 3.96647C6.22135 4.33807 6.01259 4.84207 6.01259 5.36759Z" fill="currentColor"/>
</svg>
