<svg width="9" height="12" viewBox="0 0 9 12" fill="none" xmlns="http://www.w3.org/2000/svg">
<path d="M5.702 9.374V11.6235C5.697 11.8285 5.532 11.9935 5.328 11.9985H3.08C2.875 11.9935 2.7105 11.8285 2.7055 11.6245V11.624V9.3745C2.7105 9.1695 2.8755 9.005 3.08 9H5.33C5.535 9.005 5.7 9.17 5.705 9.3745L5.702 9.374ZM8.6635 3.7505C8.663 4.3665 8.487 4.9415 8.1825 5.4275L8.19 5.4145C8.0415 5.6275 7.8715 5.811 7.6795 5.9685L7.6745 5.9725C7.514 6.1135 7.3385 6.2475 7.1535 6.3695L7.1355 6.3805C6.99784 6.46483 6.80717 6.57566 6.5635 6.713C6.3005 6.864 6.085 7.0695 5.926 7.315L5.9215 7.322C5.7855 7.496 5.6935 7.71 5.664 7.9435L5.6635 7.9495C5.6615 8.066 5.6195 8.172 5.5505 8.255L5.551 8.254C5.4935 8.3395 5.398 8.396 5.289 8.399H3.039C2.9305 8.3915 2.8395 8.3225 2.7995 8.2275L2.799 8.2255C2.7385 8.125 2.702 8.004 2.7005 7.8745V7.452C2.713 6.881 2.943 6.366 3.31 5.9845L3.3095 5.985C3.674 5.5605 4.1205 5.2175 4.626 4.9785L4.65 4.9685C4.9575 4.8435 5.2195 4.6655 5.437 4.444L5.4375 4.4435C5.584 4.264 5.673 4.0325 5.673 3.78C5.673 3.763 5.6725 3.746 5.672 3.729V3.7315C5.6545 3.433 5.485 3.1775 5.2405 3.0405L5.236 3.0385C4.963 2.8505 4.625 2.7385 4.261 2.7385C4.2495 2.7385 4.238 2.7385 4.227 2.739H4.2285C4.2085 2.738 4.185 2.7375 4.1615 2.7375C3.811 2.7375 3.484 2.8395 3.209 3.015L3.216 3.0105C2.842 3.331 2.512 3.685 2.2255 4.073L2.213 4.0905C2.1465 4.181 2.0415 4.239 1.9225 4.2405C1.835 4.2375 1.754 4.21 1.6865 4.1645L1.688 4.1655L0.151 2.994C0.0755 2.9385 0.0225 2.8565 0.006 2.762L0.0055 2.76C0.002 2.7405 0 2.718 0 2.6955C0 2.622 0.0215 2.554 0.058 2.4965L0.057 2.498C0.8855 0.9985 2.4565 0 4.2615 0C4.313 0 4.364 0.001 4.415 0.0025H4.4075C4.9515 0.006 5.4695 0.1125 5.9445 0.3035L5.916 0.2935C6.4395 0.4945 6.892 0.7565 7.2945 1.079L7.2845 1.071C7.689 1.3975 8.0215 1.7945 8.2675 2.2455L8.2775 2.266C8.519 2.6945 8.6615 3.2065 8.662 3.7515L8.6635 3.7505Z" fill="black"/>
</svg>
