<svg width="15" height="14" viewBox="0 0 15 14" fill="none" xmlns="http://www.w3.org/2000/svg">
<path d="M0.499989 13C0.499989 13.5531 0.94686 14 1.49999 14H6.99999V9H0.499989V13ZM14 4H13.1844C13.3781 3.62188 13.5 3.20312 13.5 2.75C13.5 1.23438 12.2656 0 10.75 0C9.44999 0 8.60936 0.66563 7.53124 2.13438C6.45311 0.66563 5.61249 0 4.31249 0C2.79686 0 1.56249 1.23438 1.56249 2.75C1.56249 3.20312 1.68124 3.62188 1.87811 4H1C0.446875 4 0 4.44688 0 5L0 7.5C0 7.775 0.225 8 0.5 8H14.5C14.775 8 15 7.775 15 7.5V5C15 4.44688 14.5531 4 14 4ZM4.30936 4C3.61874 4 3.05937 3.44062 3.05937 2.75C3.05937 2.05938 3.61874 1.5 4.30936 1.5C4.93124 1.5 5.39061 1.60313 6.99999 4H4.30936ZM10.75 4H8.05936C9.6656 1.60938 10.1125 1.5 10.75 1.5C11.4406 1.5 12 2.05938 12 2.75C12 3.44062 11.4406 4 10.75 4ZM8.05936 14H13.5C14.0531 14 14.5 13.5531 14.5 13V9H8.05936V14Z" fill="black"/>
</svg>
