<svg width="33" height="40" viewBox="0 0 33 40" fill="none" xmlns="http://www.w3.org/2000/svg">
<g clip-path="url(#clip0_3160_1851)">
<path d="M29.6497 10.0636C30.4292 11.0825 31.0806 12.1987 31.6317 13.3818L16.6134 24.5864L10.3054 20.5778V15.7814L16.58 19.7566L29.6497 10.0636Z" fill="#21A038"/>
<path d="M3.90002 20.2493C3.90002 20.0182 3.90002 19.8234 3.93342 19.5923L0.130817 19.3947C0.130817 19.6591 0.0974121 19.9542 0.0974121 20.2159C0.0974121 24.8174 1.95139 28.9902 4.94114 32.0134L7.63859 29.2853C5.33086 26.9859 3.90002 23.7985 3.90002 20.2493Z" fill="url(#paint0_linear_3160_1851)"/>
<path d="M16.58 7.43286C16.8083 7.43286 17.0032 7.43286 17.2314 7.46627L17.4263 3.62191C17.1646 3.62191 16.8723 3.5885 16.6134 3.5885C12.062 3.5885 7.93369 5.46197 4.94116 8.48512L7.63862 11.2132C9.91573 8.88041 13.1003 7.43286 16.58 7.43286Z" fill="url(#paint1_linear_3160_1851)"/>
<path d="M16.5801 33.0657C16.3519 33.0657 16.157 33.0657 15.9287 33.0323L15.7339 36.8767C15.9956 36.8767 16.2879 36.9101 16.5467 36.9101C21.0982 36.9101 25.2293 35.0366 28.219 32.0135L25.5216 29.2854C23.2444 31.6516 20.0905 33.0657 16.5801 33.0657Z" fill="url(#paint2_linear_3160_1851)"/>
<path d="M23.7315 9.6683L26.9496 7.2687C24.1213 4.96932 20.5135 3.55518 16.5801 3.55518V7.39954C19.2469 7.43294 21.7161 8.25415 23.7315 9.6683Z" fill="url(#paint3_linear_3160_1851)"/>
<path d="M33.0959 20.2494C33.0959 19.2305 32.9984 18.2451 32.8342 17.2596L29.2905 19.9209C29.2905 20.0183 29.2905 20.152 29.2905 20.2494C29.2905 24.0297 27.6648 27.4148 25.0981 29.7476L27.6648 32.6065C30.983 29.5833 33.0959 25.146 33.0959 20.2494Z" fill="#21A038"/>
<path d="M16.5799 33.0657C12.8413 33.0657 9.49247 31.4233 7.18474 28.826L4.35645 31.4233C7.3796 34.8083 11.7362 36.9101 16.5799 36.9101V33.0657Z" fill="url(#paint4_linear_3160_1851)"/>
<path d="M8.09513 10.7512L5.52573 7.89233C2.17687 10.9489 0.0974121 15.3528 0.0974121 20.2494H3.90002C3.90002 16.5025 5.52573 13.0868 8.09513 10.7512Z" fill="url(#paint5_linear_3160_1851)"/>
</g>
<defs>
<linearGradient id="paint0_linear_3160_1851" x1="4.53563" y1="31.546" x2="0.630205" y2="20.2059" gradientUnits="userSpaceOnUse">
<stop offset="0.1444" stop-color="#F2E913"/>
<stop offset="0.3037" stop-color="#E7E518"/>
<stop offset="0.5823" stop-color="#CADB26"/>
<stop offset="0.891" stop-color="#A3CD39"/>
</linearGradient>
<linearGradient id="paint1_linear_3160_1851" x1="6.0258" y1="8.05114" x2="15.8935" y2="4.2737" gradientUnits="userSpaceOnUse">
<stop offset="0.0592" stop-color="#0FA8E0"/>
<stop offset="0.5385" stop-color="#0099F9"/>
<stop offset="0.9234" stop-color="#0291EB"/>
</linearGradient>
<linearGradient id="paint2_linear_3160_1851" x1="15.5117" y1="33.6404" x2="27.2697" y2="30.971" gradientUnits="userSpaceOnUse">
<stop offset="0.1226" stop-color="#A3CD39"/>
<stop offset="0.2846" stop-color="#86C339"/>
<stop offset="0.8693" stop-color="#21A038"/>
</linearGradient>
<linearGradient id="paint3_linear_3160_1851" x1="15.7987" y1="6.00471" x2="25.577" y2="9.03544" gradientUnits="userSpaceOnUse">
<stop offset="0.0566" stop-color="#0291EB"/>
<stop offset="0.79" stop-color="#0C8ACB"/>
</linearGradient>
<linearGradient id="paint4_linear_3160_1851" x1="5.32339" y1="32.0315" x2="15.8287" y2="35.9745" gradientUnits="userSpaceOnUse">
<stop offset="0.1324" stop-color="#F2E913"/>
<stop offset="0.2977" stop-color="#EBE716"/>
<stop offset="0.5306" stop-color="#D9E01F"/>
<stop offset="0.8023" stop-color="#BBD62D"/>
<stop offset="0.9829" stop-color="#A3CD39"/>
</linearGradient>
<linearGradient id="paint5_linear_3160_1851" x1="3.01198" y1="20.7139" x2="7.23354" y2="9.68233" gradientUnits="userSpaceOnUse">
<stop offset="0.0698" stop-color="#A3CD39"/>
<stop offset="0.2599" stop-color="#81C55F"/>
<stop offset="0.9216" stop-color="#0FA8E0"/>
</linearGradient>
<clipPath id="clip0_3160_1851">
<rect width="33" height="40" fill="white"/>
</clipPath>
</defs>
</svg>
