<svg width="33" height="40" viewBox="0 0 33 40" fill="none" xmlns="http://www.w3.org/2000/svg">
<g clip-path="url(#clip0_646_261)">
<path d="M0 8.81213L4.87257 17.3896V22.6216L0.00570009 31.1821L0 8.81213Z" fill="#5B57A2"/>
<path d="M18.7087 14.2684L23.2745 11.5124L32.6186 11.5038L18.7087 19.896V14.2684Z" fill="#D90751"/>
<path d="M18.6829 8.76169L18.7087 20.1179L13.8247 17.1625V0.18689L18.6829 8.76169Z" fill="#FAB718"/>
<path d="M32.6186 11.5038L23.2741 11.5124L18.6829 8.76169L13.8247 0.18689L32.6186 11.5038Z" fill="#ED6F26"/>
<path d="M18.7087 31.2298V25.7201L13.8247 22.8208L13.8274 39.8132L18.7087 31.2298Z" fill="#63B22F"/>
<path d="M23.263 28.4988L4.87223 17.3896L0 8.81213L32.5988 28.4876L23.263 28.4988Z" fill="#1487C9"/>
<path d="M13.8276 39.8132L18.7083 31.2298L23.2626 28.4989L32.5984 28.4877L13.8276 39.8132Z" fill="#017F36"/>
<path d="M0.00585938 31.1822L13.8648 22.8211L9.20546 20.0056L4.87273 22.6216L0.00585938 31.1822Z" fill="#984995"/>
</g>
<defs>
<clipPath id="clip0_646_261">
<rect width="33" height="40" fill="white"/>
</clipPath>
</defs>
</svg>
