<svg width="20" height="20" viewBox="0 0 20 20" fill="none" xmlns="http://www.w3.org/2000/svg">
<path fill-rule="evenodd" clip-rule="evenodd" d="M6.52491 12.7749C6.70069 12.5993 6.93897 12.5007 7.18741 12.5007C7.43585 12.5007 7.67413 12.5993 7.84991 12.7749L9.99991 14.9249L12.1499 12.7749C12.2357 12.6828 12.3392 12.6089 12.4542 12.5577C12.5692 12.5064 12.6934 12.4789 12.8193 12.4767C12.9451 12.4744 13.0702 12.4976 13.1869 12.5448C13.3036 12.5919 13.4097 12.6621 13.4987 12.7511C13.5877 12.8401 13.6579 12.9462 13.7051 13.0629C13.7522 13.1796 13.7754 13.3047 13.7731 13.4306C13.7709 13.5564 13.7434 13.6806 13.6921 13.7956C13.6409 13.9106 13.567 14.0141 13.4749 14.0999L10.6624 16.9124C10.4866 17.088 10.2483 17.1866 9.99991 17.1866C9.75147 17.1866 9.51319 17.088 9.33741 16.9124L6.52491 14.0999C6.34934 13.9241 6.25073 13.6858 6.25073 13.4374C6.25073 13.189 6.34934 12.9507 6.52491 12.7749ZM13.4749 7.22491C13.2991 7.40047 13.0608 7.49908 12.8124 7.49908C12.564 7.49908 12.3257 7.40047 12.1499 7.22491L9.99991 5.07491L7.84991 7.22491C7.67219 7.39051 7.43713 7.48066 7.19425 7.47638C6.95138 7.47209 6.71965 7.3737 6.54788 7.20193C6.37611 7.03017 6.27772 6.79844 6.27344 6.55556C6.26915 6.31268 6.35931 6.07763 6.52491 5.89991L9.33741 3.08741C9.51319 2.91184 9.75147 2.81323 9.99991 2.81323C10.2483 2.81323 10.4866 2.91184 10.6624 3.08741L13.4749 5.89991C13.6505 6.07569 13.7491 6.31397 13.7491 6.56241C13.7491 6.81085 13.6505 7.04913 13.4749 7.22491Z" fill="#9CA3AF"/>
</svg>
