<svg width="15" height="16" viewBox="0 0 15 16" fill="none" xmlns="http://www.w3.org/2000/svg">
<g clip-path="url(#clip0_10417_1741)">
<path d="M5.88393 3.96203L7.39893 0.93204C7.57031 0.582426 7.98847 0.438467 8.33809 0.616702C8.47519 0.685253 8.58487 0.801791 8.65343 0.938895L10.0793 3.8592C10.1958 4.09228 10.4221 4.2568 10.6826 4.29108L13.6714 4.64754C14.0759 4.70239 14.3706 5.07257 14.3227 5.48388C14.3021 5.6484 14.2267 5.80607 14.1033 5.92946L11.7383 8.27393C11.6423 8.36305 11.6012 8.50015 11.6149 8.63726L12.0056 11.7975C12.0673 12.2499 11.7451 12.6681 11.2995 12.7229C11.1281 12.7435 10.9568 12.7092 10.806 12.627L8.31067 11.2559C8.13243 11.16 7.91307 11.1531 7.72798 11.2491L5.14358 12.5858C4.78025 12.7709 4.33466 12.627 4.14957 12.2568C4.07417 12.1197 4.0536 11.962 4.07417 11.8112L4.27982 10.3579C4.38265 9.64497 4.82138 9.03486 5.45206 8.70581L8.32438 7.23195C8.39978 7.19081 8.4272 7.09484 8.39293 7.01943C8.35865 6.95774 8.29696 6.92346 8.2284 6.93717L4.71855 7.44446C4.18385 7.51986 3.63544 7.36905 3.21727 7.01943L2.04504 6.05971C1.70913 5.7855 1.66115 5.29193 1.9285 4.94917C2.05875 4.79836 2.23698 4.69553 2.43578 4.66811L5.43835 4.27737C5.63029 4.2568 5.79482 4.13341 5.88393 3.96203Z" fill="url(#paint0_linear_10417_1741)"/>
<g filter="url(#filter0_i_10417_1741)">
<path d="M5.88393 3.96203L7.39893 0.93204C7.57031 0.582426 7.98847 0.438467 8.33809 0.616702C8.47519 0.685253 8.58487 0.801791 8.65343 0.938895L10.0793 3.8592C10.1958 4.09228 10.4221 4.2568 10.6826 4.29108L13.6714 4.64754C14.0759 4.70239 14.3706 5.07257 14.3227 5.48388C14.3021 5.6484 14.2267 5.80607 14.1033 5.92946L11.7383 8.27393C11.6423 8.36305 11.6012 8.50015 11.6149 8.63726L12.0056 11.7975C12.0673 12.2499 11.7451 12.6681 11.2995 12.7229C11.1281 12.7435 10.9568 12.7092 10.806 12.627L8.31067 11.2559C8.13243 11.16 7.91307 11.1531 7.72798 11.2491L5.14358 12.5858C4.78025 12.7709 4.33466 12.627 4.14957 12.2568C4.07417 12.1197 4.0536 11.962 4.07417 11.8112L4.27982 10.3579C4.38265 9.64497 4.82138 9.03486 5.45206 8.70581L8.32438 7.23195C8.39978 7.19081 8.4272 7.09484 8.39293 7.01943C8.35865 6.95774 8.29696 6.92346 8.2284 6.93717L4.71855 7.44446C4.18385 7.51986 3.63544 7.36905 3.21727 7.01943L2.04504 6.05971C1.70913 5.7855 1.66115 5.29193 1.9285 4.94917C2.05875 4.79836 2.23698 4.69553 2.43578 4.66811L5.43835 4.27737C5.63029 4.2568 5.79482 4.13341 5.88393 3.96203Z" fill="#FFC400"/>
</g>
<path d="M5.88393 3.96203L7.39893 0.93204C7.57031 0.582426 7.98847 0.438467 8.33809 0.616702C8.47519 0.685253 8.58487 0.801791 8.65343 0.938895L10.0793 3.8592C10.1958 4.09228 10.4221 4.2568 10.6826 4.29108L13.6714 4.64754C14.0759 4.70239 14.3706 5.07257 14.3227 5.48388C14.3021 5.6484 14.2267 5.80607 14.1033 5.92946L11.7383 8.27393C11.6423 8.36305 11.6012 8.50015 11.6149 8.63726L12.0056 11.7975C12.0673 12.2499 11.7451 12.6681 11.2995 12.7229C11.1281 12.7435 10.9568 12.7092 10.806 12.627L8.31067 11.2559C8.13243 11.16 7.91307 11.1531 7.72798 11.2491L5.14358 12.5858C4.78025 12.7709 4.33466 12.627 4.14957 12.2568C4.07417 12.1197 4.0536 11.962 4.07417 11.8112L4.27982 10.3579C4.38265 9.64497 4.82138 9.03486 5.45206 8.70581L8.32438 7.23195C8.39978 7.19081 8.4272 7.09484 8.39293 7.01943C8.35865 6.95774 8.29696 6.92346 8.2284 6.93717L4.71855 7.44446C4.18385 7.51986 3.63544 7.36905 3.21727 7.01943L2.04504 6.05971C1.70913 5.7855 1.66115 5.29193 1.9285 4.94917C2.05875 4.79836 2.23698 4.69553 2.43578 4.66811L5.43835 4.27737C5.63029 4.2568 5.79482 4.13341 5.88393 3.96203V3.96203Z" stroke="url(#paint1_linear_10417_1741)" stroke-width="0.94449"/>
</g>
<defs>
<filter id="filter0_i_10417_1741" x="1.75635" y="0.540081" width="13.6325" height="13.2499" filterUnits="userSpaceOnUse" color-interpolation-filters="sRGB">
<feFlood flood-opacity="0" result="BackgroundImageFix"/>
<feBlend mode="normal" in="SourceGraphic" in2="BackgroundImageFix" result="shape"/>
<feColorMatrix in="SourceAlpha" type="matrix" values="0 0 0 0 0 0 0 0 0 0 0 0 0 0 0 0 0 0 127 0" result="hardAlpha"/>
<feOffset dx="1.06122" dy="1.06122"/>
<feGaussianBlur stdDeviation="2.12245"/>
<feComposite in2="hardAlpha" operator="arithmetic" k2="-1" k3="1"/>
<feColorMatrix type="matrix" values="0 0 0 0 1 0 0 0 0 1 0 0 0 0 1 0 0 0 0.657 0"/>
<feBlend mode="normal" in2="shape" result="effect1_innerShadow_10417_1741"/>
</filter>
<linearGradient id="paint0_linear_10417_1741" x1="316.042" y1="10.5958" x2="912.365" y2="1329.34" gradientUnits="userSpaceOnUse">
<stop stop-color="#FFD951"/>
<stop offset="1" stop-color="#FFB222"/>
</linearGradient>
<linearGradient id="paint1_linear_10417_1741" x1="630.328" y1="0.540081" x2="630.328" y2="1216.97" gradientUnits="userSpaceOnUse">
<stop stop-color="#E58F0D"/>
<stop offset="0.9996" stop-color="#EB7915"/>
</linearGradient>
<clipPath id="clip0_10417_1741">
<rect width="14.8571" height="16" fill="white"/>
</clipPath>
</defs>
</svg>
