<svg width="15" height="15" viewBox="0 0 15 15" fill="none" xmlns="http://www.w3.org/2000/svg">
<path d="M4.8169 3.99342L6.5849 0.457416C6.7849 0.0494162 7.2729 -0.118584 7.6809 0.0894162C7.8409 0.169416 7.9689 0.305416 8.0489 0.465416L9.7129 3.87342C9.8489 4.14542 10.1129 4.33742 10.4169 4.37742L13.9049 4.79342C14.3769 4.85742 14.7209 5.28942 14.6649 5.76942C14.6409 5.96142 14.5529 6.14542 14.4089 6.28942L11.6489 9.02542C11.5369 9.12942 11.4889 9.28942 11.5049 9.44942L11.9609 13.1374C12.0329 13.6654 11.6569 14.1534 11.1369 14.2174C10.9369 14.2414 10.7369 14.2014 10.5609 14.1054L7.6489 12.5054C7.4409 12.3934 7.1849 12.3854 6.9689 12.4974L3.9529 14.0574C3.5289 14.2734 3.0089 14.1054 2.7929 13.6734C2.7049 13.5134 2.6809 13.3294 2.7049 13.1534L2.9449 11.4574C3.0649 10.6254 3.5769 9.91342 4.3129 9.52942L7.6649 7.80942C7.7529 7.76142 7.7849 7.64942 7.7449 7.56142C7.7049 7.48942 7.6329 7.44942 7.5529 7.46542L3.4569 8.05742C2.8329 8.14542 2.1929 7.96942 1.7049 7.56142L0.336899 6.44142C-0.055101 6.12142 -0.111101 5.54542 0.200899 5.14542C0.352899 4.96942 0.560899 4.84942 0.792899 4.81742L4.2969 4.36142C4.5209 4.33742 4.7129 4.19342 4.8169 3.99342Z" fill="black"/>
</svg>
