<svg width="24" height="24" viewBox="0 0 24 24" fill="none" xmlns="http://www.w3.org/2000/svg">
<path fill-rule="evenodd" clip-rule="evenodd" d="M4.69715 11.4704C7.58014 10.2556 11.4429 8.58262 14.6383 7.27756C17.8336 5.9725 20.61 5.00758 21.0006 5.00064C21.3911 4.9937 21.4763 5.04228 21.6681 5.19501C21.8598 5.34774 21.8811 5.51434 21.9095 5.65317C21.9379 5.79201 22.0799 4.87564 21.9379 6.3057C21.7959 7.73577 20.4112 16.1909 20.0065 18.2873C19.6017 20.3837 19.5662 19.9325 18.8419 19.995C18.1176 20.0575 17.3721 19.5299 16.1436 18.7455C14.9152 17.961 13.914 17.2599 12.3376 16.2464C10.7612 15.2329 12.0962 14.2055 12.7068 13.5946C13.3175 12.9837 17.3579 9.30464 17.4076 9.1102C17.4573 8.91576 17.4218 8.90195 17.3224 8.81865C17.223 8.73534 17.1023 8.7631 16.9673 8.79088C16.8323 8.81866 12.4441 11.6787 9.78132 13.4419C7.11851 15.2051 8.51737 14.1222 7.93511 14.1083C7.35284 14.0944 6.25222 13.8029 5.27941 13.4974C4.3066 13.192 3.3764 12.8449 3.4332 12.4006C3.49001 11.9563 1.81415 12.6853 4.69715 11.4704Z" fill="#95A0A7"/>
</svg>
