<svg width="12" height="12" viewBox="0 0 12 12" fill="none" xmlns="http://www.w3.org/2000/svg">
<g filter="url(#filter0_i_3113_1360)">
<path d="M3.88946 3.20807L5.31705 0.367461C5.47854 0.0396981 5.87258 -0.0952632 6.20202 0.0718317C6.33122 0.136099 6.43457 0.245353 6.49917 0.373888L7.84278 3.11167C7.9526 3.33018 8.16577 3.48442 8.41124 3.51656L11.2277 3.85075C11.6088 3.90216 11.8865 4.2492 11.8413 4.63481C11.8219 4.78905 11.7509 4.93686 11.6346 5.05255L9.40603 7.25048C9.31559 7.33403 9.27683 7.46257 9.28975 7.5911L9.65795 10.5538C9.71609 10.978 9.41249 11.37 8.99261 11.4214C8.83111 11.4407 8.66962 11.4086 8.52751 11.3315L6.17618 10.0461C6.00823 9.95614 5.80152 9.94971 5.62711 10.0397L3.19181 11.2929C2.84945 11.4664 2.42957 11.3315 2.25516 10.9844C2.1841 10.8559 2.16472 10.7081 2.1841 10.5667L2.37789 9.20421C2.47479 8.53583 2.88821 7.96385 3.4825 7.65537L6.1891 6.27362C6.26016 6.23506 6.286 6.14509 6.2537 6.07439C6.2214 6.01655 6.16326 5.98442 6.09867 5.99727L2.79131 6.47285C2.28745 6.54354 1.77068 6.40216 1.37664 6.07439L0.272033 5.17465C-0.0444919 4.91758 -0.0897097 4.45486 0.162218 4.13352C0.284952 3.99214 0.452904 3.89573 0.640235 3.87003L3.46958 3.5037C3.65045 3.48442 3.80548 3.36874 3.88946 3.20807Z" fill="#FFC400"/>
</g>
<defs>
<filter id="filter0_i_3113_1360" x="0" y="0" width="12.8462" height="12.4269" filterUnits="userSpaceOnUse" color-interpolation-filters="sRGB">
<feFlood flood-opacity="0" result="BackgroundImageFix"/>
<feBlend mode="normal" in="SourceGraphic" in2="BackgroundImageFix" result="shape"/>
<feColorMatrix in="SourceAlpha" type="matrix" values="0 0 0 0 0 0 0 0 0 0 0 0 0 0 0 0 0 0 127 0" result="hardAlpha"/>
<feOffset dx="1" dy="1"/>
<feGaussianBlur stdDeviation="2"/>
<feComposite in2="hardAlpha" operator="arithmetic" k2="-1" k3="1"/>
<feColorMatrix type="matrix" values="0 0 0 0 1 0 0 0 0 1 0 0 0 0 1 0 0 0 0.657 0"/>
<feBlend mode="normal" in2="shape" result="effect1_innerShadow_3113_1360"/>
</filter>
</defs>
</svg>
