<svg width="16" height="16" viewBox="0 0 16 16" fill="none" xmlns="http://www.w3.org/2000/svg">
<path fill-rule="evenodd" clip-rule="evenodd" d="M1.98503 7.18816C4.20744 6.23023 7.18513 4.91107 9.64833 3.88199C12.1115 2.85292 14.2518 2.09207 14.5528 2.08659C14.8539 2.08112 14.9196 2.11943 15.0674 2.23986C15.2152 2.36029 15.2316 2.49165 15.2535 2.60113C15.2754 2.71061 15.3849 1.98803 15.2754 3.11567C15.1659 4.2433 14.0985 10.9103 13.7865 12.5634C13.4745 14.2165 13.4471 13.8607 12.8888 13.91C12.3305 13.9592 11.7557 13.5432 10.8088 12.9247C9.8618 12.3061 9.09 11.7533 7.87482 10.9541C6.65964 10.1549 7.6887 9.34484 8.15946 8.86314C8.63021 8.38144 11.7448 5.48039 11.7831 5.32707C11.8214 5.17375 11.794 5.16286 11.7174 5.09717C11.6408 5.03149 11.5478 5.05337 11.4437 5.07528C11.3397 5.09719 7.95694 7.35237 5.90426 8.74271C3.85159 10.1331 4.92993 9.27914 4.48108 9.2682C4.03223 9.25725 3.18379 9.02735 2.43388 8.7865C1.68398 8.54566 0.966909 8.27198 1.0107 7.92165C1.05449 7.57131 -0.237374 8.14609 1.98503 7.18816Z" fill="currentColor"/>
</svg>
