<svg width="20" height="20" viewBox="0 0 20 20" fill="none" xmlns="http://www.w3.org/2000/svg">
<g clip-path="url(#clip0_5209_4546)">
<g clip-path="url(#clip1_5209_4546)">
<path d="M10 1C14.9706 1 19 5.02946 19 10C19 14.9706 14.9706 19 10 19C5.02946 19 1 14.9706 1 10C1 5.02946 5.02946 1 10 1Z" stroke="white" stroke-width="2"/>
<path fill-rule="evenodd" clip-rule="evenodd" d="M6.23431 6.23431C6.54673 5.9219 7.05326 5.9219 7.36568 6.23431L13.7657 12.6344C14.0781 12.9468 14.0781 13.4533 13.7657 13.7657C13.4533 14.0781 12.9467 14.0781 12.6343 13.7657L6.23431 7.36568C5.9219 7.05326 5.9219 6.54673 6.23431 6.23431Z" fill="white"/>
<path fill-rule="evenodd" clip-rule="evenodd" d="M13.7657 6.23431C14.0781 6.54673 14.0781 7.05326 13.7657 7.36568L7.36568 13.7657C7.05326 14.0781 6.54673 14.0781 6.23431 13.7657C5.9219 13.4533 5.9219 12.9467 6.23431 12.6343L12.6344 6.23431C12.9468 5.9219 13.4533 5.9219 13.7657 6.23431Z" fill="white"/>
</g>
</g>
<defs>
<clipPath id="clip0_5209_4546">
<rect width="20" height="20" fill="white"/>
</clipPath>
<clipPath id="clip1_5209_4546">
<rect width="20" height="20" fill="white"/>
</clipPath>
</defs>
</svg>
