<svg width="20" height="20" viewBox="0 0 20 20" fill="none" xmlns="http://www.w3.org/2000/svg">
<g clip-path="url(#clip0_5209_4652)">
<g clip-path="url(#clip1_5209_4652)">
<path d="M7.9748 10.0556C8.12543 10.2106 8.33418 10.3081 8.56605 10.3125H8.56668C8.56855 10.3125 8.57168 10.3125 8.57418 10.3125C8.76043 10.3125 8.92918 10.2375 9.05231 10.1156L10.1167 9.05124C10.2379 8.92874 10.3136 8.75999 10.3136 8.57311C10.3136 8.57061 10.3136 8.56811 10.3136 8.56561V8.56624C10.3092 8.33374 10.2117 8.12561 10.0573 7.97499L9.70481 7.62249C9.73606 7.55207 9.76543 7.48103 9.79293 7.40936L10.2911 7.41186C10.3054 7.41311 10.3217 7.41311 10.3386 7.41311C10.7442 7.41311 11.0748 7.09436 11.0942 6.69374V6.69186V5.18749C11.0748 4.78499 10.7436 4.46624 10.3386 4.46624C10.3217 4.46624 10.3054 4.46686 10.2892 4.46811H10.2917H9.79355C9.76606 4.39561 9.73606 4.32436 9.70481 4.25374L10.0592 3.90311C10.2161 3.76374 10.3142 3.56124 10.3142 3.33561C10.3142 3.13936 10.2398 2.96061 10.1173 2.82561L10.1179 2.82624L9.05418 1.76249C8.9198 1.64061 8.74105 1.56624 8.5448 1.56624C8.31918 1.56624 8.11668 1.66499 7.9773 1.82124L7.97668 1.82186L7.62418 2.17436C7.55376 2.14311 7.48272 2.11374 7.41106 2.08624L7.41356 1.58749C7.4148 1.57311 7.4148 1.55686 7.4148 1.53999C7.4148 1.13436 7.09605 0.803738 6.69543 0.784363H6.69355H5.18855C4.78605 0.803738 4.4673 1.13499 4.4673 1.53999C4.4673 1.55686 4.46793 1.57311 4.46918 1.58936V1.58686V2.08499C4.39668 2.11249 4.32606 2.14186 4.25481 2.17374L3.90418 1.81936C3.7648 1.66186 3.5623 1.56249 3.33668 1.56249C3.14043 1.56249 2.96105 1.63749 2.82668 1.76061L2.8273 1.75999L1.76355 2.82374C1.64168 2.94811 1.56605 3.11874 1.56605 3.30686C1.56605 3.34561 1.56918 3.38311 1.57543 3.41999L1.5748 3.41624C1.60543 3.60749 1.69418 3.77374 1.8223 3.90061L2.1748 4.25249C2.14293 4.32374 2.11293 4.39499 2.08543 4.46811L1.5873 4.46561C1.57293 4.46436 1.55605 4.46436 1.5398 4.46436C1.1348 4.46436 0.80418 4.78311 0.78418 5.18311V5.18499V6.68999C0.803555 7.09249 1.1348 7.41124 1.5398 7.41124C1.55668 7.41124 1.57293 7.41061 1.58918 7.40936H1.58668H2.0848C2.1123 7.48186 2.1423 7.55249 2.17355 7.62374L1.8198 7.97436C1.6648 8.12561 1.56793 8.33499 1.56418 8.56686V8.56749C1.56418 8.56999 1.56418 8.57249 1.56418 8.57499C1.56418 8.76061 1.63918 8.92874 1.76105 9.05061L2.8248 10.115C2.9473 10.2362 3.11605 10.3112 3.30293 10.3112C3.30543 10.3112 3.30793 10.3112 3.3098 10.3112C3.5423 10.3069 3.75043 10.2094 3.90105 10.055L4.25355 9.70311C4.3248 9.73499 4.39605 9.76436 4.46855 9.79249L4.46605 10.29C4.4648 10.3044 4.4648 10.3206 4.4648 10.3375C4.4648 10.7431 4.78355 11.0737 5.18418 11.0931H5.18605H6.69043C7.09293 11.0737 7.41168 10.7425 7.41168 10.3375C7.41168 10.3206 7.41105 10.3044 7.4098 10.2881V10.2906V9.79186C7.4823 9.76436 7.55356 9.73436 7.62418 9.70311L7.9748 10.0556ZM6.47293 10.1562H5.40481L5.40856 9.48561C5.40856 9.47436 5.40293 9.46499 5.4023 9.45374C5.39293 9.38811 5.37668 9.32874 5.35418 9.27249L5.35606 9.27749C5.31918 9.19874 5.26043 9.13561 5.1873 9.09436L5.18543 9.09311C5.15855 9.07499 5.12731 9.05874 5.0948 9.04624L5.09168 9.04499C5.08293 9.04186 5.07668 9.03499 5.06731 9.03249C4.80168 8.95624 4.57043 8.85811 4.3548 8.73561L4.37105 8.74374C4.30918 8.70999 4.2348 8.68999 4.15605 8.68999H4.15543C4.14418 8.68999 4.13543 8.69249 4.12355 8.69249C4.00793 8.69624 3.90418 8.74249 3.82543 8.81561L3.8098 8.82186L3.35668 9.32124L2.57793 8.54249L3.0548 8.07061L3.06168 8.05374C3.13355 7.97686 3.1798 7.87436 3.1848 7.76186V7.76061C3.18543 7.74749 3.18793 7.73749 3.18793 7.72436C3.18793 7.72374 3.18793 7.72311 3.18793 7.72249C3.18793 7.64374 3.16793 7.56936 3.13293 7.50499L3.13418 7.50749C3.0198 7.30811 2.92168 7.07811 2.85105 6.83561L2.84543 6.81311C2.84293 6.80374 2.83543 6.79686 2.8323 6.78749C2.80605 6.72811 2.77543 6.67686 2.73918 6.62936L2.74043 6.63124C2.7198 6.60999 2.6973 6.59061 2.67293 6.57374L2.67168 6.57249C2.65043 6.55499 2.6273 6.53936 2.6023 6.52561L2.5998 6.52436C2.57605 6.51311 2.5473 6.50374 2.51793 6.49686L2.5148 6.49624C2.48855 6.48749 2.45793 6.48124 2.42605 6.47811H2.42418C2.41355 6.47749 2.4048 6.47186 2.39418 6.47186H1.72105V5.40374L2.39418 5.40686C2.48918 5.40436 2.57668 5.37311 2.64855 5.32186L2.6473 5.32311C2.6623 5.31436 2.67543 5.30561 2.6873 5.29624L2.68605 5.29686C2.75418 5.24186 2.80543 5.16811 2.83293 5.08436L2.83355 5.08124C2.83543 5.07499 2.8423 5.07186 2.84418 5.06561C2.92043 4.80061 3.01855 4.56999 3.14105 4.35499L3.13293 4.37061C3.16668 4.30811 3.18668 4.23374 3.18668 4.15499C3.1873 4.14186 3.18418 4.13186 3.18355 4.11874C3.17855 4.00499 3.13355 3.90311 3.06168 3.82561L3.0548 3.80874L2.57855 3.33249L3.33355 2.57749L3.80543 3.05436C3.81668 3.06561 3.8348 3.06186 3.84668 3.07186C3.92168 3.13999 4.0198 3.18436 4.12793 3.19061H4.12918L4.1398 3.19374C4.22418 3.19374 4.30293 3.17124 4.37105 3.13249L4.36855 3.13374C4.5673 3.01936 4.7973 2.92124 5.0398 2.85124L5.0623 2.84561C5.07168 2.84311 5.07856 2.83561 5.08793 2.83249C5.12168 2.81936 5.15043 2.80436 5.1773 2.78686L5.17543 2.78811C5.24918 2.73999 5.30918 2.67686 5.35168 2.60186L5.35293 2.59936C5.36355 2.57624 5.37293 2.54874 5.37918 2.52061L5.37981 2.51749C5.38856 2.49061 5.39543 2.45874 5.39855 2.42561V2.42374C5.39918 2.41374 5.40481 2.40436 5.40481 2.39436V1.72124H6.47356L6.4698 2.39186C6.4698 2.40249 6.47543 2.41186 6.47606 2.42249C6.47918 2.45686 6.48543 2.48874 6.49543 2.51936L6.4948 2.51624C6.5023 2.54749 6.51168 2.57499 6.52293 2.60124L6.52168 2.59811C6.53668 2.62624 6.55293 2.65061 6.57168 2.67311L6.57105 2.67249C6.58855 2.69749 6.6073 2.71999 6.62855 2.73999C6.64918 2.75686 6.67168 2.77311 6.69605 2.78624L6.69855 2.78749C6.72356 2.80436 6.75293 2.81936 6.78293 2.83124L6.78606 2.83249C6.79543 2.83561 6.8023 2.84311 6.8123 2.84561C7.0773 2.92186 7.3073 3.01936 7.5223 3.14124L7.50605 3.13311C7.56918 3.17061 7.6448 3.19311 7.72606 3.19311C7.84293 3.19311 7.94918 3.14686 8.02731 3.07124C8.03918 3.06186 8.05606 3.06561 8.06668 3.05499L8.54293 2.57874L9.29855 3.33436L8.82168 3.80624L8.81481 3.82311C8.74293 3.89999 8.6973 4.00186 8.6923 4.11374V4.11499C8.69168 4.12811 8.68856 4.13874 8.68918 4.15186C8.68918 4.15249 8.68918 4.15311 8.68918 4.15311C8.68918 4.23186 8.70918 4.30561 8.74418 4.37061L8.74293 4.36811C8.85668 4.56749 8.95543 4.79811 9.02605 5.04124L9.03168 5.06436C9.03356 5.07124 9.04105 5.07436 9.04293 5.08061C9.07168 5.16686 9.12293 5.23936 9.18918 5.29374L9.18981 5.29436C9.20105 5.30311 9.2148 5.31186 9.22793 5.32061L9.2298 5.32186C9.2998 5.37249 9.38731 5.40311 9.48168 5.40561H10.1554V6.47374L9.4823 6.47061C9.4723 6.47061 9.46418 6.47561 9.4548 6.47624C9.4173 6.47936 9.38293 6.48686 9.3498 6.49749L9.35293 6.49686C9.3248 6.50374 9.30043 6.51186 9.27731 6.52249L9.28043 6.52124C9.2498 6.53749 9.22356 6.55561 9.19918 6.57624L9.1998 6.57561C9.17668 6.59186 9.15668 6.60936 9.13793 6.62874C9.12043 6.64999 9.10355 6.67374 9.0898 6.69936L9.08856 6.70186C9.0723 6.72624 9.05793 6.75436 9.04605 6.78374L9.0448 6.78686C9.04168 6.79624 9.03418 6.80311 9.03106 6.81311C8.95543 7.07749 8.8573 7.30749 8.73543 7.52249L8.74356 7.50686C8.70981 7.56936 8.68981 7.64311 8.68981 7.72186C8.68981 7.72249 8.68981 7.72311 8.68981 7.72374C8.68918 7.73561 8.69168 7.74499 8.6923 7.75686C8.69668 7.87186 8.7423 7.97499 8.81481 8.05249L8.82168 8.06874L9.32105 8.52124L8.54293 9.29999L8.06981 8.82311L8.05418 8.81686C7.9773 8.74436 7.87418 8.69811 7.76043 8.69374H7.7598C7.7473 8.69311 7.73793 8.69061 7.72543 8.69061C7.64605 8.69061 7.57168 8.71061 7.50668 8.74561L7.50918 8.74436C7.3098 8.85811 7.07918 8.95686 6.83605 9.02749L6.81293 9.03311C6.8023 9.03624 6.79543 9.04374 6.7848 9.04749C6.72543 9.07436 6.67418 9.10499 6.6273 9.14124L6.62918 9.13999C6.6098 9.15936 6.5923 9.17999 6.57605 9.20249L6.5748 9.20374C6.55606 9.22624 6.53855 9.25186 6.52418 9.27874L6.52293 9.28124C6.51293 9.30374 6.50356 9.33061 6.4973 9.35811L6.49668 9.36124C6.4873 9.38874 6.48106 9.42124 6.47793 9.45436V9.45624C6.4773 9.46624 6.4723 9.47499 6.4723 9.48499L6.47293 10.1562ZM7.7473 5.93874C7.7473 4.93999 6.93793 4.13061 5.93918 4.13061C4.94043 4.13061 4.13105 4.93999 4.13105 5.93874C4.13105 6.93749 4.94043 7.74686 5.93918 7.74686C6.9373 7.74561 7.74543 6.93686 7.7473 5.93936V5.93874ZM5.93918 6.80936C5.45855 6.80936 5.06855 6.41999 5.06855 5.93874C5.06855 5.45749 5.45793 5.06811 5.93918 5.06811C6.4198 5.06811 6.8098 5.45749 6.8098 5.93874C6.80918 6.41936 6.41981 6.80811 5.93981 6.80936H5.93918ZM18.3929 12.2362H17.8448C17.8111 12.1469 17.7742 12.0587 17.7348 11.9719L18.1242 11.5869C18.2861 11.4437 18.3873 11.2356 18.3873 11.0037C18.3873 10.8031 18.3117 10.6206 18.1873 10.4825L18.1879 10.4831L17.0573 9.35249C16.9317 9.22874 16.7592 9.15249 16.5686 9.15249C16.5661 9.15249 16.5636 9.15249 16.5611 9.15249C16.3223 9.15749 16.1086 9.25686 15.9542 9.41561L15.5661 9.80374C15.4794 9.76457 15.3919 9.72832 15.3036 9.69499L15.3061 9.14624C15.3073 9.13124 15.3079 9.11311 15.3079 9.09561C15.3079 8.68124 14.9823 8.34249 14.5736 8.32186H14.5717H12.9736C12.5617 8.34249 12.2361 8.68186 12.2361 9.09686C12.2361 9.11436 12.2367 9.13186 12.2379 9.14936V9.14686V9.69499C12.1492 9.72874 12.0617 9.76499 11.9754 9.80436L11.5886 9.41499C11.4342 9.25624 11.2198 9.15624 10.9823 9.15124H10.9811C10.9786 9.15124 10.9761 9.15124 10.9736 9.15124C10.7836 9.15124 10.6117 9.22749 10.4861 9.35124L9.3548 10.4819C9.23106 10.6187 9.15543 10.8006 9.15543 11.0006C9.15543 11.2325 9.25731 11.4406 9.41856 11.5825L9.41918 11.5831L9.8073 11.9712C9.76793 12.0581 9.73106 12.1462 9.6973 12.2362L9.14918 12.2337C9.13418 12.2325 9.11605 12.2319 9.09855 12.2319C8.68418 12.2319 8.34543 12.5575 8.32481 12.9662V12.9681V14.5675C8.34543 14.9787 8.68418 15.3037 9.09855 15.3037C9.11668 15.3037 9.13418 15.3031 9.15168 15.3019H9.14918H9.6973C9.73106 15.3906 9.7673 15.4781 9.80668 15.565L9.41793 15.9512C9.25855 16.1062 9.15856 16.3212 9.15418 16.5594C9.15418 16.5619 9.15418 16.565 9.15418 16.5681C9.15418 16.7581 9.23043 16.93 9.35418 17.0544L10.4848 18.185C10.6098 18.3094 10.7829 18.3862 10.9736 18.3862C10.9754 18.3862 10.9779 18.3862 10.9798 18.3862C11.2192 18.3812 11.4342 18.28 11.5886 18.1206L11.9748 17.7337C12.0623 17.7737 12.1504 17.81 12.2404 17.8437L12.2379 18.3912C12.2367 18.4062 12.2361 18.4244 12.2361 18.4419C12.2361 18.8562 12.5617 19.1944 12.9704 19.215H12.9723H14.5704C14.9823 19.1944 15.3079 18.8556 15.3079 18.4406C15.3079 18.4231 15.3073 18.4056 15.3061 18.3887V18.3912V17.8425C15.3948 17.8087 15.4823 17.7725 15.5698 17.7331L15.9567 18.1244C16.1117 18.2819 16.3254 18.3806 16.5623 18.3856H16.5667C16.5673 18.3856 16.5686 18.3856 16.5692 18.3856C16.7592 18.3856 16.9317 18.3094 17.0573 18.1856L18.1854 17.0562C18.3104 16.9312 18.3879 16.7581 18.3879 16.5669C18.3879 16.5662 18.3879 16.565 18.3879 16.5644C18.3842 16.3244 18.2842 16.1081 18.1254 15.9519L17.7367 15.5631C17.7761 15.4769 17.8117 15.39 17.8448 15.3012L18.3936 15.3037C18.4086 15.305 18.4267 15.3056 18.4442 15.3056C18.8586 15.3056 19.1967 14.98 19.2173 14.5712V14.5694V12.9712C19.1967 12.56 18.8586 12.2344 18.4442 12.2344C18.4261 12.2344 18.4086 12.235 18.3911 12.2362H18.3936H18.3929ZM18.2792 14.3662L17.5342 14.3625C17.5254 14.3625 17.5186 14.3669 17.5104 14.3675C17.4711 14.3706 17.4348 14.3781 17.4004 14.39L17.4036 14.3894C17.3192 14.4175 17.2473 14.4631 17.1886 14.5219C17.1717 14.5425 17.1554 14.5656 17.1417 14.59L17.1404 14.5925C17.1242 14.6175 17.1092 14.6456 17.0973 14.6756L17.0961 14.6787C17.0923 14.6887 17.0848 14.6962 17.0817 14.7062C17.0017 14.9894 16.8967 15.2356 16.7654 15.465L16.7742 15.4487C16.7404 15.5106 16.7204 15.585 16.7204 15.6637C16.7204 15.665 16.7204 15.6662 16.7204 15.6675C16.7204 15.6769 16.7223 15.6844 16.7229 15.6944C16.7261 15.8106 16.7723 15.9156 16.8467 15.9944L16.8536 16.0106L17.3798 16.5369L16.5361 17.3806L16.0148 16.8544C16.0098 16.8494 16.0023 16.8519 15.9973 16.8469C15.9204 16.775 15.8186 16.7294 15.7054 16.7244H15.7042C15.6917 16.7237 15.6817 16.7212 15.6692 16.7212C15.6679 16.7212 15.6673 16.7212 15.6661 16.7212C15.5879 16.7212 15.5142 16.7412 15.4504 16.7762L15.4529 16.775C15.2398 16.8962 14.9923 17.0019 14.7329 17.0775L14.7079 17.0837C14.6973 17.0869 14.6904 17.0944 14.6804 17.0981C14.6492 17.1106 14.6223 17.1244 14.5967 17.1412L14.5986 17.14C14.4729 17.22 14.3873 17.3525 14.3717 17.5056V17.5075C14.3711 17.5169 14.3661 17.525 14.3661 17.535V18.2794H13.1723L13.1761 17.5369C13.1761 17.5269 13.1711 17.5181 13.1704 17.5081C13.1673 17.4737 13.1611 17.4425 13.1511 17.4125L13.1517 17.4156C13.1267 17.2987 13.0536 17.2025 12.9548 17.1469L12.9529 17.1456C12.9254 17.1269 12.8948 17.1106 12.8617 17.0981L12.8586 17.0969C12.8498 17.0937 12.8436 17.0869 12.8342 17.0844C12.5504 17.0037 12.3029 16.8981 12.0729 16.7669L12.0898 16.7756C12.0279 16.7425 11.9548 16.7231 11.8767 16.7231C11.8761 16.7231 11.8761 16.7231 11.8754 16.7231C11.8604 16.7237 11.8454 16.725 11.8311 16.7269H11.8329C11.7217 16.7325 11.6217 16.7769 11.5454 16.8469L11.5461 16.8462C11.5404 16.8512 11.5323 16.8487 11.5267 16.8544L11.0011 17.3806L10.1573 16.5369L10.6848 16.0144C10.6898 16.0094 10.6879 16.0012 10.6923 15.9962C10.7636 15.9194 10.8092 15.8181 10.8142 15.7062V15.705C10.8148 15.6919 10.8179 15.6812 10.8173 15.6681C10.8173 15.6675 10.8173 15.6669 10.8173 15.6669C10.8173 15.5881 10.7973 15.5144 10.7623 15.4494L10.7636 15.4519C10.6417 15.2387 10.5367 14.9925 10.4611 14.7331L10.4548 14.7087C10.4523 14.6987 10.4448 14.6925 10.4417 14.6831C10.4286 14.65 10.4136 14.6212 10.3961 14.5944L10.3973 14.5962C10.3829 14.57 10.3679 14.5475 10.3504 14.5269L10.3511 14.5275C10.2886 14.4562 10.2036 14.4056 10.1073 14.3875L10.1048 14.3869C10.0879 14.3819 10.0673 14.3775 10.0461 14.375H10.0436C10.0298 14.3737 10.0179 14.3669 10.0042 14.3669H9.2598V13.1731L10.0042 13.1769C10.1229 13.1731 10.2298 13.125 10.3086 13.0487C10.3411 13.0162 10.3679 12.9775 10.3873 12.935L10.3886 12.9325C10.4092 12.8981 10.4442 12.8756 10.4554 12.835C10.5373 12.5506 10.6423 12.3037 10.7729 12.0731L10.7642 12.09C10.7986 12.0275 10.8186 11.9531 10.8186 11.8744C10.8192 11.8625 10.8167 11.8531 10.8161 11.8412C10.8123 11.7256 10.7661 11.6219 10.6923 11.5437L10.6867 11.5294L10.1604 11.0019L11.0042 10.1581L11.5267 10.6856C11.5379 10.6969 11.5548 10.6925 11.5667 10.7025C11.6436 10.7744 11.7461 10.82 11.8586 10.825H11.8598C11.9442 10.825 12.0236 10.8025 12.0917 10.7631L12.0892 10.7644C12.3023 10.6419 12.5492 10.5369 12.8086 10.4619L12.8323 10.4556C12.8417 10.4531 12.8486 10.4456 12.8579 10.4425C12.8911 10.43 12.9192 10.415 12.9454 10.3975L12.9436 10.3987C13.0473 10.3431 13.1223 10.2469 13.1486 10.1319L13.1492 10.1294C13.1586 10.1012 13.1654 10.0687 13.1686 10.035V10.0331C13.1692 10.0231 13.1742 10.015 13.1742 10.005V9.26061H14.3679L14.3642 10.0031C14.3642 10.0131 14.3692 10.0206 14.3698 10.0306C14.3736 10.0712 14.3817 10.1087 14.3942 10.1444L14.3929 10.1412C14.3979 10.1606 14.4036 10.1762 14.4098 10.1919L14.4086 10.1894C14.4623 10.3181 14.5698 10.4162 14.7023 10.4556L14.7054 10.4562C14.9892 10.5375 15.2354 10.6425 15.4661 10.7731L15.4492 10.7644C15.5148 10.8019 15.5936 10.8244 15.6779 10.8244C15.7911 10.8194 15.8936 10.7744 15.9711 10.7025C15.9829 10.6931 15.9998 10.6969 16.0111 10.6862L16.5373 10.16L17.3811 11.0037L16.8536 11.5256L16.8467 11.5419C16.7742 11.6187 16.7286 11.7212 16.7236 11.8344V11.8356C16.7229 11.8481 16.7204 11.8581 16.7204 11.8706C16.7204 11.8712 16.7204 11.8725 16.7204 11.8731C16.7204 11.9519 16.7404 12.0262 16.7754 12.0906L16.7742 12.0881C16.8967 12.3019 17.0023 12.5487 17.0773 12.8087L17.0829 12.8325C17.0848 12.84 17.0929 12.8431 17.0948 12.85C17.1236 12.9356 17.1742 13.0081 17.2404 13.0619L17.2411 13.0625C17.2529 13.0712 17.2661 13.0806 17.2798 13.0887L17.2817 13.09C17.3523 13.1406 17.4392 13.1719 17.5336 13.1744H17.5342H18.2786L18.2792 14.3662ZM13.7698 11.8775C12.7254 11.8775 11.8779 12.7244 11.8779 13.7687C11.8779 14.8131 12.7248 15.66 13.7692 15.66C14.8136 15.66 15.6604 14.8137 15.6604 13.7694C15.6592 12.725 14.8136 11.8787 13.7698 11.8775ZM13.7698 14.7231C13.2429 14.7231 12.8154 14.2962 12.8154 13.7694C12.8154 13.2425 13.2423 12.8156 13.7692 12.8156C14.2961 12.8156 14.7229 13.2425 14.7229 13.7694C14.7217 14.2956 14.2954 14.7225 13.7698 14.7231Z" fill="white"/>
</g>
</g>
<defs>
<clipPath id="clip0_5209_4652">
<rect width="20" height="20" fill="white"/>
</clipPath>
<clipPath id="clip1_5209_4652">
<rect width="20" height="20" fill="white"/>
</clipPath>
</defs>
</svg>
