<svg width="20" height="20" viewBox="0 0 20 20" fill="none" xmlns="http://www.w3.org/2000/svg">
<g clip-path="url(#clip0_5209_4656)">
<path d="M9.60404 1.91249C9.64056 1.83871 9.69697 1.7766 9.76692 1.73318C9.83686 1.68976 9.91755 1.66675 9.99987 1.66675C10.0822 1.66675 10.1629 1.68976 10.2328 1.73318C10.3028 1.7766 10.3592 1.83871 10.3957 1.91249L12.3207 5.81166C12.4475 6.0683 12.6347 6.29033 12.8662 6.4587C13.0977 6.62707 13.3666 6.73675 13.6499 6.77833L17.9549 7.40833C18.0364 7.42014 18.1131 7.45455 18.1761 7.50766C18.2391 7.56076 18.2861 7.63045 18.3116 7.70883C18.337 7.78721 18.3401 7.87116 18.3204 7.95119C18.3006 8.03121 18.2589 8.10412 18.1999 8.16166L15.0865 11.1933C14.8812 11.3934 14.7276 11.6404 14.6389 11.913C14.5502 12.1856 14.5291 12.4757 14.5774 12.7583L15.3124 17.0417C15.3268 17.1232 15.318 17.2071 15.287 17.2839C15.2559 17.3607 15.204 17.4272 15.137 17.4758C15.07 17.5245 14.9907 17.5533 14.9081 17.5591C14.8255 17.5648 14.743 17.5472 14.6699 17.5083L10.8215 15.485C10.568 15.3518 10.2859 15.2823 9.99946 15.2823C9.71306 15.2823 9.43094 15.3518 9.17737 15.485L5.32987 17.5083C5.25681 17.547 5.17437 17.5644 5.09191 17.5585C5.00946 17.5527 4.9303 17.5238 4.86345 17.4752C4.7966 17.4266 4.74473 17.3601 4.71375 17.2835C4.68277 17.2069 4.67392 17.1231 4.68821 17.0417L5.42237 12.7592C5.47087 12.4764 5.44986 12.1862 5.36115 11.9134C5.27245 11.6406 5.11871 11.3935 4.91321 11.1933L1.79987 8.16249C1.74037 8.10502 1.6982 8.03199 1.67817 7.95172C1.65815 7.87145 1.66107 7.78717 1.6866 7.70848C1.71214 7.6298 1.75926 7.55986 1.8226 7.50665C1.88594 7.45343 1.96296 7.41907 2.04487 7.40749L6.34904 6.77833C6.63259 6.73708 6.90186 6.62754 7.13369 6.45915C7.36552 6.29076 7.55296 6.06855 7.67987 5.81166L9.60404 1.91249Z" stroke="white" stroke-width="1.66667" stroke-linecap="round" stroke-linejoin="round"/>
</g>
<defs>
<clipPath id="clip0_5209_4656">
<rect width="20" height="20" fill="white"/>
</clipPath>
</defs>
</svg>
