<svg width="20" height="20" viewBox="0 0 20 20" fill="none" xmlns="http://www.w3.org/2000/svg">
<g clip-path="url(#clip0_5209_4660)">
<path d="M18.1678 8.33332C18.5484 10.2011 18.2772 12.1428 17.3994 13.8348C16.5216 15.5268 15.0902 16.8667 13.3441 17.6311C11.5979 18.3955 9.64252 18.5381 7.80391 18.0353C5.9653 17.5325 4.35465 16.4145 3.24056 14.8678C2.12646 13.3212 1.57626 11.4394 1.68171 9.53615C1.78717 7.63294 2.54189 5.8234 3.82004 4.4093C5.09818 2.9952 6.82248 2.06202 8.70538 1.76537C10.5883 1.46872 12.516 1.82654 14.167 2.77916" stroke="white" stroke-width="2" stroke-linecap="round" stroke-linejoin="round"/>
<path d="M7.5 9.16668L10 11.6667L18.3333 3.33334" stroke="white" stroke-width="2" stroke-linecap="round" stroke-linejoin="round"/>
</g>
<defs>
<clipPath id="clip0_5209_4660">
<rect width="20" height="20" fill="white"/>
</clipPath>
</defs>
</svg>
